{
.appVersion = "3260";
.formatVersion = 3;
axes = (
{
name = Weight;
tag = wght;
},
{
name = Width;
tag = wdth;
}
);
date = "2024-08-21 22:00:37 +0000";
familyName = NeonSky;
featurePrefixes = (
{
automatic = 1;
code = "languagesystem DFLT dflt;

languagesystem latn dflt;
languagesystem latn NLD;
";
name = Languagesystems;
}
);
features = (
{
automatic = 1;
code = "feature locl;
feature subs;
feature sinf;
feature sups;
feature numr;
feature dnom;
feature frac;
feature lnum;
feature pnum;
feature tnum;
feature onum;
feature case;
feature salt;
";
tag = aalt;
},
{
automatic = 1;
code = "lookup ccmp_Other_1 {
	@CombiningTopAccents = [acutecomb circumflexcomb dieresiscomb dotaccentcomb gravecomb ringcomb tildecomb];
	lookupflag UseMarkFilteringSet @CombiningTopAccents;
	sub i' @CombiningTopAccents by idotless;
	sub j' @CombiningTopAccents by jdotless;
} ccmp_Other_1;
";
tag = ccmp;
},
{
automatic = 1;
code = "script latn;
language NLD;
lookup locl_latn_0 {
	sub iacute j' by jacute;
	sub Iacute J' by Jacute;
} locl_latn_0;
";
tag = locl;
},
{
automatic = 1;
code = "sub zero by zeroinferior;
sub one by oneinferior;
sub two by twoinferior;
sub three by threeinferior;
sub four by fourinferior;
sub five by fiveinferior;
sub six by sixinferior;
sub seven by seveninferior;
sub eight by eightinferior;
sub nine by nineinferior;
";
tag = subs;
},
{
automatic = 1;
code = "sub zero by zeroinferior;
sub one by oneinferior;
sub two by twoinferior;
sub three by threeinferior;
sub four by fourinferior;
sub five by fiveinferior;
sub six by sixinferior;
sub seven by seveninferior;
sub eight by eightinferior;
sub nine by nineinferior;
";
tag = sinf;
},
{
automatic = 1;
code = "sub zero by zerosuperior;
sub one by onesuperior;
sub two by twosuperior;
sub three by threesuperior;
sub four by foursuperior;
sub five by fivesuperior;
sub six by sixsuperior;
sub seven by sevensuperior;
sub eight by eightsuperior;
sub nine by ninesuperior;
";
tag = sups;
},
{
automatic = 1;

glyphs = (
{
glyphname = A;
kernLeft = LCH;
kernRight = A;
lastChange = "2024-08-27 01:18:04 +0000";
layers = (
{
anchors = (
{
name = ogonek;
pos = (109,0);
},
{
name = top;
pos = (380,520);
}
);
layerId = m01;
shapes = (
{
closed = 1;
nodes = (
(461,-10,l),
(597,82,l),
(597,367,l),
(515,419,l),
(282,419,l),
(217,349,l),
(497,349,l),
(497,60,l),
(335,60,l),
(218,205,l),
(168,205,l),
(168,135,l),
(293,-10,l)
);
},
{
closed = 1;
nodes = (
(180,27,l),
(180,700,l),
(130,700,l),
(15,580,l),
(80,580,l),
(80,-30,l)
);
},
{
closed = 1;
nodes = (
(513,538,l),
(578,608,l),
(168,608,l),
(168,538,l)
);
}
);
width = 630;
},
{
anchors = (
{
name = ogonek;
pos = (139,0);
},
{
name = top;
pos = (440,550);
}
);
layerId = m002;
shapes = (
{
closed = 1;
nodes = (
(554,-10,l),
(707,93,l),
(707,371,l),
(607,434,l),
(374,434,l),
(282,334,l),
(547,334,l),
(547,90,l),
(404,90,l),
(287,235,l),
(188,235,l),
(188,149,l),
(325,-10,l)
);
},
{
closed = 1;
nodes = (
(260,62,l),
(260,700,l),
(163,700,l),
(19,550,l),
(100,550,l),
(100,-30,l)
);
},
{
closed = 1;
nodes = (
(611,523,l),
(703,623,l),
(188,623,l),
(188,523,l)
);
}
);
width = 740;
},
{
anchors = (
{
name = ogonek;
pos = (119,0);
},
{
name = top;
pos = (450,520);
}
);
layerId = m004;
shapes = (
{
closed = 1;
nodes = (
(621,-10,l),
(757,82,l),
(757,367,l),
(675,419,l),
(362,419,l),
(297,349,l),
(657,349,l),
(657,60,l),
(385,60,l),
(212,235,l),
(162,235,l),
(162,165,l),
(343,-10,l)
);
},
{
closed = 1;
nodes = (
(180,27,l),
(180,700,l),
(130,700,l),
(15,580,l),
(80,580,l),
(80,-30,l)
);
},
{
closed = 1;
nodes = (
(673,538,l),
(738,608,l),
(168,608,l),
(168,538,l)
);
}
);
width = 790;
},
{
anchors = (
{
name = ogonek;
pos = (93,0);
},
{
name = top;
pos = (306,530);
}
);
layerId = m005;
shapes = (
{
closed = 1;
nodes = (
(506,-10,l),
(537,23,l),
(537,339,l),
(495,369,l),
(228,369,l),
(200,339,l),
(497,339,l),
(497,20,l),
(238,20,l),
(111,190,l),
(108,190,l),
(108,143,l),
(220,-10,l)
);
},
{
closed = 1;
nodes = (
(120,0,l),
(120,700,l),
(116,700,l),
(39,620,l),
(80,620,l),
(80,-30,l)
);
},
{
closed = 1;
nodes = (
(487,558,l),
(515,588,l),
(108,588,l),
(108,558,l)
);
}
);
width = 580;
}
);
unicode = 65;
},
{
color = 3;
glyphname = AE;
kernLeft = LCH;
kernRight = E;
lastChange = "2024-08-27 01:12:29 +0000";
layers = (
{
layerId = m01;
shapes = (
{
closed = 1;
nodes = (
(461,-10,l),
(597,82,l),
(597,367,l),
(515,419,l),
(282,419,l),
(217,349,l),
(497,349,l),
(497,60,l),
(335,60,l),
(218,205,l),
(168,205,l),
(168,135,l),
(293,-10,l)
);
},
{
closed = 1;
nodes = (
(180,27,l),
(180,700,l),
(130,700,l),
(15,580,l),
(80,580,l),
(80,-30,l)
);
},
{
closed = 1;
nodes = (
(853,573,l),
(853,174,l),
(726,60,l),
(640,60,l),
(543,135,l),
(506,135,l),
(506,67,l),
(606,-10,l),
(778,-10,l),
(953,147,l),
(953,593,l),
(904,643,l),
(168,643,l),
(168,573,l)
);
},
{
closed = 1;
nodes = (
(1011,315,l),
(1076,385,l),
(718,385,l),
(653,315,l)
);
}
);
width = 1104;
},
{
layerId = m002;
shapes = (
{
closed = 1;
nodes = (
(524,-25,l),
(677,78,l),
(677,371,l),
(577,434,l),
(314,434,l),
(222,334,l),
(517,334,l),
(517,75,l),
(404,75,l),
(287,220,l),
(188,220,l),
(188,134,l),
(325,-25,l)
);
},
{
closed = 1;
nodes = (
(260,23,l),
(260,715,l),
(163,715,l),
(19,565,l),
(100,565,l),
(100,-69,l)
);
},
{
closed = 1;
nodes = (
(873,558,l),
(873,176,l),
(760,75,l),
(704,75,l),
(607,150,l),
(526,150,l),
(526,64,l),
(642,-25,l),
(844,-25,l),
(1033,145,l),
(1033,595,l),
(971,658,l),
(188,658,l),
(188,558,l)
);
},
{
closed = 1;
nodes = (
(1079,300,l),
(1171,400,l),
(750,400,l),
(658,300,l)
);
}
);
width = 1204;
},
{
layerId = m004;
shapes = (
{
closed = 1;
nodes = (
(601,-10,l),
(737,82,l),
(737,367,l),
(655,419,l),
(322,419,l),
(257,349,l),
(637,349,l),
(637,60,l),
(355,60,l),
(218,265,l),
(168,265,l),
(168,195,l),
(313,-10,l)
);
},
{
closed = 1;
nodes = (
(180,27,l),
(180,700,l),
(130,700,l),
(15,580,l),
(80,580,l),
(80,-30,l)
);
},
{
closed = 1;
nodes = (
(1123,573,l),
(1123,174,l),
(996,60,l),
(830,60,l),
(683,135,l),
(646,135,l),
(646,67,l),
(796,-10,l),
(1048,-10,l),
(1223,147,l),
(1223,593,l),
(1174,643,l),
(168,643,l),
(168,573,l)
);
},
{
closed = 1;
nodes = (
(1401,315,l),
(1466,385,l),
(908,385,l),
(843,315,l)
);
}
);
width = 1494;
},
{
layerId = m005;
shapes = (
{
closed = 1;
nodes = (
(497,-10,l),
(537,31,l),
(537,319,l),
(497,359,l),
(218,359,l),
(190,329,l),
(497,329,l),
(497,20,l),
(302,20,l),
(116,185,l),
(113,185,l),
(113,140,l),
(279,-10,l)
);
},
{
closed = 1;
nodes = (
(120,0,l),
(120,700,l),
(116,700,l),
(39,620,l),
(80,620,l),
(80,-30,l)
);
},
{
closed = 1;
nodes = (
(853,593,l),
(853,148,l),
(750,20,l),
(608,20,l),
(531,65,l),
(516,65,l),
(516,34,l),
(589,-10,l),
(774,-10,l),
(893,133,l),
(893,588,l),
(858,623,l),
(102,623,l),
(102,593,l)
);
},
{
closed = 1;
nodes = (
(1015,325,l),
(1043,355,l),
(664,355,l),
(636,325,l)
);
}
);
width = 1094;
}
);
metricLeft = A;
metricRight = E;
unicode = 198;
},
{
color = 1;
glyphname = B;
kernLeft = B;
kernRight = B;
lastChange = "2024-08-27 01:06:41 +0000";
layers = (
{
backgroundImage = {
imagePath = "../reference/@Celes/uppercase/B.png";
locked = 1;
pos = (-30,0);
scale = (14,14);
};
layerId = m01;
shapes = (
{
closed = 1;
nodes = (
(380,-10,l),
(517,170,l),
(467,170,l),
(320,60,l),
(366,60,l),
(120,315,l),
(368,594,l),
(333,594,l),
(333,344,l),
(433,344,l),
(433,700,l),
(383,700,l),
(30,316,l),
(30,261,l),
(276,-10,l)
);
},
{
closed = 1;
nodes = (
(578,304,l),
(643,374,l),
(96,374,l),
(96,304,l)
);
}
);
width = 660;
},
{
backgroundImage = {
imagePath = "../reference/@Celes/uppercase/B.png";
locked = 1;
scale = (14,14);
};
layerId = m002;
shapes = (
{
closed = 1;
nodes = (
(529,-10,l),
(689,215,l),
(584,215,l),
(428,90,l),
(466,90,l),
(181,315,l),
(503,599,l),
(393,599,l),
(393,329,l),
(553,329,l),
(553,700,l),
(455,700,l),
(30,318,l),
(30,259,l),
(308,-10,l)
);
},
{
closed = 1;
nodes = (
(671,274,l),
(763,374,l),
(126,374,l),
(126,274,l)
);
}
);
width = 780;
},
{
backgroundImage = {
imagePath = "../reference/@Celes/uppercase/B.png";
locked = 1;
pos = (-30,0);
scale = (14,14);
};
layerId = m004;
shapes = (
{
closed = 1;
nodes = (
(579,-10,l),
(739,170,l),
(689,170,l),
(570,80,l),
(348,80,l),
(121,315,l),
(473,599,l),
(423,599,l),
(423,349,l),
(523,349,l),
(523,700,l),
(473,700,l),
(31,318,l),
(31,259,l),
(278,-10,l)
);
},
{
closed = 1;
nodes = (
(748,294,l),
(813,364,l),
(96,364,l),
(96,294,l)
);
}
);
width = 830;
},
{
backgroundImage = {
imagePath = "../reference/@Celes/uppercase/B.png";
locked = 1;
pos = (-50,0);
scale = (14,14);
};
layerId = m005;
shapes = (
{
closed = 1;
nodes = (
(342,-10,l),
(494,190,l),
(480,190,l),
(303,10,l),
(320,10,l),
(69,289,l),
(352,614,l),
(343,614,l),
(343,314,l),
(383,314,l),
(383,700,l),
(379,700,l),
(40,311,l),
(40,266,l),
(272,-10,l)
);
},
{
closed = 1;
nodes = (
(542,284,l),
(570,314,l),
(60,314,l),
(60,284,l)
);
}
);
width = 610;
}
);
unicode = 66;
},
{
color = 1;
glyphname = C;
kernLeft = C;
kernRight = RCH;
lastChange = "2024-08-27 01:20:18 +0000";
layers = (
{
anchors = (
{
name = ogonek;
pos = (327,0);
},
{
name = top;
pos = (241,580);
}
);
backgroundImage = {
imagePath = "../reference/@Celes/uppercase/C.png";
locked = 1;
pos = (-70,0);
scale = (14,14);
};
layerId = m01;
shapes = (
{
closed = 1;
nodes = (
(327,-10,l),
(429,47,l),
(429,700,l),
(379,700,l),
(239,580,l),
(329,580,l),
(329,373,l),
(100,373,l),
(35,317,l),
(35,139,l),
(247,-10,l)
);
},
{
closed = 1;
nodes = (
(395,60,l),
(287,60,l),
(110,201,l),
(110,303,l),
(329,303,l),
(329,29,l)
);
}
);
width = 470;
},
{
anchors = (
{
name = ogonek;
pos = (397,0);
},
{
name = top;
pos = (281,580);
}
);
backgroundImage = {
imagePath = "../reference/@Celes/uppercase/C.png";
locked = 1;
pos = (-40,0);
scale = (14,14);
};
layerId = m002;
shapes = (
{
closed = 1;
nodes = (
(398,-10,l),
(519,42,l),
(519,700,l),
(424,700,l),
(249,565,l),
(359,565,l),
(359,388,l),
(115,388,l),
(35,319,l),
(35,136,l),
(264,-10,l)
);
},
{
closed = 1;
nodes = (
(489,75,l),
(362,55,l),
(170,204,l),
(170,288,l),
(359,288,l),
(359,10,l)
);
}
);
width = 560;
},
{
anchors = (
{
name = ogonek;
pos = (477,0);
},
{
name = top;
pos = (341,580);
}
);
backgroundImage = {
imagePath = "../reference/@Celes/uppercase/C.png";
locked = 1;
scale = (14,14);
};
layerId = m004;
shapes = (
{
closed = 1;
nodes = (
(477,-10,l),
(579,47,l),
(579,700,l),
(529,700,l),
(349,580,l),
(479,580,l),
(479,373,l),
(100,373,l),
(35,317,l),
(35,139,l),
(247,-10,l)
);
},
{
closed = 1;
nodes = (
(545,60,l),
(287,60,l),
(110,201,l),
(110,303,l),
(479,303,l),
(479,29,l)
);
}
);
width = 620;
},
{
anchors = (
{
name = ogonek;
pos = (317,0);
},
{
name = top;
pos = (261,580);
}
);
backgroundImage = {
imagePath = "../reference/@Celes/uppercase/C.png";
locked = 1;
pos = (-80,0);
scale = (14,14);
};
layerId = m005;
shapes = (
{
closed = 1;
nodes = (
(317,-10,l),
(389,36,l),
(389,700,l),
(383,700,l),
(290,620,l),
(349,620,l),
(349,343,l),
(90,343,l),
(40,301,l),
(40,141,l),
(219,-10,l)
);
},
{
closed = 1;
nodes = (
(301,20,l),
(234,20,l),
(80,158,l),
(80,313,l),
(349,313,l),
(349,47,l)
);
}
);
width = 440;
}
);
unicode = 67;
},
{
color = 1;
glyphname = D;
kernLeft = D;
kernRight = D;
lastChange = "2024-08-27 01:06:50 +0000";
layers = (
{
anchors = (
{
name = top;
pos = (336,600);
}
);
backgroundImage = {
imagePath = "../reference/@Celes/uppercase/D.png";
locked = 1;
pos = (-40,0);
scale = (14,14);
};
layerId = m01;
shapes = (
{
closed = 1;
nodes = (
(435,-10,l),
(500,60,l),
(239,60,l),
(135,163,l),
(135,417,l),
(312,627,l),
(367,627,l),
(536,426,l),
(536,553,l),
(381,700,l),
(294,700,l),
(35,414,l),
(35,133,l),
(167,-10,l)
);
},
{
closed = 1;
nodes = (
(390,22,l),
(390,657,l),
(290,657,l),
(290,22,l)
);
}
);
width = 570;
},
{
anchors = (
{
name = top;
pos = (386,600);
}
);
backgroundImage = {
imagePath = "../reference/@Celes/uppercase/D.png";
locked = 1;
pos = (-10,0);
scale = (14,14);
};
layerId = m002;
shapes = (
{
closed = 1;
nodes = (
(504,-10,l),
(595,76,l),
(317,76,l),
(195,165,l),
(195,416,l),
(350,612,l),
(439,612,l),
(616,373,l),
(616,575,l),
(447,700,l),
(326,700,l),
(35,415,l),
(35,131,l),
(200,-10,l)
);
},
{
closed = 1;
nodes = (
(470,22,l),
(470,657,l),
(310,657,l),
(310,22,l)
);
}
);
width = 650;
},
{
anchors = (
{
name = top;
pos = (416,600);
}
);
backgroundImage = {
imagePath = "../reference/@Celes/uppercase/D.png";
locked = 1;
pos = (30,0);
scale = (14,14);
};
layerId = m004;
shapes = (
{
closed = 1;
nodes = (
(595,-10,l),
(660,60,l),
(239,60,l),
(135,163,l),
(135,417,l),
(302,627,l),
(527,627,l),
(696,456,l),
(696,573,l),
(541,700,l),
(274,700,l),
(35,414,l),
(35,133,l),
(167,-10,l)
);
},
{
closed = 1;
nodes = (
(470,22,l),
(470,657,l),
(370,657,l),
(370,22,l)
);
}
);
width = 730;
},
{
anchors = (
{
name = top;
pos = (316,600);
}
);
backgroundImage = {
imagePath = "../reference/@Celes/uppercase/D.png";
locked = 1;
pos = (-60,0);
scale = (14,14);
};
layerId = m005;
shapes = (
{
closed = 1;
nodes = (
(409,-10,l),
(437,20,l),
(194,20,l),
(85,153,l),
(85,413,l),
(300,670,l),
(340,670,l),
(486,502,l),
(486,547,l),
(346,700,l),
(290,700,l),
(45,409,l),
(45,138,l),
(163,-10,l)
);
},
{
closed = 1;
nodes = (
(340,12,l),
(340,682,l),
(300,682,l),
(300,12,l)
);
}
);
width = 530;
}
);
unicode = 68;
},
{
color = 3;
glyphname = Eth;
kernLeft = D;
lastChange = "2024-08-27 01:22:22 +0000";
layers = (
{
layerId = m01;
shapes = (
{
ref = D;
},
{
closed = 1;
nodes = (
(454,305,l),
(519,375,l),
(245,375,l),
(180,305,l)
);
}
);
width = 570;
},
{
layerId = m002;
shapes = (
{
ref = D;
},
{
closed = 1;
nodes = (
(521,260,l),
(613,360,l),
(246,360,l),
(154,260,l)
);
}
);
width = 650;
},
{
layerId = m004;
shapes = (
{
ref = D;
},
{
closed = 1;
nodes = (
(574,305,l),
(639,375,l),
(245,375,l),
(180,305,l)
);
}
);
width = 730;
},
{
layerId = m005;
shapes = (
{
ref = D;
},
{
closed = 1;
nodes = (
(448,325,l),
(476,355,l),
(211,355,l),
(183,325,l)
);
}
);
width = 530;
}
);
metricLeft = D;
metricRight = D;
unicode = 208;
},
{
color = 1;
glyphname = E;
kernLeft = E;
kernRight = E;
lastChange = "2024-08-27 01:06:54 +0000";
layers = (
{
anchors = (
{
name = top;
pos = (321,572);
}
);
backgroundImage = {
imagePath = "../reference/@Celes/uppercase/E.png";
locked = 1;
pos = (40,0);
scale = (14,14);
};
layerId = m01;
shapes = (
{
closed = 1;
nodes = (
(324,-10,l),
(499,147,l),
(499,593,l),
(450,643,l),
(162,643,l),
(162,700,l),
(112,700,l),
(35,613,l),
(35,573,l),
(399,573,l),
(399,174,l),
(272,60,l),
(186,60,l),
(89,135,l),
(52,135,l),
(52,67,l),
(152,-10,l)
);
},
{
closed = 1;
nodes = (
(557,315,l),
(622,385,l),
(264,385,l),
(199,315,l)
);
}
);
width = 650;
},
{
anchors = (
{
name = top;
pos = (351,602);
}
);
backgroundImage = {
imagePath = "../reference/@Celes/uppercase/E.png";
locked = 1;
pos = (70,0);
scale = (14,14);
};
layerId = m002;
shapes = (
{
closed = 1;
nodes = (
(390,-10,l),
(579,145,l),
(579,580,l),
(517,643,l),
(222,643,l),
(222,700,l),
(124,700,l),
(35,599,l),
(35,543,l),
(419,543,l),
(419,176,l),
(306,90,l),
(230,90,l),
(133,150,l),
(52,150,l),
(52,64,l),
(168,-10,l)
);
},
{
closed = 1;
nodes = (
(625,300,l),
(717,400,l),
(276,400,l),
(184,300,l)
);
}
);
width = 750;
},
{
anchors = (
{
name = top;
pos = (371,572);
}
);
backgroundImage = {
imagePath = "../reference/@Celes/uppercase/E.png";
locked = 1;
pos = (130,0);
scale = (14,14);
};
layerId = m004;
shapes = (
{
closed = 1;
nodes = (
(464,-10,l),
(639,147,l),
(639,593,l),
(590,643,l),
(202,643,l),
(202,700,l),
(152,700,l),
(35,613,l),
(35,573,l),
(539,573,l),
(539,174,l),
(412,60,l),
(186,60,l),
(89,135,l),
(52,135,l),
(52,67,l),
(152,-10,l)
);
},
{
closed = 1;
nodes = (
(717,315,l),
(782,385,l),
(294,385,l),
(229,315,l)
);
}
);
width = 810;
},
{
anchors = (
{
name = top;
pos = (301,572);
}
);
backgroundImage = {
imagePath = "../reference/@Celes/uppercase/E.png";
locked = 1;
pos = (20,0);
scale = (14,14);
};
layerId = m005;
shapes = (
{
closed = 1;
nodes = (
(290,-10,l),
(449,123,l),
(449,608,l),
(414,643,l),
(112,643,l),
(112,700,l),
(108,700,l),
(45,628,l),
(45,613,l),
(409,613,l),
(409,138,l),
(266,20,l),
(143,20,l),
(52,95,l),
(52,95,l),
(52,54,l),
(135,-10,l)
);
},
{
closed = 1;
nodes = (
(521,325,l),
(549,355,l),
(260,355,l),
(232,325,l)
);
}
);
width = 600;
}
);
unicode = 69;
},
{
glyphname = F;
kernLeft = LCH;
kernRight = F;
lastChange = "2024-08-27 01:07:02 +0000";
layers = (
{
layerId = m01;
shapes = (
{
closed = 1;
nodes = (
(201,30,l),
(201,699,l),
(151,699,l),
(15,579,l),
(101,579,l),
(101,-30,l)
);
},
{
closed = 1;
nodes = (
(503,398,l),
(394,480,l),
(183,480,l),
(183,410,l),
(376,410,l),
(503,348,l)
);
}
);
width = 530;
},
{
layerId = m002;
shapes = (
{
closed = 1;
nodes = (
(281,66,l),
(281,700,l),
(185,700,l),
(15,550,l),
(121,550,l),
(121,-30,l)
);
},
{
closed = 1;
nodes = (
(583,411,l),
(458,505,l),
(203,505,l),
(203,405,l),
(416,405,l),
(583,323,l)
);
}
);
width = 610;
},
{
layerId = m004;
shapes = (
{
closed = 1;
nodes = (
(231,30,l),
(231,699,l),
(181,699,l),
(15,579,l),
(131,579,l),
(131,-30,l)
);
},
{
closed = 1;
nodes = (
(663,398,l),
(514,480,l),
(213,480,l),
(213,410,l),
(496,410,l),
(663,348,l)
);
}
);
width = 690;
},
{
layerId = m005;
shapes = (
{
closed = 1;
nodes = (
(131,0,l),
(131,700,l),
(125,700,l),
(35,620,l),
(91,620,l),
(91,-30,l)
);
},
{
closed = 1;
nodes = (
(443,392,l),
(355,460,l),
(116,460,l),
(116,430,l),
(345,430,l),
(443,367,l)
);
}
);
width = 480;
}
);
unicode = 70;
},
{
color = 1;
glyphname = G;
kernLeft = D;
kernRight = G;
lastChange = "2024-08-27 01:07:08 +0000";
layers = (
{
backgroundImage = {
imagePath = "../reference/@Celes/uppercase/G.png";
scale = (14,14);
};
layerId = m01;
shapes = (
{
closed = 1;
nodes = (
(469,-10,l),
(469,327,l),
(369,327,l),
(369,60,l),
(317,60,l),
(138,215,l),
(138,469,l),
(269,630,l),
(397,630,l),
(462,700,l),
(241,700,l),
(38,466,l),
(38,163,l),
(241,-10,l)
);
},
{
closed = 1;
nodes = (
(525,300,l),
(590,370,l),
(347,370,l),
(282,300,l)
);
}
);
width = 600;
},
{
backgroundImage = {
imagePath = "../reference/@Celes/uppercase/G.png";
pos = (30,0);
scale = (14,14);
};
layerId = m002;
shapes = (
{
closed = 1;
nodes = (
(589,-10,l),
(589,342,l),
(429,342,l),
(429,90,l),
(377,90,l),
(198,217,l),
(198,468,l),
(318,600,l),
(505,600,l),
(597,700,l),
(253,700,l),
(38,467,l),
(38,161,l),
(256,-10,l)
);
},
{
closed = 1;
nodes = (
(633,285,l),
(725,385,l),
(399,385,l),
(307,285,l)
);
}
);
width = 740;
},
{
backgroundImage = {
imagePath = "../reference/@Celes/uppercase/G.png";
pos = (90,0);
scale = (14,14);
};
layerId = m004;
shapes = (
{
closed = 1;
nodes = (
(599,-10,l),
(599,347,l),
(499,347,l),
(499,60,l),
(317,60,l),
(138,215,l),
(138,469,l),
(289,630,l),
(597,630,l),
(662,700,l),
(261,700,l),
(38,466,l),
(38,163,l),
(241,-10,l)
);
},
{
closed = 1;
nodes = (
(705,320,l),
(770,390,l),
(377,390,l),
(312,320,l)
);
}
);
width = 780;
},
{
backgroundImage = {
imagePath = "../reference/@Celes/uppercase/G.png";
pos = (-20,0);
scale = (14,14);
};
layerId = m005;
shapes = (
{
closed = 1;
nodes = (
(419,-10,l),
(419,327,l),
(379,327,l),
(379,20,l),
(260,20,l),
(88,184,l),
(88,456,l),
(242,670,l),
(411,670,l),
(439,700,l),
(228,700,l),
(48,461,l),
(48,169,l),
(235,-10,l)
);
},
{
closed = 1;
nodes = (
(509,320,l),
(537,350,l),
(293,350,l),
(265,320,l)
);
}
);
width = 570;
}
);
unicode = 71;
},
{
glyphname = H;
kernLeft = LCH;
kernRight = H;
lastChange = "2024-08-27 01:07:14 +0000";
layers = (
{
layerId = m01;
shapes = (
{
closed = 1;
nodes = (
(525,148,l),
(525,371,l),
(445,407,l),
(169,407,l),
(169,337,l),
(425,337,l),
(425,164,l),
(341,32,l),
(341,-20,l)
);
},
{
closed = 1;
nodes = (
(201,40,l),
(201,700,l),
(151,700,l),
(15,579,l),
(101,579,l),
(101,-30,l)
);
},
{
closed = 1;
nodes = (
(509,639,l),
(509,700,l),
(409,700,l),
(200,420,l),
(200,370,l)
);
}
);
width = 560;
},
{
layerId = m002;
shapes = (
{
closed = 1;
nodes = (
(655,146,l),
(655,377,l),
(554,422,l),
(189,422,l),
(189,322,l),
(495,322,l),
(495,165,l),
(411,79,l),
(411,-30,l)
);
},
{
closed = 1;
nodes = (
(281,80,l),
(281,700,l),
(185,700,l),
(16,549,l),
(121,549,l),
(121,-32,l)
);
},
{
closed = 1;
nodes = (
(639,622,l),
(639,700,l),
(489,700,l),
(220,421,l),
(220,315,l)
);
}
);
width = 690;
},
{
layerId = m004;
shapes = (
{
closed = 1;
nodes = (
(735,148,l),
(735,371,l),
(655,427,l),
(199,427,l),
(199,357,l),
(635,357,l),
(635,164,l),
(511,32,l),
(511,-20,l)
);
},
{
closed = 1;
nodes = (
(231,40,l),
(231,700,l),
(181,700,l),
(15,579,l),
(131,579,l),
(131,-30,l)
);
},
{
closed = 1;
nodes = (
(719,639,l),
(719,700,l),
(619,700,l),
(230,440,l),
(230,390,l)
);
}
);
width = 770;
},
{
layerId = m005;
shapes = (
{
closed = 1;
nodes = (
(455,130,l),
(455,361,l),
(421,387,l),
(114,387,l),
(114,357,l),
(415,357,l),
(415,139,l),
(307,10,l),
(307,-20,l)
);
},
{
closed = 1;
nodes = (
(131,0,l),
(131,700,l),
(125,700,l),
(34,619,l),
(91,619,l),
(91,-30,l)
);
},
{
closed = 1;
nodes = (
(449,654,l),
(449,700,l),
(420,700,l),
(121,402,l),
(121,374,l)
);
}
);
width = 500;
}
);
unicode = 72;
},
{
color = 1;
glyphname = I;
kernLeft = LCH;
kernRight = RCH;
lastChange = "2024-08-27 01:07:20 +0000";
layers = (
{
anchors = (
{
name = top;
pos = (155,600);
}
);
backgroundImage = {
imagePath = "../reference/@Celes/uppercase/I.png";
locked = 1;
pos = (-170,0);
scale = (14,14);
};
layerId = m01;
shapes = (
{
closed = 1;
nodes = (
(225,30,l),
(225,700,l),
(175,700,l),
(15,580,l),
(125,580,l),
(125,-30,l)
);
}
);
width = 270;
},
{
anchors = (
{
name = top;
pos = (215,620);
}
);
backgroundImage = {
imagePath = "../reference/@Celes/uppercase/I.png";
locked = 1;
pos = (-110,0);
scale = (14,14);
};
layerId = m002;
shapes = (
{
closed = 1;
nodes = (
(315,66,l),
(315,700,l),
(221,700,l),
(21,550,l),
(155,550,l),
(155,-30,l)
);
}
);
width = 370;
},
{
anchors = (
{
name = top;
pos = (205,600);
}
);
backgroundImage = {
imagePath = "../reference/@Celes/uppercase/I.png";
locked = 1;
pos = (-120,0);
scale = (14,14);
};
layerId = m004;
shapes = (
{
closed = 1;
nodes = (
(275,30,l),
(275,700,l),
(225,700,l),
(35,580,l),
(175,580,l),
(175,-30,l)
);
}
);
width = 380;
},
{
anchors = (
{
name = top;
pos = (115,600);
}
);
backgroundImage = {
imagePath = "../reference/@Celes/uppercase/I.png";
locked = 1;
pos = (-210,0);
scale = (14,14);
};
layerId = m005;
shapes = (
{
closed = 1;
nodes = (
(155,0,l),
(155,700,l),
(148,700,l),
(41,620,l),
(115,620,l),
(115,-30,l)
);
}
);
width = 220;
}
);
unicode = 73;
},
{
glyphname = J;
kernLeft = J;
kernRight = J;
lastChange = "2024-08-27 01:07:24 +0000";
layers = (
{
anchors = (
{
name = top;
pos = (197,600);
}
);
layerId = m01;
shapes = (
{
closed = 1;
nodes = (
(467,-10,l),
(580,131,l),
(530,131,l),
(429,60,l),
(303,60,l),
(235,182,l),
(235,700,l),
(185,700,l),
(25,580,l),
(135,580,l),
(135,137,l),
(225,-10,l)
);
},
{
closed = 1;
nodes = (
(302,280,l),
(367,350,l),
(94,350,l),
(29,280,l)
);
}
);
width = 600;
},
{
anchors = (
{
name = top;
pos = (277,620);
}
);
layerId = m002;
shapes = (
{
closed = 1;
nodes = (
(586,-10,l),
(722,156,l),
(617,156,l),
(516,90,l),
(405,90,l),
(325,182,l),
(325,700,l),
(231,700,l),
(31,550,l),
(165,550,l),
(165,136,l),
(284,-10,l)
);
},
{
closed = 1;
nodes = (
(380,265,l),
(472,365,l),
(136,365,l),
(44,265,l)
);
}
);
width = 750;
},
{
anchors = (
{
name = top;
pos = (277,600);
}
);
layerId = m004;
shapes = (
{
closed = 1;
nodes = (
(687,-10,l),
(800,151,l),
(750,151,l),
(649,60,l),
(413,60,l),
(315,182,l),
(315,700,l),
(265,700,l),
(75,580,l),
(215,580,l),
(215,137,l),
(335,-10,l)
);
},
{
closed = 1;
nodes = (
(412,280,l),
(477,350,l),
(104,350,l),
(39,280,l)
);
}
);
width = 820;
},
{
anchors = (
{
name = top;
pos = (187,600);
}
);
layerId = m005;
shapes = (
{
closed = 1;
nodes = (
(440,-10,l),
(547,131,l),
(522,131,l),
(423,20,l),
(263,20,l),
(195,153,l),
(195,700,l),
(188,700,l),
(81,620,l),
(155,620,l),
(155,140,l),
(235,-10,l)
);
},
{
closed = 1;
nodes = (
(296,290,l),
(324,320,l),
(70,320,l),
(42,290,l)
);
}
);
width = 580;
}
);
unicode = 74;
},
{
glyphname = K;
kernLeft = K;
kernRight = K;
lastChange = "2024-08-27 01:07:46 +0000";
layers = (
{
layerId = m01;
shapes = (
{
closed = 1;
nodes = (
(477,-30,l),
(403,107,l),
(403,248,l),
(581,297,l),
(581,500,l),
(492,570,l),
(317,570,l),
(235,469,l),
(235,700,l),
(185,700,l),
(25,580,l),
(135,580,l),
(135,293,l),
(185,293,l),
(342,500,l),
(481,500,l),
(481,327,l),
(303,273,l),
(303,99,l),
(427,-30,l)
);
}
);
width = 610;
},
{
layerId = m002;
shapes = (
{
closed = 1;
nodes = (
(626,-30,l),
(543,113,l),
(543,240,l),
(761,289,l),
(761,513,l),
(656,595,l),
(398,595,l),
(325,544,l),
(325,700,l),
(231,700,l),
(31,550,l),
(165,550,l),
(165,268,l),
(264,268,l),
(411,495,l),
(601,495,l),
(601,335,l),
(383,281,l),
(383,102,l),
(521,-30,l)
);
}
);
width = 790;
},
{
layerId = m004;
shapes = (
{
closed = 1;
nodes = (
(687,-30,l),
(543,147,l),
(543,228,l),
(841,347,l),
(841,553,l),
(752,620,l),
(437,620,l),
(265,439,l),
(265,700,l),
(215,700,l),
(25,580,l),
(165,580,l),
(165,263,l),
(215,263,l),
(462,550,l),
(741,550,l),
(741,397,l),
(443,283,l),
(443,139,l),
(637,-30,l)
);
}
);
width = 870;
},
{
layerId = m005;
shapes = (
{
closed = 1;
nodes = (
(394,-30,l),
(303,104,l),
(303,251,l),
(481,300,l),
(481,514,l),
(441,550,l),
(239,550,l),
(135,391,l),
(135,700,l),
(128,700,l),
(21,620,l),
(95,620,l),
(95,313,l),
(117,313,l),
(254,520,l),
(441,520,l),
(441,319,l),
(263,265,l),
(263,104,l),
(368,-30,l)
);
}
);
width = 530;
}
);
unicode = 75;
},
{
color = 1;
glyphname = L;
kernLeft = L;
kernRight = L;
lastChange = "2024-08-27 01:07:49 +0000";
layers = (
{
backgroundImage = {
imagePath = "../reference/@Celes/uppercase/L.png";
locked = 1;
pos = (-130,0);
scale = (14,14);
};
layerId = m01;
shapes = (
{
closed = 1;
nodes = (
(242,38,l),
(242,700,l),
(192,700,l),
(32,580,l),
(142,580,l),
(142,38,l)
);
},
{
closed = 1;
nodes = (
(316,0,l),
(404,95,l),
(324,95,l),
(292,70,l),
(93,70,l),
(28,0,l)
);
},
{
closed = 1;
nodes = (
(272,214,l),
(337,284,l),
(103,284,l),
(38,214,l)
);
}
);
width = 420;
},
{
backgroundImage = {
imagePath = "../reference/@Celes/uppercase/L.png";
locked = 1;
pos = (-80,0);
scale = (14,14);
};
layerId = m002;
shapes = (
{
closed = 1;
nodes = (
(322,38,l),
(322,700,l),
(228,700,l),
(28,550,l),
(162,550,l),
(162,38,l)
);
},
{
closed = 1;
nodes = (
(424,0,l),
(560,148,l),
(440,148,l),
(368,100,l),
(125,100,l),
(33,0,l)
);
},
{
closed = 1;
nodes = (
(360,209,l),
(452,309,l),
(135,309,l),
(43,209,l)
);
}
);
width = 580;
},
{
backgroundImage = {
imagePath = "../reference/@Celes/uppercase/L.png";
locked = 1;
scale = (14,14);
};
layerId = m004;
shapes = (
{
closed = 1;
nodes = (
(372,38,l),
(372,700,l),
(322,700,l),
(142,580,l),
(272,580,l),
(272,38,l)
);
},
{
closed = 1;
nodes = (
(536,0,l),
(624,95,l),
(544,95,l),
(512,70,l),
(93,70,l),
(28,0,l)
);
},
{
closed = 1;
nodes = (
(492,214,l),
(557,284,l),
(133,284,l),
(68,214,l)
);
}
);
width = 640;
},
{
backgroundImage = {
imagePath = "../reference/@Celes/uppercase/L.png";
locked = 1;
pos = (-170,0);
scale = (14,14);
};
layerId = m005;
shapes = (
{
closed = 1;
nodes = (
(172,18,l),
(172,700,l),
(165,700,l),
(58,620,l),
(132,620,l),
(132,18,l)
);
},
{
closed = 1;
nodes = (
(260,0,l),
(311,55,l),
(286,55,l),
(255,30,l),
(69,30,l),
(41,0,l)
);
},
{
closed = 1;
nodes = (
(226,254,l),
(254,284,l),
(79,284,l),
(51,254,l)
);
}
);
width = 360;
}
);
unicode = 76;
},
{
color = 1;
glyphname = M;
kernLeft = M;
kernRight = M;
lastChange = "2024-08-27 01:07:54 +0000";
layers = (
{
backgroundImage = {
imagePath = "../reference/@Celes/uppercase/M.png";
locked = 1;
pos = (-74,-109);
scale = (14,14);
};
guides = (
{
angle = 47.1211;
pos = (329,35);
}
);
layerId = m01;
shapes = (
{
closed = 1;
nodes = (
(892,0,l),
(957,70,l),
(896,70,l),
(682,560,l),
(598,560,l),
(523,490,l),
(603,490,l),
(812,0,l)
);
},
{
closed = 1;
nodes = (
(310,0,l),
(375,70,l),
(90,70,l),
(25,0,l)
);
},
{
closed = 1;
nodes = (
(239,38,l),
(239,700,l),
(189,700,l),
(29,580,l),
(139,580,l),
(139,38,l)
);
},
{
closed = 1;
nodes = (
(632,0,l),
(697,70,l),
(636,70,l),
(422,560,l),
(338,560,l),
(263,490,l),
(343,490,l),
(552,0,l)
);
}
);
width = 980;
},
{
backgroundImage = {
imagePath = "../reference/@Celes/uppercase/M.png";
locked = 1;
pos = (-24,-109);
scale = (14,14);
};
guides = (
{
angle = 47.1211;
pos = (379,35);
}
);
layerId = m002;
shapes = (
{
closed = 1;
nodes = (
(1100,0,l),
(1192,100,l),
(1110,100,l),
(856,575,l),
(632,575,l),
(525,475,l),
(729,475,l),
(978,0,l)
);
},
{
closed = 1;
nodes = (
(378,0,l),
(470,100,l),
(122,100,l),
(30,0,l)
);
},
{
closed = 1;
nodes = (
(319,38,l),
(319,700,l),
(225,700,l),
(25,550,l),
(159,550,l),
(159,38,l)
);
},
{
closed = 1;
nodes = (
(750,0,l),
(842,100,l),
(760,100,l),
(516,575,l),
(312,575,l),
(205,475,l),
(389,475,l),
(628,0,l)
);
}
);
width = 1220;
},
{
backgroundImage = {
imagePath = "../reference/@Celes/uppercase/M.png";
locked = 1;
pos = (106,-109);
scale = (14,14);
};
layerId = m004;
shapes = (
{
closed = 1;
nodes = (
(1252,0,l),
(1317,70,l),
(1206,70,l),
(872,560,l),
(748,560,l),
(673,490,l),
(793,490,l),
(1122,0,l)
);
},
{
closed = 1;
nodes = (
(490,0,l),
(555,70,l),
(90,70,l),
(25,0,l)
);
},
{
closed = 1;
nodes = (
(309,38,l),
(309,700,l),
(259,700,l),
(59,580,l),
(209,580,l),
(209,38,l)
);
},
{
closed = 1;
nodes = (
(872,0,l),
(937,70,l),
(836,70,l),
(532,560,l),
(418,560,l),
(343,490,l),
(453,490,l),
(752,0,l)
);
}
);
width = 1380;
},
{
backgroundImage = {
imagePath = "../reference/@Celes/uppercase/M.png";
locked = 1;
pos = (-114,-109);
scale = (14,14);
};
layerId = m005;
shapes = (
{
closed = 1;
nodes = (
(856,0,l),
(884,30,l),
(824,30,l),
(610,560,l),
(533,560,l),
(501,530,l),
(575,530,l),
(784,0,l)
);
},
{
closed = 1;
nodes = (
(254,0,l),
(282,30,l),
(66,30,l),
(38,0,l)
);
},
{
closed = 1;
nodes = (
(169,16,l),
(169,700,l),
(162,700,l),
(55,620,l),
(129,620,l),
(129,16,l)
);
},
{
closed = 1;
nodes = (
(596,0,l),
(624,30,l),
(564,30,l),
(350,560,l),
(273,560,l),
(241,530,l),
(315,530,l),
(524,0,l)
);
}
);
width = 920;
}
);
unicode = 77;
},
{
color = 1;
glyphname = N;
kernLeft = N;
kernRight = N;
lastChange = "2024-08-27 01:08:01 +0000";
layers = (
{
anchors = (
{
name = top;
pos = (404,594);
}
);
annotations = (
{
pos = (620,-24);
text = "原为直角，感觉影响 contrast";
type = Text;
},
{
angle = -56.39173;
pos = (621,50);
type = Arrow;
}
);
backgroundImage = {
imagePath = "../reference/@Celes/uppercase/N.png";
locked = 1;
pos = (100,0);
scale = (14,14);
};
layerId = m01;
shapes = (
{
closed = 1;
nodes = (
(557,-10,l),
(662,119,l),
(662,376,l),
(467,650,l),
(449,630,l),
(657,630,l),
(703,700,l),
(463,700,l),
(404,594,l),
(562,336,l),
(562,197,l),
(497,100,l),
(397,100,l),
(267,356,l),
(267,389,l),
(185,388,l),
(384,-10,l)
);
},
{
closed = 1;
nodes = (
(267,30,l),
(267,700,l),
(127,700,l),
(174,650,l),
(167,-30,l)
);
},
{
closed = 1;
nodes = (
(347,356,l),
(404,426,l),
(87,426,l),
(25,356,l)
);
}
);
width = 730;
},
{
anchors = (
{
name = top;
pos = (504,605);
}
);
annotations = (
{
pos = (620,-24);
text = "原为直角，感觉影响 contrast";
type = Text;
},
{
angle = -56.39173;
pos = (621,50);
type = Arrow;
}
);
backgroundImage = {
imagePath = "../reference/@Celes/uppercase/N.png";
locked = 1;
pos = (150,0);
scale = (14,14);
};
layerId = m002;
shapes = (
{
closed = 1;
nodes = (
(832,-10,l),
(832,43,l),
(832,377,l),
(610,673,l),
(544,615,l),
(818,615,l),
(883,700,l),
(581,700,l),
(514,594,l),
(672,335,l),
(672,171,l),
(672,130,l),
(490,130,l),
(347,356,l),
(347,404,l),
(238,403,l),
(441,-10,l)
);
},
{
closed = 1;
nodes = (
(347,66,l),
(347,700,l),
(135,700,l),
(194,633,l),
(187,-30,l)
);
},
{
closed = 1;
nodes = (
(436,341,l),
(517,441,l),
(119,441,l),
(30,341,l)
);
}
);
width = 910;
},
{
anchors = (
{
name = top;
pos = (514,594);
}
);
annotations = (
{
pos = (620,-24);
text = "原为直角，感觉影响 contrast";
type = Text;
},
{
angle = -56.39173;
pos = (621,50);
type = Arrow;
}
);
backgroundImage = {
imagePath = "../reference/@Celes/uppercase/N.png";
locked = 1;
pos = (210,0);
scale = (14,14);
};
layerId = m004;
shapes = (
{
closed = 1;
nodes = (
(727,-10,l),
(872,119,l),
(872,376,l),
(617,650,l),
(599,630,l),
(887,630,l),
(933,700,l),
(613,700,l),
(554,594,l),
(772,336,l),
(772,197,l),
(667,100,l),
(487,100,l),
(317,376,l),
(317,409,l),
(235,408,l),
(474,-10,l)
);
},
{
closed = 1;
nodes = (
(317,30,l),
(317,700,l),
(137,700,l),
(224,620,l),
(217,-30,l)
);
},
{
closed = 1;
nodes = (
(457,376,l),
(514,446,l),
(87,446,l),
(25,376,l)
);
}
);
width = 960;
},
{
anchors = (
{
name = top;
pos = (364,594);
}
);
annotations = (
{
pos = (620,-24);
text = "原为直角，感觉影响 contrast";
type = Text;
},
{
angle = -56.39173;
pos = (621,50);
type = Arrow;
}
);
backgroundImage = {
imagePath = "../reference/@Celes/uppercase/N.png";
locked = 1;
pos = (60,0);
scale = (14,14);
};
layerId = m005;
shapes = (
{
closed = 1;
nodes = (
(500,-10,l),
(592,107,l),
(592,367,l),
(427,604,l),
(461,660,l),
(610,660,l),
(638,700,l),
(443,700,l),
(389,604,l),
(552,363,l),
(552,114,l),
(476,34,l),
(362,34,l),
(197,380,l),
(197,383,l),
(166,383,l),
(343,-10,l)
);
},
{
closed = 1;
nodes = (
(197,0,l),
(197,700,l),
(136,700,l),
(157,675,l),
(157,-30,l)
);
},
{
closed = 1;
nodes = (
(290,376,l),
(314,406,l),
(63,406,l),
(37,376,l)
);
}
);
width = 670;
}
);
unicode = 78;
},
{
color = 1;
glyphname = O;
kernLeft = O;
kernRight = O;
lastChange = "2024-08-27 02:38:43 +0000";
layers = (
{
anchors = (
{
name = top;
pos = (239,630);
}
);
backgroundImage = {
imagePath = "../reference/@Celes/uppercase/O.png";
locked = 1;
pos = (-283,-119);
scale = (14,14);
};
layerId = m01;
shapes = (
{
closed = 1;
nodes = (
(368,-10,l),
(448,79,l),
(448,556,l),
(278,700,l),
(118,700,l),
(42,629,l),
(42,152,l),
(190,-10,l)
);
},
{
closed = 1;
nodes = (
(142,200,l),
(142,630,l),
(209,630,l),
(348,496,l),
(348,60,l),
(271,60,l)
);
}
);
width = 490;
},
{
anchors = (
{
name = top;
pos = (319,630);
}
);
backgroundImage = {
imagePath = "../reference/@Celes/uppercase/O.png";
locked = 1;
pos = (-253,-119);
scale = (14,14);
};
layerId = m002;
shapes = (
{
closed = 1;
nodes = (
(456,-10,l),
(548,93,l),
(548,558,l),
(363,710,l),
(132,710,l),
(42,626,l),
(42,150,l),
(202,-10,l)
);
},
{
closed = 1;
nodes = (
(202,202,l),
(202,610,l),
(263,610,l),
(388,494,l),
(388,90,l),
(319,90,l)
);
}
);
width = 590;
},
{
anchors = (
{
name = top;
pos = (329,630);
}
);
backgroundImage = {
imagePath = "../reference/@Celes/uppercase/O.png";
locked = 1;
pos = (-193,-119);
scale = (14,14);
};
layerId = m004;
shapes = (
{
closed = 1;
nodes = (
(548,-10,l),
(628,79,l),
(628,556,l),
(458,700,l),
(118,700,l),
(42,629,l),
(42,152,l),
(190,-10,l)
);
},
{
closed = 1;
nodes = (
(142,200,l),
(142,630,l),
(389,630,l),
(528,506,l),
(528,60,l),
(271,60,l)
);
}
);
width = 670;
},
{
anchors = (
{
name = top;
pos = (199,630);
}
);
backgroundImage = {
imagePath = "../reference/@Celes/uppercase/O.png";
locked = 1;
pos = (-323,-119);
scale = (14,14);
};
layerId = m005;
shapes = (
{
closed = 1;
nodes = (
(342,-10,l),
(378,20,l),
(378,580,l),
(239,700,l),
(74,700,l),
(32,664,l),
(32,137,l),
(166,-10,l)
);
},
{
closed = 1;
nodes = (
(72,160,l),
(72,670,l),
(208,670,l),
(338,555,l),
(338,20,l),
(199,20,l)
);
}
);
width = 410;
}
);
unicode = 79;
},
{
color = 3;
glyphname = Oslash;
kernLeft = O;
kernRight = O;
lastChange = "2024-08-27 01:28:32 +0000";
layers = (
{
layerId = m01;
shapes = (
{
ref = O;
},
{
closed = 1;
nodes = (
(50,-30,l),
(150,-30,l),
(440,720,l),
(340,720,l)
);
}
);
width = 490;
},
{
layerId = m002;
shapes = (
{
ref = O;
},
{
closed = 1;
nodes = (
(44,-60,l),
(204,-60,l),
(566,750,l),
(406,750,l)
);
}
);
width = 490;
},
{
layerId = m004;
shapes = (
{
ref = O;
},
{
closed = 1;
nodes = (
(10,-30,l),
(110,-30,l),
(650,720,l),
(550,720,l)
);
}
);
width = 670;
},
{
layerId = m005;
shapes = (
{
ref = O;
},
{
closed = 1;
nodes = (
(47,-30,l),
(85,-30,l),
(381,710,l),
(343,710,l)
);
}
);
width = 430;
}
);
unicode = 216;
},
{
color = 3;
glyphname = OE;
kernLeft = O;
kernRight = E;
lastChange = "2024-08-27 03:21:18 +0000";
layers = (
{
layerId = m01;
shapes = (
{
closed = 1;
nodes = (
(368,-10,l),
(448,79,l),
(448,600,l),
(348,700,l),
(118,700,l),
(42,629,l),
(42,152,l),
(190,-10,l)
);
},
{
closed = 1;
nodes = (
(142,200,l),
(142,630,l),
(279,630,l),
(348,560,l),
(348,60,l),
(271,60,l)
);
},
{
closed = 1;
nodes = (
(627,-10,l),
(762,147,l),
(762,650,l),
(713,700,l),
(412,700,l),
(362,650,l),
(402,630,l),
(662,630,l),
(662,174,l),
(575,60,l),
(489,60,l),
(392,135,l),
(355,135,l),
(355,67,l),
(455,-10,l)
);
},
{
closed = 1;
nodes = (
(820,315,l),
(885,385,l),
(567,385,l),
(502,315,l)
);
}
);
width = 913;
},
{
layerId = m002;
shapes = (
{
closed = 1;
nodes = (
(366,-25,l),
(508,78,l),
(508,623,l),
(384,715,l),
(132,715,l),
(42,631,l),
(42,150,l),
(202,-25,l)
);
},
{
closed = 1;
nodes = (
(202,202,l),
(202,615,l),
(274,615,l),
(348,558,l),
(348,75,l),
(319,75,l)
);
},
{
closed = 1;
nodes = (
(675,-25,l),
(822,146,l),
(822,652,l),
(760,715,l),
(465,715,l),
(397,647,l),
(442,615,l),
(662,615,l),
(662,175,l),
(586,75,l),
(533,75,l),
(456,150,l),
(375,150,l),
(375,64,l),
(471,-25,l)
);
},
{
closed = 1;
nodes = (
(868,300,l),
(960,400,l),
(579,400,l),
(487,300,l)
);
}
);
width = 993;
},
{
layerId = m004;
shapes = (
{
closed = 1;
nodes = (
(548,-10,l),
(628,79,l),
(628,550,l),
(488,700,l),
(118,700,l),
(42,629,l),
(42,152,l),
(190,-10,l)
);
},
{
closed = 1;
nodes = (
(142,200,l),
(142,630,l),
(419,630,l),
(528,510,l),
(528,60,l),
(271,60,l)
);
},
{
closed = 1;
nodes = (
(927,-10,l),
(1092,147,l),
(1092,650,l),
(1003,700,l),
(571,700,l),
(488,650,l),
(512,630,l),
(992,630,l),
(992,174,l),
(875,60,l),
(709,60,l),
(572,135,l),
(535,135,l),
(535,67,l),
(675,-10,l)
);
},
{
closed = 1;
nodes = (
(1210,315,l),
(1275,385,l),
(777,385,l),
(712,315,l)
);
}
);
width = 1303;
},
{
layerId = m005;
shapes = (
{
closed = 1;
nodes = (
(345,10,l),
(378,57,l),
(378,595,l),
(287,700,l),
(79,700,l),
(32,663,l),
(32,157,l),
(166,10,l)
);
},
{
closed = 1;
nodes = (
(72,181,l),
(72,670,l),
(261,670,l),
(338,583,l),
(338,40,l),
(199,40,l)
);
},
{
closed = 1;
nodes = (
(594,10,l),
(692,122,l),
(692,665,l),
(657,700,l),
(328,700,l),
(303,675,l),
(303,670,l),
(652,670,l),
(652,132,l),
(571,40,l),
(446,40,l),
(368,95,l),
(355,95,l),
(355,66,l),
(438,10,l)
);
},
{
closed = 1;
nodes = (
(804,345,l),
(832,375,l),
(503,375,l),
(475,345,l)
);
}
);
width = 883;
}
);
metricLeft = O;
metricRight = E;
unicode = 338;
},
{
color = 1;
glyphname = P;
kernLeft = P;
kernRight = P;
lastChange = "2024-08-27 01:08:10 +0000";
layers = (
{
backgroundImage = {
imagePath = "../reference/@Celes/uppercase/P.png";
locked = 1;
pos = (-190,0);
scale = (14,14);
};
layerId = m01;
shapes = (
{
closed = 1;
nodes = (
(497,-10,l),
(662,135,l),
(662,404,l),
(530,522,l),
(333,404,l),
(333,16,l),
(433,16,l),
(433,377,l),
(482,415,l),
(562,347,l),
(562,135,l),
(486,70,l),
(298,70,l),
(199,224,l),
(199,700,l),
(149,700,l),
(25,580,l),
(99,580,l),
(99,183,l),
(221,-10,l)
);
}
);
width = 690;
},
{
backgroundImage = {
imagePath = "../reference/@Celes/uppercase/P.png";
locked = 1;
pos = (-140,0);
scale = (14,14);
};
layerId = m002;
shapes = (
{
closed = 1;
nodes = (
(592,-10,l),
(802,133,l),
(802,406,l),
(645,547,l),
(393,408,l),
(393,16,l),
(553,16,l),
(553,374,l),
(591,388,l),
(642,345,l),
(642,137,l),
(542,100,l),
(395,100,l),
(279,225,l),
(279,700,l),
(182,700,l),
(27,550,l),
(119,550,l),
(119,182,l),
(279,-10,l)
);
}
);
width = 840;
},
{
backgroundImage = {
imagePath = "../reference/@Celes/uppercase/P.png";
locked = 1;
pos = (-70,0);
scale = (14,14);
};
layerId = m004;
shapes = (
{
closed = 1;
nodes = (
(707,-10,l),
(872,135,l),
(872,424,l),
(740,602,l),
(453,474,l),
(453,16,l),
(553,16,l),
(553,447,l),
(692,495,l),
(772,367,l),
(772,135,l),
(696,70,l),
(328,70,l),
(229,224,l),
(229,700,l),
(179,700,l),
(25,580,l),
(129,580,l),
(129,183,l),
(251,-10,l)
);
}
);
width = 900;
},
{
backgroundImage = {
imagePath = "../reference/@Celes/uppercase/P.png";
locked = 1;
pos = (-240,0);
scale = (14,14);
};
layerId = m005;
shapes = (
{
closed = 1;
nodes = (
(433,-10,l),
(582,119,l),
(582,393,l),
(476,488,l),
(306,391,l),
(306,16,l),
(346,16,l),
(346,376,l),
(463,441,l),
(542,365,l),
(542,129,l),
(428,30,l),
(223,30,l),
(119,211,l),
(119,700,l),
(114,700,l),
(31,620,l),
(79,620,l),
(79,186,l),
(190,-10,l)
);
}
);
width = 620;
}
);
unicode = 80;
},
{
glyphname = Q;
kernLeft = Q;
kernRight = RCH;
lastChange = "2024-08-27 01:08:16 +0000";
layers = (
{
layerId = m01;
shapes = (
{
closed = 1;
nodes = (
(155,-20,l),
(286,80,l),
(285,214,l),
(221,280,l),
(130,280,l),
(130,410,l),
(299,410,l),
(412,330,l),
(412,400,l),
(296,480,l),
(119,480,l),
(30,399,l),
(30,267,l),
(100,210,l),
(185,210,l),
(186,90,l),
(105,-20,l)
);
},
{
closed = 1;
nodes = (
(493,30,l),
(493,700,l),
(443,700,l),
(314,580,l),
(393,580,l),
(393,-30,l)
);
}
);
width = 540;
},
{
layerId = m002;
shapes = (
{
closed = 1;
nodes = (
(199,-20,l),
(356,77,l),
(355,216,l),
(278,295,l),
(190,295,l),
(190,395,l),
(346,395,l),
(532,284,l),
(532,403,l),
(369,495,l),
(163,495,l),
(30,401,l),
(30,264,l),
(115,195,l),
(195,195,l),
(196,91,l),
(93,-20,l)
);
},
{
closed = 1;
nodes = (
(613,66,l),
(613,700,l),
(517,700,l),
(356,550,l),
(453,550,l),
(453,-30,l)
);
}
);
width = 660;
},
{
layerId = m004;
shapes = (
{
closed = 1;
nodes = (
(195,-20,l),
(376,100,l),
(375,214,l),
(311,280,l),
(130,280,l),
(130,410,l),
(449,410,l),
(592,320,l),
(592,390,l),
(456,480,l),
(119,480,l),
(30,399,l),
(30,267,l),
(100,210,l),
(275,210,l),
(276,110,l),
(145,-20,l)
);
},
{
closed = 1;
nodes = (
(673,30,l),
(673,700,l),
(623,700,l),
(454,580,l),
(573,580,l),
(573,-30,l)
);
}
);
width = 720;
},
{
layerId = m005;
shapes = (
{
closed = 1;
nodes = (
(123,-20,l),
(236,88,l),
(235,230,l),
(201,260,l),
(80,260,l),
(80,430,l),
(291,430,l),
(415,330,l),
(415,360,l),
(296,460,l),
(73,460,l),
(40,428,l),
(40,264,l),
(73,230,l),
(196,230,l),
(196,96,l),
(98,-20,l)
);
},
{
closed = 1;
nodes = (
(443,0,l),
(443,700,l),
(438,700,l),
(352,620,l),
(403,620,l),
(403,-30,l)
);
}
);
width = 490;
}
);
unicode = 81;
},
{
color = 1;
glyphname = R;
kernLeft = LCH;
kernRight = R;
lastChange = "2024-08-27 01:08:24 +0000";
layers = (
{
backgroundImage = {
imagePath = "../reference/@Celes/uppercase/R.png";
locked = 1;
pos = (-10,0);
scale = (14,14);
};
layerId = m01;
shapes = (
{
closed = 1;
nodes = (
(454,-10,l),
(520,60,l),
(388,60,l),
(388,175,l),
(551,237,l),
(551,414,l),
(462,480,l),
(334,480,l),
(169,375,l),
(169,305,l),
(331,410,l),
(451,410,l),
(451,266,l),
(288,203,l),
(288,32,l),
(329,-10,l)
);
},
{
closed = 1;
nodes = (
(195,30,l),
(195,700,l),
(145,700,l),
(15,580,l),
(95,580,l),
(95,-30,l)
);
}
);
width = 590;
},
{
backgroundImage = {
imagePath = "../reference/@Celes/uppercase/R.png";
locked = 1;
pos = (-10,0);
scale = (14,14);
};
layerId = m002;
shapes = (
{
closed = 1;
nodes = (
(581,-10,l),
(676,90,l),
(528,90,l),
(528,168,l),
(691,230,l),
(691,417,l),
(516,495,l),
(362,495,l),
(189,379,l),
(189,262,l),
(384,395,l),
(531,395,l),
(531,273,l),
(368,210,l),
(368,30,l),
(422,-10,l)
);
},
{
closed = 1;
nodes = (
(275,66,l),
(275,700,l),
(179,700,l),
(16,550,l),
(115,550,l),
(115,-30,l)
);
}
);
width = 730;
},
{
backgroundImage = {
imagePath = "../reference/@Celes/uppercase/R.png";
locked = 1;
pos = (20,0);
scale = (14,14);
};
layerId = m004;
shapes = (
{
closed = 1;
nodes = (
(744,-10,l),
(810,60,l),
(548,60,l),
(548,175,l),
(801,267,l),
(801,414,l),
(712,480,l),
(364,480,l),
(209,375,l),
(209,305,l),
(361,410,l),
(701,410,l),
(701,296,l),
(448,203,l),
(448,32,l),
(489,-10,l)
);
},
{
closed = 1;
nodes = (
(235,30,l),
(235,700,l),
(185,700,l),
(15,580,l),
(135,580,l),
(135,-30,l)
);
}
);
width = 850;
},
{
backgroundImage = {
imagePath = "../reference/@Celes/uppercase/R.png";
locked = 1;
pos = (-50,0);
scale = (14,14);
};
layerId = m005;
shapes = (
{
closed = 1;
nodes = (
(428,-10,l),
(456,20,l),
(298,20,l),
(298,183,l),
(481,248,l),
(481,430,l),
(441,460,l),
(260,460,l),
(112,352,l),
(112,322,l),
(270,430,l),
(441,430,l),
(441,265,l),
(258,202,l),
(258,24,l),
(285,-10,l)
);
},
{
closed = 1;
nodes = (
(125,0,l),
(125,700,l),
(120,700,l),
(33,620,l),
(85,620,l),
(85,-30,l)
);
}
);
width = 520;
}
);
unicode = 82;
},
{
color = 1;
glyphname = S;
kernLeft = LCH;
kernRight = S;
lastChange = "2024-08-27 01:28:58 +0000";
layers = (
{
anchors = (
{
name = top;
pos = (342,600);
}
);
backgroundImage = {
imagePath = "../reference/@Celes/uppercase/S.png";
pos = (-20,0);
scale = (14,14);
};
layerId = m01;
shapes = (
{
closed = 1;
nodes = (
(597,107,l),
(597,407,l),
(498,480,l),
(357,480,l),
(179,348,l),
(179,278,l),
(366,410,l),
(497,410,l),
(497,134,l),
(404,30,l),
(404,-20,l)
);
},
{
closed = 1;
nodes = (
(205,30,l),
(205,700,l),
(155,700,l),
(15,580,l),
(105,580,l),
(105,-30,l)
);
}
);
width = 630;
},
{
anchors = (
{
name = top;
pos = (466,600);
}
);
backgroundImage = {
imagePath = "../reference/@Celes/uppercase/S.png";
pos = (30,0);
scale = (14,14);
};
layerId = m002;
shapes = (
{
closed = 1;
nodes = (
(737,103,l),
(737,410,l),
(622,495,l),
(403,495,l),
(199,351,l),
(199,232,l),
(439,395,l),
(577,395,l),
(577,135,l),
(484,64,l),
(484,-30,l)
);
},
{
closed = 1;
nodes = (
(285,66,l),
(285,700,l),
(190,700,l),
(15,550,l),
(125,550,l),
(125,-30,l)
);
}
);
width = 770;
},
{
anchors = (
{
name = top;
pos = (480,600);
}
);
backgroundImage = {
imagePath = "../reference/@Celes/uppercase/S.png";
pos = (100,0);
scale = (14,14);
};
layerId = m004;
shapes = (
{
closed = 1;
nodes = (
(817,87,l),
(817,407,l),
(718,480,l),
(407,480,l),
(219,348,l),
(219,278,l),
(416,410,l),
(717,410,l),
(717,114,l),
(534,30,l),
(534,-20,l)
);
},
{
closed = 1;
nodes = (
(245,30,l),
(245,700,l),
(195,700,l),
(15,580,l),
(145,580,l),
(145,-30,l)
);
}
);
width = 850;
},
{
anchors = (
{
name = top;
pos = (302,560);
}
);
backgroundImage = {
imagePath = "../reference/@Celes/uppercase/S.png";
pos = (-60,0);
scale = (14,14);
};
layerId = m005;
shapes = (
{
closed = 1;
nodes = (
(507,95,l),
(507,396,l),
(476,430,l),
(264,430,l),
(122,325,l),
(122,294,l),
(264,400,l),
(467,400,l),
(467,109,l),
(347,5,l),
(347,-20,l)
);
},
{
closed = 1;
nodes = (
(135,0,l),
(135,700,l),
(129,700,l),
(36,620,l),
(95,620,l),
(95,-30,l)
);
}
);
width = 530;
}
);
unicode = 83;
},
{
color = 3;
glyphname = Germandbls;
kernLeft = LCH;
kernRight = Y;
lastChange = "2024-08-27 01:28:19 +0000";
layers = (
{
layerId = m01;
shapes = (
{
closed = 1;
nodes = (
(185,30,l),
(185,630,l),
(445,630,l),
(445,521,l),
(299,388,l),
(299,307,l),
(473,307,l),
(473,50,l),
(405,50,l),
(252,118,l),
(252,68,l),
(389,-20,l),
(498,-20,l),
(573,64,l),
(573,317,l),
(517,377,l),
(399,377,l),
(545,500,l),
(545,642,l),
(473,700,l),
(135,700,l),
(15,580,l),
(85,580,l),
(85,-30,l)
);
}
);
width = 610;
},
{
layerId = m002;
shapes = (
{
closed = 1;
nodes = (
(215,66,l),
(215,600,l),
(475,600,l),
(475,523,l),
(329,390,l),
(329,292,l),
(513,292,l),
(513,80,l),
(451,80,l),
(292,170,l),
(292,84,l),
(436,-20,l),
(586,-20,l),
(673,78,l),
(673,319,l),
(604,392,l),
(510,392,l),
(645,498,l),
(645,630,l),
(558,700,l),
(118,700,l),
(-32,550,l),
(55,550,l),
(55,-30,l)
);
}
);
width = 610;
},
{
layerId = m004;
shapes = (
{
closed = 1;
nodes = (
(85,30,l),
(85,630,l),
(575,630,l),
(575,541,l),
(269,378,l),
(269,287,l),
(603,287,l),
(603,50,l),
(365,50,l),
(182,168,l),
(182,118,l),
(349,-20,l),
(628,-20,l),
(703,64,l),
(703,287,l),
(647,357,l),
(379,357,l),
(675,490,l),
(675,642,l),
(603,700,l),
(35,700,l),
(-85,580,l),
(-15,580,l),
(-15,-30,l)
);
}
);
width = 610;
},
{
layerId = m005;
shapes = (
{
closed = 1;
nodes = (
(115,0,l),
(115,670,l),
(435,670,l),
(435,521,l),
(268,392,l),
(268,337,l),
(483,337,l),
(483,10,l),
(357,10,l),
(212,81,l),
(212,56,l),
(339,-20,l),
(481,-20,l),
(523,23,l),
(523,322,l),
(481,367,l),
(297,367,l),
(475,506,l),
(475,666,l),
(435,700,l),
(110,700,l),
(30,620,l),
(75,620,l),
(75,-30,l)
);
}
);
width = 570;
}
);
unicode = 7838;
},
{
color = 1;
glyphname = T;
kernLeft = T;
kernRight = RCH;
lastChange = "2024-08-27 01:08:33 +0000";
layers = (
{
backgroundImage = {
imagePath = "../reference/@Celes/uppercase/T.png";
locked = 1;
pos = (-324,-131);
scale = (14,14);
};
layerId = m01;
shapes = (
{
closed = 1;
nodes = (
(410,30,l),
(410,700,l),
(360,700,l),
(231,580,l),
(310,580,l),
(310,-30,l)
);
},
{
closed = 1;
nodes = (
(172,410,l),
(365,410,l),
(365,480,l),
(154,480,l),
(28,366,l),
(28,316,l)
);
}
);
width = 450;
},
{
backgroundImage = {
imagePath = "../reference/@Celes/uppercase/T.png";
locked = 1;
pos = (-294,-131);
scale = (14,14);
};
layerId = m002;
shapes = (
{
closed = 1;
nodes = (
(540,66,l),
(540,700,l),
(444,700,l),
(283,550,l),
(380,550,l),
(380,-30,l)
);
},
{
closed = 1;
nodes = (
(215,395,l),
(495,395,l),
(495,495,l),
(168,495,l),
(28,378,l),
(28,283,l)
);
}
);
width = 580;
},
{
backgroundImage = {
imagePath = "../reference/@Celes/uppercase/T.png";
locked = 1;
pos = (-214,-131);
scale = (14,14);
};
layerId = m004;
shapes = (
{
closed = 1;
nodes = (
(630,30,l),
(630,700,l),
(580,700,l),
(411,580,l),
(530,580,l),
(530,-30,l)
);
},
{
closed = 1;
nodes = (
(212,410,l),
(585,410,l),
(585,480,l),
(194,480,l),
(28,366,l),
(28,316,l)
);
}
);
width = 670;
},
{
backgroundImage = {
imagePath = "../reference/@Celes/uppercase/T.png";
locked = 1;
pos = (-324,-131);
scale = (14,14);
};
layerId = m005;
shapes = (
{
closed = 1;
nodes = (
(380,0,l),
(380,700,l),
(375,700,l),
(289,620,l),
(340,620,l),
(340,-30,l)
);
},
{
closed = 1;
nodes = (
(161,430,l),
(365,430,l),
(365,460,l),
(145,460,l),
(28,358,l),
(28,332,l)
);
}
);
width = 420;
}
);
unicode = 84;
},
{
color = 1;
glyphname = U;
kernLeft = O;
kernRight = O;
lastChange = "2024-08-27 01:05:26 +0000";
layers = (
{
anchors = (
{
name = top;
pos = (334,600);
}
);
backgroundImage = {
imagePath = "../reference/@Celes/uppercase/U.png";
locked = 1;
pos = (-227,-123);
scale = (14,14);
};
layerId = m01;
shapes = (
{
closed = 1;
nodes = (
(444,-10,l),
(625,230,l),
(625,462,l),
(468,700,l),
(390,700,l),
(288,594,l),
(288,213,l),
(388,273,l),
(388,655,l),
(376,655,l),
(525,421,l),
(525,235,l),
(400,60,l),
(276,60,l),
(149,220,l),
(149,508,l),
(225,640,l),
(225,710,l),
(175,710,l),
(30,580,l),
(163,580,l),
(163,640,l),
(49,451,l),
(49,169,l),
(198,-10,l)
);
},
{
closed = 1;
nodes = (
(586,356,l),
(586,426,l),
(315,426,l),
(315,356,l)
);
}
);
width = 660;
},
{
anchors = (
{
name = top;
pos = (444,620);
}
);
backgroundImage = {
imagePath = "../reference/@Celes/uppercase/U.png";
locked = 1;
pos = (-177,-123);
scale = (14,14);
};
layerId = m002;
shapes = (
{
closed = 1;
nodes = (
(613,-10,l),
(805,229,l),
(805,463,l),
(645,700,l),
(523,700,l),
(358,581,l),
(358,173,l),
(518,269,l),
(518,655,l),
(504,655,l),
(645,420,l),
(645,236,l),
(530,90,l),
(360,90,l),
(229,221,l),
(229,507,l),
(305,614,l),
(305,710,l),
(209,710,l),
(31,550,l),
(243,550,l),
(243,633,l),
(69,452,l),
(69,168,l),
(229,-10,l)
);
},
{
closed = 1;
nodes = (
(766,341,l),
(766,441,l),
(385,441,l),
(385,341,l)
);
}
);
width = 840;
},
{
anchors = (
{
name = top;
pos = (444,600);
}
);
backgroundImage = {
imagePath = "../reference/@Celes/uppercase/U.png";
locked = 1;
pos = (-117,-123);
scale = (14,14);
};
layerId = m004;
shapes = (
{
closed = 1;
nodes = (
(654,-10,l),
(875,230,l),
(875,452,l),
(718,670,l),
(444,670,l),
(398,630,l),
(398,173,l),
(498,233,l),
(498,625,l),
(626,625,l),
(775,421,l),
(775,235,l),
(610,60,l),
(316,60,l),
(149,200,l),
(149,421,l),
(275,583,l),
(275,710,l),
(225,710,l),
(30,580,l),
(213,580,l),
(213,640,l),
(49,431,l),
(49,149,l),
(238,-10,l)
);
},
{
closed = 1;
nodes = (
(836,366,l),
(836,436,l),
(425,436,l),
(425,366,l)
);
}
);
width = 910;
},
{
anchors = (
{
name = top;
pos = (294,600);
}
);
backgroundImage = {
imagePath = "../reference/@Celes/uppercase/U.png";
locked = 1;
pos = (-267,-123);
scale = (14,14);
};
layerId = m005;
shapes = (
{
closed = 1;
nodes = (
(416,-10,l),
(555,178,l),
(555,459,l),
(409,700,l),
(333,700,l),
(278,644,l),
(278,237,l),
(318,261,l),
(318,655,l),
(390,655,l),
(515,448,l),
(515,183,l),
(396,20,l),
(204,20,l),
(79,194,l),
(79,480,l),
(155,633,l),
(155,710,l),
(149,710,l),
(49,620,l),
(93,620,l),
(106,620,l),
(39,492,l),
(39,173,l),
(175,-10,l)
);
},
{
closed = 1;
nodes = (
(536,326,l),
(536,356,l),
(295,356,l),
(295,326,l)
);
}
);
width = 590;
}
);
unicode = 85;
},
{
color = 1;
glyphname = V;
kernLeft = N;
kernRight = V;
lastChange = "2024-08-27 01:08:43 +0000";
layers = (
{
backgroundImage = {
imagePath = "../reference/@Celes/uppercase/V.png";
locked = 1;
scale = (14,14);
};
layerId = m01;
shapes = (
{
closed = 1;
nodes = (
(432,-10,l),
(642,281,l),
(393,644,l),
(211,644,l),
(211,574,l),
(316,574,l),
(518,267,l),
(377,60,l),
(261,60,l),
(326,-10,l)
);
},
{
closed = 1;
nodes = (
(230,30,l),
(230,700,l),
(180,700,l),
(71,580,l),
(130,580,l),
(130,-30,l)
);
},
{
closed = 1;
nodes = (
(266,283,l),
(331,353,l),
(90,353,l),
(25,283,l)
);
}
);
width = 660;
},
{
backgroundImage = {
imagePath = "../reference/@Celes/uppercase/V.png";
locked = 1;
pos = (50,0);
scale = (14,14);
};
layerId = m002;
shapes = (
{
closed = 1;
nodes = (
(622,-10,l),
(833,267,l),
(494,644,l),
(231,644,l),
(231,544,l),
(405,544,l),
(657,267,l),
(527,90,l),
(386,90,l),
(478,-10,l)
);
},
{
closed = 1;
nodes = (
(310,66,l),
(310,700,l),
(217,700,l),
(63,550,l),
(150,550,l),
(150,-30,l)
);
},
{
closed = 1;
nodes = (
(364,268,l),
(456,368,l),
(122,368,l),
(30,268,l)
);
}
);
width = 860;
},
{
backgroundImage = {
imagePath = "../reference/@Celes/uppercase/V.png";
locked = 1;
pos = (100,0);
scale = (14,14);
};
layerId = m004;
shapes = (
{
closed = 1;
nodes = (
(682,-10,l),
(912,281,l),
(463,644,l),
(251,644,l),
(251,574,l),
(406,574,l),
(788,267,l),
(627,60,l),
(401,60,l),
(466,-10,l)
);
},
{
closed = 1;
nodes = (
(270,30,l),
(270,700,l),
(220,700,l),
(71,580,l),
(170,580,l),
(170,-30,l)
);
},
{
closed = 1;
nodes = (
(366,283,l),
(431,353,l),
(90,353,l),
(25,283,l)
);
}
);
width = 930;
},
{
backgroundImage = {
imagePath = "../reference/@Celes/uppercase/V.png";
locked = 1;
pos = (-40,0);
scale = (14,14);
};
layerId = m005;
shapes = (
{
closed = 1;
nodes = (
(374,-10,l),
(578,278,l),
(271,647,l),
(146,647,l),
(146,617,l),
(247,617,l),
(524,277,l),
(343,20,l),
(254,20,l),
(282,-10,l)
);
},
{
closed = 1;
nodes = (
(160,0,l),
(160,700,l),
(156,700,l),
(84,620,l),
(120,620,l),
(120,-30,l)
);
},
{
closed = 1;
nodes = (
(220,303,l),
(248,333,l),
(56,333,l),
(28,303,l)
);
}
);
width = 610;
}
);
unicode = 86;
},
{
color = 1;
glyphname = W;
kernLeft = LCH;
kernRight = RCH;
lastChange = "2024-08-27 01:08:47 +0000";
layers = (
{
anchors = (
{
name = top;
pos = (372,600);
}
);
backgroundImage = {
imagePath = "../reference/@Celes/uppercase/W.png";
locked = 1;
pos = (20,0);
scale = (14,14);
};
layerId = m01;
shapes = (
{
closed = 1;
nodes = (
(574,-20,l),
(649,76,l),
(649,700,l),
(599,700,l),
(494,580,l),
(549,580,l),
(549,50,l),
(460,50,l),
(515,-20,l)
);
},
{
closed = 1;
nodes = (
(185,30,l),
(185,700,l),
(135,700,l),
(15,580,l),
(85,580,l),
(85,-30,l)
);
},
{
closed = 1;
nodes = (
(341,-20,l),
(416,56,l),
(416,700,l),
(366,700,l),
(261,580,l),
(316,580,l),
(316,50,l),
(227,50,l),
(282,-20,l)
);
}
);
width = 690;
},
{
anchors = (
{
name = top;
pos = (472,620);
}
);
backgroundImage = {
imagePath = "../reference/@Celes/uppercase/W.png";
locked = 1;
pos = (70,0);
scale = (14,14);
};
layerId = m002;
shapes = (
{
closed = 1;
nodes = (
(743,-20,l),
(829,90,l),
(829,700,l),
(731,700,l),
(600,550,l),
(669,550,l),
(669,80,l),
(567,80,l),
(646,-20,l)
);
},
{
closed = 1;
nodes = (
(265,66,l),
(265,700,l),
(168,700,l),
(18,550,l),
(105,550,l),
(105,-30,l)
);
},
{
closed = 1;
nodes = (
(458,-20,l),
(546,69,l),
(546,700,l),
(448,700,l),
(317,550,l),
(386,550,l),
(386,80,l),
(284,80,l),
(363,-20,l)
);
}
);
width = 870;
},
{
anchors = (
{
name = top;
pos = (532,600);
}
);
backgroundImage = {
imagePath = "../reference/@Celes/uppercase/W.png";
locked = 1;
pos = (180,0);
scale = (14,14);
};
layerId = m004;
shapes = (
{
closed = 1;
nodes = (
(854,-20,l),
(929,76,l),
(929,700,l),
(879,700,l),
(704,580,l),
(829,580,l),
(829,50,l),
(670,50,l),
(725,-20,l)
);
},
{
closed = 1;
nodes = (
(225,30,l),
(225,700,l),
(175,700,l),
(15,580,l),
(125,580,l),
(125,-30,l)
);
},
{
closed = 1;
nodes = (
(501,-20,l),
(576,56,l),
(576,700,l),
(526,700,l),
(371,580,l),
(476,580,l),
(476,50,l),
(317,50,l),
(372,-20,l)
);
}
);
width = 980;
},
{
anchors = (
{
name = top;
pos = (342,600);
}
);
backgroundImage = {
imagePath = "../reference/@Celes/uppercase/W.png";
locked = 1;
pos = (-10,0);
scale = (14,14);
};
layerId = m005;
shapes = (
{
closed = 1;
nodes = (
(554,-20,l),
(589,29,l),
(589,700,l),
(586,700,l),
(496,620,l),
(549,620,l),
(549,10,l),
(459,10,l),
(483,-20,l)
);
},
{
closed = 1;
nodes = (
(125,0,l),
(125,700,l),
(120,700,l),
(30,620,l),
(85,620,l),
(85,-30,l)
);
},
{
closed = 1;
nodes = (
(316,-20,l),
(356,26,l),
(356,700,l),
(353,700,l),
(263,620,l),
(316,620,l),
(316,10,l),
(226,10,l),
(250,-20,l)
);
}
);
width = 630;
}
);
unicode = 87;
},
{
color = 1;
glyphname = X;
kernLeft = X;
kernRight = X;
lastChange = "2024-08-27 01:08:53 +0000";
layers = (
{
backgroundImage = {
imagePath = "../reference/@Celes/uppercase/X.png";
locked = 1;
pos = (-70,0);
scale = (14,14);
};
layerId = m01;
shapes = (
{
closed = 1;
nodes = (
(476,-10,l),
(581,110,l),
(488,110,l),
(228,700,l),
(178,700,l),
(29,580,l),
(171,580,l),
(426,-10,l)
);
},
{
closed = 1;
nodes = (
(94,-10,l),
(335,368,l),
(285,368,l),
(44,110,l),
(44,-10,l)
);
}
);
width = 610;
},
{
backgroundImage = {
imagePath = "../reference/@Celes/uppercase/X.png";
locked = 1;
pos = (-10,0);
scale = (14,14);
};
layerId = m002;
shapes = (
{
closed = 1;
nodes = (
(654,-10,l),
(785,140,l),
(632,140,l),
(372,700,l),
(223,700,l),
(37,550,l),
(247,550,l),
(502,-10,l)
);
},
{
closed = 1;
nodes = (
(175,-10,l),
(495,383,l),
(368,383,l),
(74,127,l),
(74,-10,l)
);
}
);
width = 820;
},
{
backgroundImage = {
imagePath = "../reference/@Celes/uppercase/X.png";
locked = 1;
pos = (60,0);
scale = (14,14);
};
layerId = m004;
shapes = (
{
closed = 1;
nodes = (
(716,-10,l),
(821,100,l),
(668,100,l),
(268,700,l),
(178,700,l),
(29,590,l),
(221,590,l),
(616,-10,l)
);
},
{
closed = 1;
nodes = (
(94,-10,l),
(445,368,l),
(385,368,l),
(44,80,l),
(44,-10,l)
);
}
);
width = 850;
},
{
backgroundImage = {
imagePath = "../reference/@Celes/uppercase/X.png";
locked = 1;
pos = (-90,0);
scale = (14,14);
};
layerId = m005;
shapes = (
{
closed = 1;
nodes = (
(447,-10,l),
(509,60,l),
(436,60,l),
(156,700,l),
(151,700,l),
(60,630,l),
(141,630,l),
(423,-10,l)
);
},
{
closed = 1;
nodes = (
(52,-10,l),
(290,378,l),
(264,378,l),
(34,59,l),
(34,-10,l)
);
}
);
width = 540;
}
);
unicode = 88;
},
{
glyphname = Y;
kernLeft = LCH;
kernRight = Y;
lastChange = "2024-08-27 01:08:55 +0000";
layers = (
{
anchors = (
{
name = top;
pos = (309,600);
}
);
layerId = m01;
shapes = (
{
closed = 1;
nodes = (
(478,-20,l),
(553,64,l),
(553,270,l),
(166,521,l),
(166,451,l),
(453,264,l),
(453,50,l),
(405,50,l),
(252,118,l),
(252,68,l),
(389,-20,l)
);
},
{
closed = 1;
nodes = (
(185,30,l),
(185,700,l),
(135,700,l),
(15,580,l),
(85,580,l),
(85,-30,l)
);
},
{
closed = 1;
nodes = (
(545,500,l),
(545,642,l),
(473,700,l),
(383,700,l),
(289,630,l),
(445,630,l),
(445,492,l),
(349,357,l),
(386,330,l)
);
}
);
width = 580;
},
{
anchors = (
{
name = top;
pos = (419,620);
}
);
layerId = m002;
shapes = (
{
closed = 1;
nodes = (
(636,-20,l),
(723,78,l),
(723,301,l),
(186,564,l),
(186,447,l),
(563,260,l),
(563,80,l),
(509,80,l),
(352,175,l),
(352,89,l),
(516,-20,l)
);
},
{
closed = 1;
nodes = (
(265,66,l),
(265,700,l),
(168,700,l),
(18,550,l),
(105,550,l),
(105,-30,l)
);
},
{
closed = 1;
nodes = (
(715,498,l),
(715,630,l),
(628,700,l),
(509,700,l),
(375,600,l),
(555,600,l),
(555,493,l),
(457,355,l),
(531,301,l)
);
}
);
width = 750;
},
{
anchors = (
{
name = top;
pos = (449,600);
}
);
layerId = m004;
shapes = (
{
closed = 1;
nodes = (
(748,-20,l),
(823,64,l),
(823,260,l),
(206,521,l),
(206,441,l),
(723,214,l),
(723,50,l),
(575,50,l),
(392,168,l),
(392,118,l),
(559,-20,l)
);
},
{
closed = 1;
nodes = (
(225,30,l),
(225,700,l),
(175,700,l),
(15,580,l),
(125,580,l),
(125,-30,l)
);
},
{
closed = 1;
nodes = (
(815,510,l),
(815,642,l),
(743,700,l),
(523,700,l),
(429,630,l),
(715,630,l),
(715,532,l),
(489,387,l),
(526,360,l)
);
}
);
width = 850;
},
{
anchors = (
{
name = top;
pos = (289,600);
}
);
layerId = m005;
shapes = (
{
closed = 1;
nodes = (
(475,-20,l),
(513,15,l),
(513,287,l),
(109,499,l),
(109,469,l),
(473,268,l),
(473,10,l),
(387,10,l),
(242,101,l),
(242,76,l),
(368,-20,l)
);
},
{
closed = 1;
nodes = (
(125,0,l),
(125,700,l),
(120,700,l),
(40,620,l),
(85,620,l),
(85,-30,l)
);
},
{
closed = 1;
nodes = (
(505,484,l),
(505,663,l),
(473,690,l),
(316,690,l),
(275,660,l),
(465,660,l),
(465,489,l),
(355,359,l),
(374,347,l)
);
}
);
width = 560;
}
);
unicode = 89;
},
{
glyphname = Z;
kernLeft = Z;
kernRight = Z;
lastChange = "2024-08-27 01:09:00 +0000";
layers = (
{
anchors = (
{
name = top;
pos = (370,600);
}
);
layerId = m01;
shapes = (
{
closed = 1;
nodes = (
(252,-10,l),
(606,700,l),
(184,700,l),
(119,630,l),
(505,630,l),
(221,60,l),
(127,60,l),
(127,281,l),
(210,389,l),
(443,389,l),
(443,31,l),
(543,31,l),
(543,389,l),
(442,459,l),
(194,459,l),
(27,261,l),
(27,51,l),
(120,-10,l)
);
},
{
closed = 1;
nodes = (
(588,0,l),
(653,70,l),
(385,70,l),
(320,0,l)
);
}
);
width = 680;
},
{
anchors = (
{
name = top;
pos = (434,600);
}
);
layerId = m002;
shapes = (
{
closed = 1;
nodes = (
(365,-10,l),
(724,700,l),
(196,700,l),
(104,600,l),
(547,600,l),
(278,90,l),
(187,90,l),
(187,280,l),
(259,374,l),
(553,374,l),
(553,31,l),
(713,31,l),
(713,392,l),
(595,474,l),
(206,474,l),
(27,262,l),
(27,47,l),
(137,-10,l)
);
},
{
closed = 1;
nodes = (
(746,0,l),
(838,100,l),
(507,100,l),
(415,0,l)
);
}
);
width = 870;
},
{
anchors = (
{
name = top;
pos = (509,600);
}
);
layerId = m004;
shapes = (
{
closed = 1;
nodes = (
(372,-10,l),
(876,700,l),
(184,700,l),
(119,630,l),
(729,630,l),
(323,60,l),
(127,60,l),
(127,281,l),
(240,389,l),
(713,389,l),
(713,31,l),
(813,31,l),
(813,389,l),
(685,459,l),
(194,459,l),
(27,301,l),
(27,61,l),
(100,-10,l)
);
},
{
closed = 1;
nodes = (
(928,0,l),
(993,70,l),
(585,70,l),
(520,0,l)
);
}
);
width = 1020;
},
{
anchors = (
{
name = top;
pos = (360,600);
}
);
layerId = m005;
shapes = (
{
closed = 1;
nodes = (
(243,-10,l),
(608,680,l),
(190,680,l),
(162,650,l),
(560,650,l),
(223,20,l),
(87,20,l),
(87,285,l),
(205,409,l),
(463,409,l),
(463,20,l),
(503,20,l),
(503,409,l),
(463,439,l),
(190,439,l),
(47,285,l),
(47,31,l),
(78,-10,l)
);
},
{
closed = 1;
nodes = (
(592,0,l),
(620,30,l),
(391,30,l),
(363,0,l)
);
}
);
width = 660;
}
);
unicode = 90;
},
{
color = 1;
glyphname = a;
kernLeft = a;
kernRight = a;
lastChange = "2024-08-27 01:03:19 +0000";
layers = (
{
anchors = (
{
name = ogonek;
pos = (382,0);
},
{
name = top;
pos = (373,390);
}
);
backgroundImage = {
imagePath = "../reference/@Celes/lowercase/a.png";
locked = 1;
pos = (40,0);
scale = (14,14);
};
layerId = m01;
shapes = (
{
closed = 1;
nodes = (
(60,-200,l),
(233,0,l),
(233,490,l),
(183,490,l),
(68,370,l),
(133,370,l),
(133,28,l),
(10,-200,l)
);
},
{
closed = 1;
nodes = (
(437,-10,l),
(568,82,l),
(568,259,l),
(491,311,l),
(362,311,l),
(297,241,l),
(468,241,l),
(468,60,l),
(395,60,l),
(268,205,l),
(218,205,l),
(218,135,l),
(353,-10,l)
);
},
{
closed = 1;
nodes = (
(526,373,l),
(591,443,l),
(221,443,l),
(221,373,l)
);
}
);
width = 610;
},
{
anchors = (
{
name = ogonek;
pos = (422,0);
},
{
name = top;
pos = (443,390);
}
);
backgroundImage = {
imagePath = "../reference/@Celes/lowercase/a.png";
locked = 1;
pos = (80,0);
scale = (14,14);
};
layerId = m002;
shapes = (
{
closed = 1;
nodes = (
(108,-200,l),
(303,-1,l),
(303,490,l),
(206,490,l),
(62,340,l),
(143,340,l),
(143,28,l),
(2,-200,l)
);
},
{
closed = 1;
nodes = (
(540,-10,l),
(688,79,l),
(688,263,l),
(594,326,l),
(454,326,l),
(362,226,l),
(528,226,l),
(528,90,l),
(453,90,l),
(296,220,l),
(228,220,l),
(228,133,l),
(395,-10,l)
);
},
{
closed = 1;
nodes = (
(634,358,l),
(726,458,l),
(231,458,l),
(231,358,l)
);
}
);
width = 750;
},
{
anchors = (
{
name = ogonek;
pos = (382,0);
},
{
name = top;
pos = (473,390);
}
);
backgroundImage = {
imagePath = "../reference/@Celes/lowercase/a.png";
locked = 1;
pos = (140,0);
scale = (14,14);
};
layerId = m004;
shapes = (
{
closed = 1;
nodes = (
(60,-200,l),
(233,0,l),
(233,490,l),
(183,490,l),
(48,370,l),
(133,370,l),
(133,28,l),
(10,-200,l)
);
},
{
closed = 1;
nodes = (
(637,-10,l),
(768,82,l),
(768,259,l),
(691,311,l),
(422,311,l),
(357,241,l),
(668,241,l),
(668,60,l),
(385,60,l),
(268,215,l),
(218,215,l),
(218,145,l),
(343,-10,l)
);
},
{
closed = 1;
nodes = (
(726,373,l),
(791,443,l),
(221,443,l),
(221,373,l)
);
}
);
width = 810;
},
{
anchors = (
{
name = ogonek;
pos = (372,0);
},
{
name = top;
pos = (363,390);
}
);
backgroundImage = {
imagePath = "../reference/@Celes/lowercase/a.png";
locked = 1;
pos = (30,0);
scale = (14,14);
};
layerId = m005;
shapes = (
{
closed = 1;
nodes = (
(42,-200,l),
(193,0,l),
(193,490,l),
(189,490,l),
(112,410,l),
(153,410,l),
(153,10,l),
(17,-200,l)
);
},
{
closed = 1;
nodes = (
(488,-10,l),
(528,27,l),
(528,230,l),
(486,261,l),
(318,261,l),
(290,231,l),
(488,231,l),
(488,20,l),
(347,20,l),
(206,192,l),
(185,192,l),
(185,166,l),
(330,-10,l)
);
},
{
closed = 1;
nodes = (
(500,403,l),
(528,433,l),
(179,433,l),
(179,403,l)
);
}
);
width = 560;
}
);
unicode = 97;
},
{
color = 3;
glyphname = ae;
kernLeft = a;
kernRight = e;
lastChange = "2024-08-27 01:30:56 +0000";
layers = (
{
layerId = m01;
shapes = (
{
alignment = -1;
ref = a;
},
{
closed = 1;
nodes = (
(825,-10,l),
(933,105,l),
(933,408,l),
(868,490,l),
(584,490,l),
(447,288,l),
(497,288,l),
(604,420,l),
(833,420,l),
(833,60,l),
(614,60,l),
(549,-10,l)
);
},
{
closed = 1;
nodes = (
(972,193,l),
(1037,263,l),
(645,263,l),
(580,193,l)
);
}
);
width = 1051;
},
{
layerId = m002;
shapes = (
{
alignment = -1;
ref = a;
},
{
closed = 1;
nodes = (
(962,-10,l),
(1083,103,l),
(1083,409,l),
(1006,490,l),
(664,490,l),
(506,273,l),
(615,273,l),
(722,390,l),
(923,390,l),
(923,90,l),
(756,90,l),
(664,-10,l)
);
},
{
closed = 1;
nodes = (
(1110,178,l),
(1202,278,l),
(747,278,l),
(655,178,l)
);
}
);
width = 1221;
},
{
layerId = m004;
shapes = (
{
alignment = -1;
ref = a;
},
{
closed = 1;
nodes = (
(1165,-10,l),
(1273,105,l),
(1273,408,l),
(1208,490,l),
(794,490,l),
(647,288,l),
(697,288,l),
(814,420,l),
(1173,420,l),
(1173,60,l),
(814,60,l),
(749,-10,l)
);
},
{
closed = 1;
nodes = (
(1372,193,l),
(1437,263,l),
(945,263,l),
(880,193,l)
);
}
);
width = 1451;
},
{
layerId = m005;
shapes = (
{
alignment = -1;
ref = a;
},
{
closed = 1;
nodes = (
(827,-10,l),
(873,23,l),
(873,420,l),
(833,460,l),
(537,460,l),
(419,308,l),
(444,308,l),
(554,430,l),
(833,430,l),
(833,20,l),
(600,20,l),
(572,-10,l)
);
},
{
closed = 1;
nodes = (
(976,213,l),
(1004,243,l),
(621,243,l),
(593,213,l)
);
}
);
width = 1031;
}
);
metricLeft = a;
metricRight = e;
unicode = 230;
},
{
color = 1;
glyphname = b;
kernLeft = b;
kernRight = b;
lastChange = "2024-08-27 01:03:23 +0000";
layers = (
{
layerId = m01;
shapes = (
{
closed = 1;
nodes = (
(345,-10,l),
(496,135,l),
(446,135,l),
(339,60,l),
(197,60,l),
(120,202,l),
(120,241,l),
(257,389,l),
(257,439,l),
(29,239,l),
(29,159,l),
(131,-10,l)
);
},
{
closed = 1;
nodes = (
(411,181,l),
(476,251,l),
(101,251,l),
(101,181,l)
);
},
{
closed = 1;
nodes = (
(347,206,l),
(347,700,l),
(297,700,l),
(182,580,l),
(247,580,l),
(247,206,l)
);
}
);
width = 520;
},
{
layerId = m002;
shapes = (
{
closed = 1;
nodes = (
(461,-10,l),
(614,150,l),
(514,150,l),
(426,90,l),
(278,90,l),
(169,202,l),
(169,239,l),
(317,419,l),
(317,494,l),
(29,241,l),
(29,158,l),
(170,-10,l)
);
},
{
closed = 1;
nodes = (
(466,166,l),
(558,266,l),
(101,266,l),
(101,166,l)
);
},
{
closed = 1;
nodes = (
(447,191,l),
(447,700,l),
(350,700,l),
(206,550,l),
(287,550,l),
(287,191,l)
);
}
);
width = 640;
},
{
layerId = m004;
shapes = (
{
closed = 1;
nodes = (
(525,-10,l),
(696,145,l),
(646,145,l),
(519,60,l),
(237,60,l),
(120,212,l),
(120,251,l),
(367,409,l),
(367,479,l),
(29,249,l),
(29,169,l),
(171,-10,l)
);
},
{
closed = 1;
nodes = (
(611,191,l),
(676,261,l),
(101,261,l),
(101,191,l)
);
},
{
closed = 1;
nodes = (
(447,216,l),
(447,700,l),
(397,700,l),
(232,580,l),
(347,580,l),
(347,216,l)
);
}
);
width = 720;
},
{
layerId = m005;
shapes = (
{
closed = 1;
nodes = (
(347,-10,l),
(458,125,l),
(432,125,l),
(331,20,l),
(192,20,l),
(70,195,l),
(70,208,l),
(275,431,l),
(275,461,l),
(30,227,l),
(30,183,l),
(167,-10,l)
);
},
{
closed = 1;
nodes = (
(415,188,l),
(443,218,l),
(56,218,l),
(56,188,l)
);
},
{
closed = 1;
nodes = (
(297,205,l),
(297,700,l),
(293,700,l),
(216,620,l),
(257,620,l),
(257,205,l)
);
}
);
width = 480;
}
);
unicode = 98;
},
{
color = 1;
glyphname = c;
kernLeft = c;
kernRight = RxH;
lastChange = "2024-08-27 01:03:27 +0000";
layers = (
{
anchors = (
{
name = ogonek;
pos = (384,0);
},
{
name = top;
pos = (241,390);
}
);
backgroundImage = {
imagePath = "../reference/@Celes/lowercase/c.png";
locked = 1;
pos = (-10,0);
scale = (14,14);
};
layerId = m01;
shapes = (
{
closed = 1;
nodes = (
(282,-200,l),
(131,-11,l),
(131,204,l),
(396,204,l),
(396,274,l),
(131,274,l),
(31,200,l),
(31,-15,l),
(232,-200,l)
);
},
{
closed = 1;
nodes = (
(455,30,l),
(455,490,l),
(405,490,l),
(290,370,l),
(355,370,l),
(355,-30,l)
);
}
);
width = 490;
},
{
anchors = (
{
name = ogonek;
pos = (454,20);
},
{
name = top;
pos = (301,390);
}
);
backgroundImage = {
imagePath = "../reference/@Celes/lowercase/c.png";
locked = 1;
pos = (-10,0);
scale = (14,14);
};
layerId = m002;
shapes = (
{
closed = 1;
nodes = (
(355,-200,l),
(191,-10,l),
(191,189,l),
(496,189,l),
(496,289,l),
(147,289,l),
(31,203,l),
(31,-17,l),
(246,-200,l)
);
},
{
closed = 1;
nodes = (
(555,66,l),
(555,490,l),
(458,490,l),
(314,340,l),
(395,340,l),
(395,-30,l)
);
}
);
width = 590;
},
{
anchors = (
{
name = ogonek;
pos = (584,0);
},
{
name = top;
pos = (361,390);
}
);
backgroundImage = {
imagePath = "../reference/@Celes/lowercase/c.png";
locked = 1;
pos = (-10,0);
scale = (14,14);
};
layerId = m004;
shapes = (
{
closed = 1;
nodes = (
(302,-200,l),
(131,9,l),
(131,204,l),
(596,204,l),
(596,274,l),
(131,274,l),
(31,200,l),
(31,-15,l),
(252,-200,l)
);
},
{
closed = 1;
nodes = (
(655,30,l),
(655,490,l),
(605,490,l),
(450,370,l),
(555,370,l),
(555,-30,l)
);
}
);
width = 710;
},
{
anchors = (
{
name = ogonek;
pos = (364,0);
},
{
name = top;
pos = (221,390);
}
);
backgroundImage = {
imagePath = "../reference/@Celes/lowercase/c.png";
locked = 1;
pos = (-30,0);
scale = (14,14);
};
layerId = m005;
shapes = (
{
closed = 1;
nodes = (
(251,-200,l),
(81,-22,l),
(81,214,l),
(386,214,l),
(386,244,l),
(80,244,l),
(41,209,l),
(41,-39,l),
(225,-200,l)
);
},
{
closed = 1;
nodes = (
(405,0,l),
(405,490,l),
(401,490,l),
(324,410,l),
(365,410,l),
(365,-30,l)
);
}
);
width = 440;
}
);
unicode = 99;
},
{
color = 1;
glyphname = d;
kernLeft = b;
kernRight = d;
lastChange = "2024-08-27 01:03:30 +0000";
layers = (
{
backgroundImage = {
imagePath = "../reference/@Celes/lowercase/d.png";
locked = 1;
pos = (63,-291);
scale = (14,14);
};
layerId = m01;
shapes = (
{
closed = 1;
nodes = (
(421,-10,l),
(486,60,l),
(190,60,l),
(131,134,l),
(131,266,l),
(260,374,l),
(347,374,l),
(469,290,l),
(537,342,l),
(346,444,l),
(260,444,l),
(31,260,l),
(31,103,l),
(147,-10,l)
);
},
{
closed = 1;
nodes = (
(354,20,l),
(354,699,l),
(304,699,l),
(168,579,l),
(254,579,l),
(254,20,l)
);
}
);
width = 560;
},
{
backgroundImage = {
imagePath = "../reference/@Celes/lowercase/d.png";
locked = 1;
pos = (93,-291);
scale = (14,14);
};
layerId = m002;
shapes = (
{
closed = 1;
nodes = (
(519,-10,l),
(611,90,l),
(318,90,l),
(191,135,l),
(191,263,l),
(335,359,l),
(444,359,l),
(562,259,l),
(665,338,l),
(437,459,l),
(325,459,l),
(31,263,l),
(31,81,l),
(236,-10,l)
);
},
{
closed = 1;
nodes = (
(464,20,l),
(464,700,l),
(368,700,l),
(198,550,l),
(304,550,l),
(304,20,l)
);
}
);
width = 690;
},
{
backgroundImage = {
imagePath = "../reference/@Celes/lowercase/d.png";
locked = 1;
pos = (173,-291);
scale = (14,14);
};
layerId = m004;
shapes = (
{
closed = 1;
nodes = (
(611,-10,l),
(676,60,l),
(280,60,l),
(131,134,l),
(131,266,l),
(310,374,l),
(557,374,l),
(689,290,l),
(757,342,l),
(556,444,l),
(290,444,l),
(31,280,l),
(31,103,l),
(237,-10,l)
);
},
{
closed = 1;
nodes = (
(484,20,l),
(484,699,l),
(434,699,l),
(268,579,l),
(384,579,l),
(384,20,l)
);
}
);
width = 780;
},
{
backgroundImage = {
imagePath = "../reference/@Celes/lowercase/d.png";
locked = 1;
pos = (43,-291);
scale = (14,14);
};
layerId = m005;
shapes = (
{
closed = 1;
nodes = (
(385,-10,l),
(413,20,l),
(169,20,l),
(81,125,l),
(81,295,l),
(231,414,l),
(339,414,l),
(475,319,l),
(475,359,l),
(346,444,l),
(219,444,l),
(41,305,l),
(41,108,l),
(142,-10,l)
);
},
{
closed = 1;
nodes = (
(304,9,l),
(304,700,l),
(298,700,l),
(208,620,l),
(264,620,l),
(264,9,l)
);
}
);
width = 510;
}
);
unicode = 100;
},
{
color = 3;
glyphname = eth;
kernLeft = b;
kernRight = d;
lastChange = "2024-08-27 01:31:25 +0000";
layers = (
{
layerId = m01;
shapes = (
{
ref = d;
},
{
closed = 1;
nodes = (
(418,469,l),
(483,539,l),
(195,539,l),
(130,469,l)
);
}
);
width = 560;
},
{
layerId = m002;
shapes = (
{
ref = d;
},
{
closed = 1;
nodes = (
(498,441,l),
(563,511,l),
(275,511,l),
(210,441,l)
);
}
);
width = 690;
},
{
layerId = m004;
shapes = (
{
ref = d;
},
{
closed = 1;
nodes = (
(578,469,l),
(643,539,l),
(255,539,l),
(190,469,l)
);
}
);
width = 780;
},
{
layerId = m005;
shapes = (
{
ref = d;
},
{
closed = 1;
nodes = (
(402,509,l),
(430,539,l),
(151,539,l),
(123,509,l)
);
}
);
width = 510;
}
);
metricLeft = d;
metricRight = d;
unicode = 240;
},
{
color = 1;
glyphname = e;
kernLeft = e;
kernRight = e;
lastChange = "2024-08-27 01:40:08 +0000";
layers = (
{
anchors = (
{
name = top;
pos = (307,390);
}
);
backgroundImage = {
imagePath = "../reference/@Celes/lowercase/e.png";
locked = 1;
pos = (78,-253);
scale = (14,14);
};
layerId = m01;
shapes = (
{
closed = 1;
nodes = (
(394,-10,l),
(502,105,l),
(502,408,l),
(437,490,l),
(153,490,l),
(16,288,l),
(66,288,l),
(173,420,l),
(402,420,l),
(402,60,l),
(206,60,l),
(141,-10,l)
);
},
{
closed = 1;
nodes = (
(541,193,l),
(606,263,l),
(214,263,l),
(149,193,l)
);
}
);
width = 620;
},
{
anchors = (
{
name = top;
pos = (367,390);
}
);
backgroundImage = {
imagePath = "../reference/@Celes/lowercase/e.png";
locked = 1;
pos = (118,-253);
scale = (14,14);
};
layerId = m002;
shapes = (
{
closed = 1;
nodes = (
(471,-10,l),
(592,103,l),
(592,409,l),
(516,490,l),
(173,490,l),
(15,273,l),
(125,273,l),
(232,390,l),
(432,390,l),
(432,90,l),
(228,90,l),
(136,-10,l)
);
},
{
closed = 1;
nodes = (
(639,178,l),
(731,278,l),
(236,278,l),
(144,178,l)
);
}
);
width = 750;
},
{
anchors = (
{
name = top;
pos = (407,390);
}
);
backgroundImage = {
imagePath = "../reference/@Celes/lowercase/e.png";
locked = 1;
pos = (178,-253);
scale = (14,14);
};
layerId = m004;
shapes = (
{
closed = 1;
nodes = (
(554,-10,l),
(662,105,l),
(662,408,l),
(597,490,l),
(203,490,l),
(16,288,l),
(66,288,l),
(223,420,l),
(562,420,l),
(562,60,l),
(206,60,l),
(141,-10,l)
);
},
{
closed = 1;
nodes = (
(741,193,l),
(806,263,l),
(284,263,l),
(219,193,l)
);
}
);
width = 820;
},
{
anchors = (
{
name = top;
pos = (287,390);
}
);
backgroundImage = {
imagePath = "../reference/@Celes/lowercase/e.png";
locked = 1;
pos = (58,-253);
scale = (14,14);
};
layerId = m005;
shapes = (
{
closed = 1;
nodes = (
(432,-10,l),
(472,31,l),
(472,461,l),
(438,490,l),
(182,490,l),
(24,299,l),
(50,299,l),
(200,460,l),
(432,460,l),
(432,20,l),
(152,20,l),
(124,-10,l)
);
},
{
closed = 1;
nodes = (
(535,223,l),
(563,253,l),
(210,253,l),
(182,223,l)
);
}
);
width = 590;
}
);
unicode = 101;
},
{
color = 1;
glyphname = f;
kernLeft = LxD;
kernRight = f;
lastChange = "2024-08-27 01:03:44 +0000";
layers = (
{
backgroundImage = {
imagePath = "../reference/@Celes/lowercase/f.png";
locked = 1;
pos = (-10,0);
scale = (14,14);
};
layerId = m01;
shapes = (
{
closed = 1;
nodes = (
(201,-170,l),
(201,490,l),
(151,490,l),
(15,370,l),
(101,370,l),
(101,-230,l)
);
},
{
closed = 1;
nodes = (
(503,233,l),
(394,315,l),
(183,315,l),
(183,245,l),
(376,245,l),
(503,183,l)
);
}
);
width = 530;
},
{
backgroundImage = {
imagePath = "../reference/@Celes/lowercase/f.png";
locked = 1;
pos = (-30,0);
scale = (14,14);
};
layerId = m002;
shapes = (
{
closed = 1;
nodes = (
(281,-134,l),
(281,490,l),
(185,490,l),
(15,340,l),
(121,340,l),
(121,-230,l)
);
},
{
closed = 1;
nodes = (
(653,246,l),
(528,330,l),
(203,330,l),
(203,230,l),
(486,230,l),
(653,158,l)
);
}
);
width = 680;
},
{
backgroundImage = {
imagePath = "../reference/@Celes/lowercase/f.png";
locked = 1;
pos = (-20,0);
scale = (14,14);
};
layerId = m004;
shapes = (
{
closed = 1;
nodes = (
(241,-170,l),
(241,490,l),
(191,490,l),
(15,370,l),
(141,370,l),
(141,-230,l)
);
},
{
closed = 1;
nodes = (
(743,213,l),
(564,315,l),
(223,315,l),
(223,245,l),
(546,245,l),
(743,163,l)
);
}
);
width = 770;
},
{
backgroundImage = {
imagePath = "../reference/@Celes/lowercase/f.png";
locked = 1;
pos = (-60,0);
scale = (14,14);
};
layerId = m005;
shapes = (
{
closed = 1;
nodes = (
(121,-200,l),
(121,490,l),
(115,490,l),
(25,410,l),
(81,410,l),
(81,-230,l)
);
},
{
closed = 1;
nodes = (
(453,219,l),
(331,295,l),
(101,295,l),
(101,265,l),
(323,265,l),
(453,194,l)
);
}
);
width = 490;
}
);
unicode = 102;
},
{
color = 1;
glyphname = g;
kernLeft = g;
kernRight = g;
lastChange = "2024-08-27 01:03:47 +0000";
layers = (
{
backgroundImage = {
imagePath = "../reference/@Celes/lowercase/g.png";
locked = 1;
pos = (-10,0);
scale = (14,14);
};
layerId = m01;
shapes = (
{
closed = 1;
nodes = (
(247,-200,l),
(135,-20,l),
(135,278,l),
(255,433,l),
(175,433,l),
(25,247,l),
(25,-24,l),
(197,-200,l)
);
},
{
closed = 1;
nodes = (
(431,30,l),
(431,437,l),
(331,437,l),
(331,-30,l)
);
},
{
closed = 1;
nodes = (
(490,410,l),
(555,480,l),
(130,480,l),
(65,410,l)
);
}
);
width = 570;
},
{
backgroundImage = {
imagePath = "../reference/@Celes/lowercase/g.png";
locked = 1;
pos = (-10,0);
scale = (14,14);
};
layerId = m002;
shapes = (
{
closed = 1;
nodes = (
(317,-200,l),
(195,-19,l),
(195,257,l),
(347,433,l),
(206,433,l),
(25,248,l),
(25,-26,l),
(210,-200,l)
);
},
{
closed = 1;
nodes = (
(561,66,l),
(561,437,l),
(401,437,l),
(401,-30,l)
);
},
{
closed = 1;
nodes = (
(608,380,l),
(700,480,l),
(132,480,l),
(40,380,l)
);
}
);
width = 720;
},
{
backgroundImage = {
imagePath = "../reference/@Celes/lowercase/g.png";
locked = 1;
pos = (-10,0);
scale = (14,14);
};
layerId = m004;
shapes = (
{
closed = 1;
nodes = (
(277,-200,l),
(135,10,l),
(135,178,l),
(355,433,l),
(275,433,l),
(25,207,l),
(25,-54,l),
(227,-200,l)
);
},
{
closed = 1;
nodes = (
(591,30,l),
(591,437,l),
(491,437,l),
(491,-30,l)
);
},
{
closed = 1;
nodes = (
(690,410,l),
(755,480,l),
(110,480,l),
(45,410,l)
);
}
);
width = 770;
},
{
backgroundImage = {
imagePath = "../reference/@Celes/lowercase/g.png";
locked = 1;
pos = (-30,0);
scale = (14,14);
};
layerId = m005;
shapes = (
{
closed = 1;
nodes = (
(218,-200,l),
(85,30,l),
(85,257,l),
(227,461,l),
(197,461,l),
(35,252,l),
(35,11,l),
(193,-200,l)
);
},
{
closed = 1;
nodes = (
(381,0,l),
(381,461,l),
(341,461,l),
(341,-30,l)
);
},
{
closed = 1;
nodes = (
(484,450,l),
(512,480,l),
(96,480,l),
(68,450,l)
);
}
);
width = 540;
}
);
unicode = 103;
},
{
glyphname = h;
kernLeft = LCH;
kernRight = h;
lastChange = "2024-08-27 01:03:54 +0000";
layers = (
{
layerId = m01;
shapes = (
{
closed = 1;
nodes = (
(201,40,l),
(201,700,l),
(151,700,l),
(15,579,l),
(101,579,l),
(101,-30,l)
);
},
{
closed = 1;
nodes = (
(525,89,l),
(525,237,l),
(477,273,l),
(169,273,l),
(169,203,l),
(425,203,l),
(425,123,l),
(341,35,l),
(341,-17,l)
);
},
{
closed = 1;
nodes = (
(509,419,l),
(509,480,l),
(409,480,l),
(200,286,l),
(200,236,l)
);
}
);
width = 560;
},
{
layerId = m002;
shapes = (
{
closed = 1;
nodes = (
(281,82,l),
(281,700,l),
(185,700,l),
(16,549,l),
(121,549,l),
(121,-30,l)
);
},
{
closed = 1;
nodes = (
(665,85,l),
(665,240,l),
(601,288,l),
(189,288,l),
(189,188,l),
(505,188,l),
(505,125,l),
(421,73,l),
(421,-20,l)
);
},
{
closed = 1;
nodes = (
(649,415,l),
(649,495,l),
(503,495,l),
(220,288,l),
(220,196,l)
);
}
);
width = 700;
},
{
layerId = m004;
shapes = (
{
closed = 1;
nodes = (
(241,40,l),
(241,700,l),
(191,700,l),
(15,579,l),
(141,579,l),
(141,-30,l)
);
},
{
closed = 1;
nodes = (
(765,69,l),
(765,237,l),
(697,293,l),
(209,293,l),
(209,223,l),
(665,223,l),
(665,103,l),
(461,35,l),
(461,-17,l)
);
},
{
closed = 1;
nodes = (
(749,419,l),
(749,480,l),
(649,480,l),
(230,346,l),
(230,276,l)
);
}
);
width = 800;
},
{
layerId = m005;
shapes = (
{
closed = 1;
nodes = (
(131,0,l),
(131,700,l),
(125,700,l),
(34,619,l),
(91,619,l),
(91,-30,l)
);
},
{
closed = 1;
nodes = (
(455,78,l),
(455,250,l),
(424,273,l),
(125,273,l),
(125,243,l),
(415,243,l),
(415,98,l),
(302,5,l),
(302,-20,l)
);
},
{
closed = 1;
nodes = (
(439,447,l),
(439,480,l),
(400,480,l),
(125,284,l),
(125,259,l)
);
}
);
width = 500;
}
);
unicode = 104;
},
{
color = 1;
glyphname = i;
kernLeft = LxH;
kernRight = RxH;
lastChange = "2024-08-27 01:04:01 +0000";
layers = (
{
anchors = (
{
name = top;
pos = (123,390);
}
);
backgroundImage = {
imagePath = "../reference/@Celes/lowercase/i.png";
locked = 1;
pos = (-10,0);
scale = (14,14);
};
layerId = m01;
shapes = (
{
closed = 1;
nodes = (
(180,30,l),
(180,490,l),
(130,490,l),
(15,370,l),
(80,370,l),
(80,-30,l)
);
}
);
width = 225;
},
{
anchors = (
{
name = top;
pos = (183,400);
}
);
backgroundImage = {
imagePath = "../reference/@Celes/lowercase/i.png";
locked = 1;
pos = (-20,0);
scale = (14,14);
};
layerId = m002;
shapes = (
{
closed = 1;
nodes = (
(260,66,l),
(260,490,l),
(163,490,l),
(19,340,l),
(100,340,l),
(100,-30,l)
);
}
);
width = 305;
},
{
anchors = (
{
name = top;
pos = (183,390);
}
);
backgroundImage = {
imagePath = "../reference/@Celes/lowercase/i.png";
locked = 1;
pos = (-10,0);
scale = (14,14);
};
layerId = m004;
shapes = (
{
closed = 1;
nodes = (
(240,30,l),
(240,490,l),
(190,490,l),
(35,370,l),
(140,370,l),
(140,-30,l)
);
}
);
width = 335;
},
{
anchors = (
{
name = top;
pos = (83,390);
}
);
backgroundImage = {
imagePath = "../reference/@Celes/lowercase/i.png";
locked = 1;
pos = (-50,0);
scale = (14,14);
};
layerId = m005;
shapes = (
{
closed = 1;
nodes = (
(110,0,l),
(110,490,l),
(106,490,l),
(29,410,l),
(70,410,l),
(70,-30,l)
);
}
);
width = 155;
}
);
unicode = 105;
},
{
glyphname = j;
kernLeft = j;
kernRight = j;
lastChange = "2024-08-27 01:04:03 +0000";
layers = (
{
anchors = (
{
name = top;
pos = (223,390);
}
);
layerId = m01;
shapes = (
{
closed = 1;
nodes = (
(447,-10,l),
(538,131,l),
(488,131,l),
(417,60,l),
(288,60,l),
(235,120,l),
(235,490,l),
(185,490,l),
(25,370,l),
(135,370,l),
(135,88,l),
(225,-10,l)
);
},
{
closed = 1;
nodes = (
(302,156,l),
(367,226,l),
(94,226,l),
(29,156,l)
);
}
);
width = 550;
},
{
anchors = (
{
name = top;
pos = (313,400);
}
);
layerId = m002;
shapes = (
{
closed = 1;
nodes = (
(578,-10,l),
(688,171,l),
(581,171,l),
(510,90,l),
(325,90,l),
(325,121,l),
(325,490,l),
(231,490,l),
(31,340,l),
(165,340,l),
(165,86,l),
(267,-10,l)
);
},
{
closed = 1;
nodes = (
(400,171,l),
(492,271,l),
(136,271,l),
(44,171,l)
);
}
);
width = 700;
},
{
anchors = (
{
name = top;
pos = (323,390);
}
);
layerId = m004;
shapes = (
{
closed = 1;
nodes = (
(687,-10,l),
(778,141,l),
(728,141,l),
(657,60,l),
(428,60,l),
(335,140,l),
(335,490,l),
(285,490,l),
(85,370,l),
(235,370,l),
(235,108,l),
(365,-10,l)
);
},
{
closed = 1;
nodes = (
(472,186,l),
(537,256,l),
(94,256,l),
(29,186,l)
);
}
);
width = 790;
},
{
anchors = (
{
name = top;
pos = (193,390);
}
);
layerId = m005;
shapes = (
{
closed = 1;
nodes = (
(398,-10,l),
(493,131,l),
(470,131,l),
(378,20,l),
(261,20,l),
(175,115,l),
(175,490,l),
(168,490,l),
(61,410,l),
(135,410,l),
(135,93,l),
(231,-10,l)
);
},
{
closed = 1;
nodes = (
(276,176,l),
(304,206,l),
(50,206,l),
(22,176,l)
);
}
);
width = 520;
}
);
unicode = 106;
},
{
glyphname = k;
kernLeft = k;
kernRight = k;
lastChange = "2024-08-27 01:04:23 +0000";
layers = (
{
layerId = m01;
shapes = (
{
closed = 1;
nodes = (
(449,-200,l),
(375,-111,l),
(375,68,l),
(538,117,l),
(538,290,l),
(449,360,l),
(307,360,l),
(235,259,l),
(235,490,l),
(185,490,l),
(25,370,l),
(135,370,l),
(135,113,l),
(185,113,l),
(332,290,l),
(438,290,l),
(438,147,l),
(275,93,l),
(275,-99,l),
(399,-200,l)
);
}
);
width = 570;
},
{
layerId = m002;
shapes = (
{
closed = 1;
nodes = (
(603,-200,l),
(515,-95,l),
(515,37,l),
(708,117,l),
(708,310,l),
(631,395,l),
(377,395,l),
(325,344,l),
(325,490,l),
(231,490,l),
(31,340,l),
(165,340,l),
(165,98,l),
(264,98,l),
(441,295,l),
(548,295,l),
(548,137,l),
(355,69,l),
(355,-87,l),
(494,-200,l)
);
}
);
width = 740;
},
{
layerId = m004;
shapes = (
{
closed = 1;
nodes = (
(634,-200,l),
(515,-65,l),
(515,57,l),
(778,179,l),
(778,290,l),
(689,360,l),
(407,360,l),
(275,239,l),
(275,490,l),
(225,490,l),
(25,370,l),
(175,370,l),
(175,93,l),
(225,93,l),
(452,290,l),
(678,290,l),
(678,211,l),
(415,95,l),
(415,-89,l),
(584,-200,l)
);
}
);
width = 810;
},
{
layerId = m005;
shapes = (
{
closed = 1;
nodes = (
(377,-200,l),
(285,-82,l),
(285,61,l),
(468,130,l),
(468,310,l),
(428,340,l),
(251,340,l),
(145,214,l),
(145,470,l),
(138,470,l),
(31,390,l),
(105,390,l),
(105,133,l),
(121,133,l),
(259,310,l),
(428,310,l),
(428,149,l),
(245,81,l),
(245,-92,l),
(351,-200,l)
);
}
);
width = 500;
}
);
unicode = 107;
},
{
color = 1;
glyphname = l;
kernLeft = l;
kernRight = L;
lastChange = "2024-08-27 01:04:29 +0000";
layers = (
{
backgroundImage = {
imagePath = "../reference/@Celes/lowercase/l.png";
locked = 1;
pos = (49,-350);
scale = (14,14);
};
layerId = m01;
shapes = (
{
closed = 1;
nodes = (
(424,0,l),
(489,70,l),
(277,70,l),
(277,658,l),
(256,700,l),
(156,700,l),
(177,658,l),
(177,0,l)
);
},
{
closed = 1;
nodes = (
(386,190,l),
(451,260,l),
(89,260,l),
(24,190,l)
);
}
);
width = 510;
},
{
backgroundImage = {
imagePath = "../reference/@Celes/lowercase/l.png";
locked = 1;
pos = (99,-350);
scale = (14,14);
};
layerId = m002;
shapes = (
{
closed = 1;
nodes = (
(572,0,l),
(664,100,l),
(387,100,l),
(387,643,l),
(359,700,l),
(198,700,l),
(227,643,l),
(227,0,l)
);
},
{
closed = 1;
nodes = (
(504,195,l),
(596,295,l),
(121,295,l),
(29,195,l)
);
}
);
width = 690;
},
{
backgroundImage = {
imagePath = "../reference/@Celes/lowercase/l.png";
locked = 1;
pos = (149,-350);
scale = (14,14);
};
layerId = m004;
shapes = (
{
closed = 1;
nodes = (
(684,0,l),
(749,70,l),
(377,70,l),
(377,658,l),
(356,700,l),
(256,700,l),
(277,658,l),
(277,0,l)
);
},
{
closed = 1;
nodes = (
(586,250,l),
(651,320,l),
(89,320,l),
(24,250,l)
);
}
);
width = 770;
},
{
backgroundImage = {
imagePath = "../reference/@Celes/lowercase/l.png";
locked = 1;
pos = (29,-350);
scale = (14,14);
};
layerId = m005;
shapes = (
{
closed = 1;
nodes = (
(398,0,l),
(426,30,l),
(227,30,l),
(227,660,l),
(205,700,l),
(167,700,l),
(187,655,l),
(187,0,l)
);
},
{
closed = 1;
nodes = (
(360,240,l),
(388,270,l),
(65,270,l),
(37,240,l)
);
}
);
width = 460;
}
);
unicode = 108;
},
{
color = 1;
glyphname = m;
kernLeft = M;
kernRight = M;
lastChange = "2024-08-27 01:04:33 +0000";
layers = (
{
backgroundImage = {
imagePath = "../reference/@Celes/lowercase/m.png";
locked = 1;
pos = (-82,-438);
scale = (14,14);
};
layerId = m01;
shapes = (
{
closed = 1;
nodes = (
(851,0,l),
(816,70,l),
(767,70,l),
(596,460,l),
(442,460,l),
(442,390,l),
(524,390,l),
(690,0,l)
);
},
{
closed = 1;
nodes = (
(270,0,l),
(335,70,l),
(90,70,l),
(25,0,l)
);
},
{
closed = 1;
nodes = (
(239,38,l),
(239,700,l),
(189,700,l),
(29,580,l),
(139,580,l),
(139,38,l)
);
},
{
closed = 1;
nodes = (
(615,0,l),
(580,70,l),
(531,70,l),
(360,460,l),
(206,460,l),
(206,390,l),
(288,390,l),
(454,0,l)
);
}
);
width = 870;
},
{
backgroundImage = {
imagePath = "../reference/@Celes/lowercase/m.png";
locked = 1;
pos = (-32,-438);
scale = (14,14);
};
layerId = m002;
shapes = (
{
closed = 1;
nodes = (
(999,0,l),
(949,100,l),
(901,100,l),
(730,480,l),
(522,480,l),
(522,380,l),
(610,380,l),
(776,0,l)
);
},
{
closed = 1;
nodes = (
(338,0,l),
(430,100,l),
(122,100,l),
(30,0,l)
);
},
{
closed = 1;
nodes = (
(319,38,l),
(319,700,l),
(225,700,l),
(25,550,l),
(159,550,l),
(159,38,l)
);
},
{
closed = 1;
nodes = (
(733,0,l),
(683,100,l),
(635,100,l),
(464,480,l),
(256,480,l),
(256,380,l),
(344,380,l),
(510,0,l)
);
}
);
width = 1020;
},
{
backgroundImage = {
imagePath = "../reference/@Celes/lowercase/m.png";
locked = 1;
pos = (18,-438);
scale = (14,14);
};
layerId = m004;
shapes = (
{
closed = 1;
nodes = (
(1151,0,l),
(1116,70,l),
(1027,70,l),
(806,460,l),
(602,460,l),
(602,390,l),
(734,390,l),
(950,0,l)
);
},
{
closed = 1;
nodes = (
(420,0,l),
(485,70,l),
(90,70,l),
(25,0,l)
);
},
{
closed = 1;
nodes = (
(339,38,l),
(339,700,l),
(289,700,l),
(89,580,l),
(239,580,l),
(239,38,l)
);
},
{
closed = 1;
nodes = (
(855,0,l),
(820,70,l),
(731,70,l),
(510,460,l),
(306,460,l),
(306,390,l),
(438,390,l),
(654,0,l)
);
}
);
width = 1170;
},
{
backgroundImage = {
imagePath = "../reference/@Celes/lowercase/m.png";
locked = 1;
pos = (-102,-438);
scale = (14,14);
};
layerId = m005;
shapes = (
{
closed = 1;
nodes = (
(820,0,l),
(805,30,l),
(725,30,l),
(554,410,l),
(422,410,l),
(422,380,l),
(526,380,l),
(692,0,l)
);
},
{
closed = 1;
nodes = (
(274,0,l),
(302,30,l),
(56,30,l),
(28,0,l)
);
},
{
closed = 1;
nodes = (
(189,18,l),
(189,700,l),
(182,700,l),
(75,620,l),
(149,620,l),
(149,18,l)
);
},
{
closed = 1;
nodes = (
(584,0,l),
(569,30,l),
(489,30,l),
(318,410,l),
(176,410,l),
(176,380,l),
(290,380,l),
(456,0,l)
);
}
);
width = 850;
}
);
unicode = 109;
},
{
color = 1;
glyphname = n;
kernLeft = n;
kernRight = n;
lastChange = "2024-08-27 01:04:41 +0000";
layers = (
{
anchors = (
{
name = top;
pos = (376,380);
}
);
annotations = (
{
pos = (632,40);
type = Arrow;
},
{
pos = (531,114);
type = Arrow;
},
{
pos = (642.909,101.548);
text = "大字重下可考虑改为直角";
type = Text;
}
);
backgroundImage = {
imagePath = "../reference/@Celes/lowercase/n.png";
locked = 1;
pos = (-13,-438);
scale = (14,14);
};
layerId = m01;
shapes = (
{
closed = 1;
nodes = (
(481,-10,l),
(609,59,l),
(609,289,l),
(488,425,l),
(426,425,l),
(509,295,l),
(509,124,l),
(408,60,l),
(342,60,l),
(282,-10,l)
);
},
{
closed = 1;
nodes = (
(260,30,l),
(260,490,l),
(210,490,l),
(95,370,l),
(160,370,l),
(160,-30,l)
);
},
{
closed = 1;
nodes = (
(333,199,l),
(398,269,l),
(86,269,l),
(21,199,l)
);
},
{
closed = 1;
nodes = (
(600,410,l),
(665,480,l),
(450,480,l),
(385,410,l)
);
}
);
width = 690;
},
{
anchors = (
{
name = top;
pos = (486,390);
}
);
annotations = (
{
pos = (632,40);
type = Arrow;
},
{
pos = (531,114);
type = Arrow;
},
{
pos = (642.909,101.548);
text = "大字重下可考虑改为直角";
type = Text;
}
);
backgroundImage = {
imagePath = "../reference/@Celes/lowercase/n.png";
locked = 1;
pos = (37,-438);
scale = (14,14);
};
layerId = m002;
shapes = (
{
closed = 1;
nodes = (
(759,-10,l),
(759,145,l),
(759,290,l),
(636,425,l),
(526,425,l),
(599,294,l),
(599,199,l),
(599,90,l),
(454,90,l),
(368,-10,l)
);
},
{
closed = 1;
nodes = (
(360,66,l),
(360,490,l),
(263,490,l),
(119,340,l),
(200,340,l),
(200,-30,l)
);
},
{
closed = 1;
nodes = (
(451,184,l),
(543,284,l),
(118,284,l),
(26,184,l)
);
},
{
closed = 1;
nodes = (
(738,380,l),
(830,480,l),
(552,480,l),
(460,380,l)
);
}
);
width = 860;
},
{
anchors = (
{
name = top;
pos = (476,380);
}
);
annotations = (
{
pos = (632,40);
type = Arrow;
},
{
pos = (531,114);
type = Arrow;
},
{
pos = (642.909,101.548);
text = "大字重下可考虑改为直角";
type = Text;
}
);
backgroundImage = {
imagePath = "../reference/@Celes/lowercase/n.png";
locked = 1;
pos = (87,-438);
scale = (14,14);
};
layerId = m004;
shapes = (
{
closed = 1;
nodes = (
(641,-10,l),
(809,81,l),
(809,264,l),
(638,425,l),
(576,425,l),
(709,259,l),
(709,133,l),
(602,60,l),
(442,60,l),
(382,-10,l)
);
},
{
closed = 1;
nodes = (
(330,30,l),
(330,490,l),
(280,490,l),
(125,370,l),
(230,370,l),
(230,-30,l)
);
},
{
closed = 1;
nodes = (
(473,199,l),
(538,269,l),
(86,269,l),
(21,199,l)
);
},
{
closed = 1;
nodes = (
(840,410,l),
(905,480,l),
(550,480,l),
(485,410,l)
);
}
);
width = 930;
},
{
anchors = (
{
name = top;
pos = (356,380);
}
);
annotations = (
{
pos = (632,40);
type = Arrow;
},
{
pos = (531,114);
type = Arrow;
},
{
pos = (642.909,101.548);
text = "大字重下可考虑改为直角";
type = Text;
}
);
backgroundImage = {
imagePath = "../reference/@Celes/lowercase/n.png";
locked = 1;
pos = (-33,-438);
scale = (14,14);
};
layerId = m005;
shapes = (
{
closed = 1;
nodes = (
(451,10,l),
(559,68,l),
(559,332,l),
(464,455,l),
(439,455,l),
(519,332,l),
(519,86,l),
(431,40,l),
(309,40,l),
(283,10,l)
);
},
{
closed = 1;
nodes = (
(210,0,l),
(210,490,l),
(206,490,l),
(119,410,l),
(170,410,l),
(170,-30,l)
);
},
{
closed = 1;
nodes = (
(317,219,l),
(345,249,l),
(52,249,l),
(24,219,l)
);
},
{
closed = 1;
nodes = (
(584,450,l),
(612,480,l),
(426,480,l),
(398,450,l)
);
}
);
width = 640;
}
);
unicode = 110;
},
{
color = 1;
glyphname = o;
kernLeft = o;
kernRight = o;
lastChange = "2024-08-27 02:58:03 +0000";
layers = (
{
anchors = (
{
name = top;
pos = (276,390);
}
);
backgroundImage = {
imagePath = "../reference/@Celes/lowercase/o.png";
locked = 1;
pos = (-13,-395);
scale = (14,14);
};
layerId = m01;
shapes = (
{
closed = 1;
nodes = (
(399,-10,l),
(494,116,l),
(494,385,l),
(399,490,l),
(153,490,l),
(35,385,l),
(35,116,l),
(153,-10,l)
);
},
{
closed = 1;
nodes = (
(135,181,l),
(135,420,l),
(294,420,l),
(394,303,l),
(394,50,l),
(255,50,l)
);
}
);
width = 530;
},
{
anchors = (
{
name = top;
pos = (326,400);
}
);
backgroundImage = {
imagePath = "../reference/@Celes/lowercase/o.png";
locked = 1;
pos = (17,-395);
scale = (14,14);
};
layerId = m002;
shapes = (
{
closed = 1;
nodes = (
(488,-10,l),
(594,115,l),
(594,374,l),
(487,490,l),
(167,490,l),
(35,372,l),
(35,114,l),
(166,-10,l)
);
},
{
closed = 1;
nodes = (
(195,183,l),
(195,390,l),
(346,390,l),
(434,287,l),
(434,80,l),
(303,80,l)
);
}
);
width = 630;
},
{
anchors = (
{
name = top;
pos = (376,390);
}
);
backgroundImage = {
imagePath = "../reference/@Celes/lowercase/o.png";
locked = 1;
pos = (87,-395);
scale = (14,14);
};
layerId = m004;
shapes = (
{
closed = 1;
nodes = (
(609,-10,l),
(704,116,l),
(704,385,l),
(609,490,l),
(153,490,l),
(35,385,l),
(35,116,l),
(153,-10,l)
);
},
{
closed = 1;
nodes = (
(135,181,l),
(135,420,l),
(504,420,l),
(604,303,l),
(604,50,l),
(255,50,l)
);
}
);
width = 740;
},
{
anchors = (
{
name = top;
pos = (246,390);
}
);
backgroundImage = {
imagePath = "../reference/@Celes/lowercase/o.png";
locked = 1;
pos = (-43,-395);
scale = (14,14);
};
layerId = m005;
shapes = (
{
closed = 1;
nodes = (
(403,-10,l),
(434,28,l),
(434,343,l),
(315,490,l),
(84,490,l),
(35,447,l),
(35,141,l),
(169,-10,l)
);
},
{
closed = 1;
nodes = (
(75,166,l),
(75,460,l),
(283,460,l),
(394,321,l),
(394,20,l),
(205,20,l)
);
}
);
width = 470;
}
);
unicode = 111;
},
{
color = 0;
glyphname = oslash;
kernLeft = o;
kernRight = o;
lastChange = "2024-08-27 01:38:17 +0000";
layers = (
{
layerId = m01;
shapes = (
{
ref = o;
},
{
closed = 1;
nodes = (
(158,144,l),
(35,-40,l),
(135,-40,l),
(157,-6,l)
);
},
{
closed = 1;
nodes = (
(389,326,l),
(518,520,l),
(418,520,l),
(388,476,l)
);
},
{
closed = 1;
nodes = (
(162,-6,l),
(384,326,l),
(383,476,l),
(163,144,l)
);
}
);
width = 530;
},
{
layerId = m002;
shapes = (
{
pos = (30,0);
ref = o;
},
{
closed = 1;
nodes = (
(248,6,l),
(465,282,l),
(464,487,l),
(172,113,l)
);
},
{
closed = 1;
nodes = (
(485,267,l),
(683,520,l),
(522,520,l),
(484,472,l)
);
},
{
closed = 1;
nodes = (
(162,133,l),
(30,-35,l),
(191,-35,l),
(238,26,l)
);
}
);
width = 700;
},
{
layerId = m004;
shapes = (
{
ref = o;
},
{
closed = 1;
nodes = (
(183,115,l),
(30,-20,l),
(130,-20,l),
(183,26,l)
);
},
{
closed = 1;
nodes = (
(598,370,l),
(747,502,l),
(647,502,l),
(597,458,l)
);
},
{
closed = 1;
nodes = (
(173,6,l),
(604,388,l),
(603,476,l),
(173,95,l)
);
}
);
width = 760;
},
{
layerId = m005;
shapes = (
{
ref = o;
},
{
closed = 1;
nodes = (
(134,105,l),
(46,-20,l),
(81,-20,l),
(134,55,l)
);
},
{
closed = 1;
nodes = (
(370,373,l),
(466,510,l),
(431,510,l),
(370,422,l)
);
},
{
closed = 1;
nodes = (
(134,45,l),
(367,373,l),
(367,422,l),
(134,95,l)
);
}
);
width = 480;
}
);
unicode = 248;
},
{
color = 3;
glyphname = oe;
kernLeft = o;
kernRight = e;
lastChange = "2024-08-27 03:21:28 +0000";
layers = (
{
layerId = m01;
shapes = (
{
ref = o;
},
{
closed = 1;
nodes = (
(782,-10,l),
(890,105,l),
(890,408,l),
(825,490,l),
(541,490,l),
(404,288,l),
(454,288,l),
(561,420,l),
(790,420,l),
(790,60,l),
(574,60,l),
(509,-10,l)
);
},
{
closed = 1;
nodes = (
(929,193,l),
(994,263,l),
(602,263,l),
(537,193,l)
);
}
);
width = 1008;
},
{
layerId = m002;
shapes = (
{
ref = o;
},
{
closed = 1;
nodes = (
(909,-10,l),
(1030,103,l),
(1030,409,l),
(954,490,l),
(631,490,l),
(473,273,l),
(583,273,l),
(690,390,l),
(870,390,l),
(870,90,l),
(666,90,l),
(574,-10,l)
);
},
{
closed = 1;
nodes = (
(1057,178,l),
(1149,278,l),
(734,278,l),
(642,178,l)
);
}
);
width = 1168;
},
{
layerId = m004;
shapes = (
{
ref = o;
},
{
closed = 1;
nodes = (
(1162,-10,l),
(1270,105,l),
(1270,408,l),
(1205,490,l),
(771,490,l),
(634,288,l),
(684,288,l),
(791,420,l),
(1170,420,l),
(1170,60,l),
(804,60,l),
(739,-10,l)
);
},
{
closed = 1;
nodes = (
(1369,193,l),
(1434,263,l),
(872,263,l),
(807,193,l)
);
}
);
width = 1448;
},
{
layerId = m005;
shapes = (
{
ref = o;
},
{
closed = 1;
nodes = (
(817,10,l),
(860,51,l),
(860,457,l),
(817,490,l),
(535,490,l),
(412,308,l),
(437,308,l),
(551,460,l),
(820,460,l),
(820,40,l),
(540,40,l),
(512,10,l)
);
},
{
closed = 1;
nodes = (
(943,223,l),
(971,253,l),
(588,253,l),
(560,223,l)
);
}
);
width = 998;
}
);
metricLeft = o;
metricRight = e;
unicode = 339;
},
{
color = 1;
glyphname = p;
kernLeft = p;
kernRight = p;
lastChange = "2024-08-27 01:04:53 +0000";
layers = (
{
backgroundImage = {
imagePath = "../reference/@Celes/lowercase/p.png";
locked = 1;
pos = (-30,0);
scale = (14,14);
};
layerId = m01;
shapes = (
{
closed = 1;
nodes = (
(392,-72,l),
(392,281,l),
(439,281,l),
(465,252,l),
(465,60,l),
(262,60,l),
(201,143,l),
(201,489,l),
(151,489,l),
(23,392,l),
(101,392,l),
(101,103,l),
(210,-10,l),
(462,-10,l),
(565,150,l),
(565,279,l),
(518,351,l),
(372,351,l),
(292,257,l),
(292,-63,l),
(201,-145,l),
(201,-215,l)
);
}
);
width = 590;
},
{
backgroundImage = {
imagePath = "../reference/@Celes/lowercase/p.png";
locked = 1;
pos = (30,0);
scale = (14,14);
};
layerId = m002;
shapes = (
{
closed = 1;
nodes = (
(522,-68,l),
(522,286,l),
(476,287,l),
(585,206,l),
(585,90,l),
(372,90,l),
(291,144,l),
(291,490,l),
(197,490,l),
(29,363,l),
(131,363,l),
(131,101,l),
(281,-10,l),
(633,-10,l),
(745,149,l),
(745,300,l),
(625,386,l),
(454,386,l),
(362,278,l),
(362,-54,l),
(261,-157,l),
(261,-230,l)
);
}
);
width = 770;
},
{
backgroundImage = {
imagePath = "../reference/@Celes/lowercase/p.png";
locked = 1;
pos = (110,0);
scale = (14,14);
};
layerId = m004;
shapes = (
{
closed = 1;
nodes = (
(532,-115,l),
(532,301,l),
(654,301,l),
(715,226,l),
(715,60,l),
(352,60,l),
(241,143,l),
(241,489,l),
(191,489,l),
(23,392,l),
(141,392,l),
(141,103,l),
(300,-10,l),
(712,-10,l),
(815,150,l),
(815,279,l),
(728,371,l),
(512,371,l),
(432,277,l),
(432,-82,l),
(281,-145,l),
(281,-215,l)
);
}
);
width = 840;
},
{
backgroundImage = {
imagePath = "../reference/@Celes/lowercase/p.png";
locked = 1;
pos = (-80,0);
scale = (14,14);
};
layerId = m005;
shapes = (
{
closed = 1;
nodes = (
(322,-86,l),
(322,261,l),
(373,261,l),
(445,211,l),
(445,20,l),
(199,20,l),
(121,124,l),
(121,490,l),
(114,490,l),
(29,433,l),
(81,433,l),
(81,108,l),
(176,-10,l),
(442,-10,l),
(485,30,l),
(485,228,l),
(396,291,l),
(322,291,l),
(282,245,l),
(282,-70,l),
(152,-185,l),
(152,-210,l)
);
}
);
width = 520;
}
);
unicode = 112;
},
{
glyphname = q;
kernLeft = q;
kernRight = RxH;
lastChange = "2024-08-27 01:04:57 +0000";
layers = (
{
layerId = m01;
shapes = (
{
closed = 1;
nodes = (
(145,-200,l),
(276,-60,l),
(275,4,l),
(211,70,l),
(120,70,l),
(120,250,l),
(279,250,l),
(382,150,l),
(382,220,l),
(286,320,l),
(129,320,l),
(20,199,l),
(20,67,l),
(90,0,l),
(175,0,l),
(176,-70,l),
(95,-200,l)
);
},
{
closed = 1;
nodes = (
(463,30,l),
(463,490,l),
(413,490,l),
(298,370,l),
(363,370,l),
(363,-30,l)
);
}
);
width = 500;
},
{
layerId = m002;
shapes = (
{
closed = 1;
nodes = (
(242,-200,l),
(386,-62,l),
(385,21,l),
(308,100,l),
(180,100,l),
(180,215,l),
(354,215,l),
(522,90,l),
(522,186,l),
(363,315,l),
(161,315,l),
(20,223,l),
(20,103,l),
(109,0,l),
(225,0,l),
(226,-69,l),
(135,-200,l)
);
},
{
closed = 1;
nodes = (
(603,66,l),
(603,490,l),
(506,490,l),
(386,340,l),
(443,340,l),
(443,-30,l)
);
}
);
width = 640;
},
{
layerId = m004;
shapes = (
{
closed = 1;
nodes = (
(235,-200,l),
(406,-112,l),
(405,18,l),
(341,70,l),
(120,70,l),
(120,250,l),
(379,250,l),
(582,130,l),
(582,200,l),
(416,320,l),
(104,320,l),
(20,250,l),
(20,67,l),
(90,0,l),
(305,0,l),
(306,-84,l),
(185,-200,l)
);
},
{
closed = 1;
nodes = (
(663,30,l),
(663,490,l),
(613,490,l),
(458,370,l),
(563,370,l),
(563,-30,l)
);
}
);
width = 700;
},
{
layerId = m005;
shapes = (
{
closed = 1;
nodes = (
(113,-200,l),
(235,-89,l),
(235,0,l),
(201,30,l),
(80,30,l),
(80,260,l),
(274,260,l),
(385,163,l),
(385,193,l),
(289,290,l),
(83,290,l),
(40,254,l),
(40,31,l),
(73,0,l),
(195,0,l),
(195,-73,l),
(86,-200,l)
);
},
{
closed = 1;
nodes = (
(413,0,l),
(413,490,l),
(409,490,l),
(332,410,l),
(373,410,l),
(373,-30,l)
);
}
);
width = 460;
}
);
unicode = 113;
},
{
color = 1;
glyphname = r;
kernLeft = LxH;
kernRight = r;
lastChange = "2024-08-27 01:05:04 +0000";
layers = (
{
backgroundImage = {
imagePath = "../reference/@Celes/lowercase/r.png";
locked = 1;
pos = (-10,0);
scale = (14,14);
};
layerId = m01;
shapes = (
{
closed = 1;
nodes = (
(453,-200,l),
(518,-130,l),
(345,-130,l),
(345,0,l),
(415,0,l),
(506,77,l),
(506,230,l),
(433,325,l),
(242,325,l),
(162,206,l),
(162,126,l),
(281,255,l),
(406,255,l),
(406,70,l),
(320,70,l),
(245,-8,l),
(245,-153,l),
(301,-200,l)
);
},
{
closed = 1;
nodes = (
(180,30,l),
(180,490,l),
(130,490,l),
(15,370,l),
(80,370,l),
(80,-30,l)
);
}
);
width = 540;
},
{
backgroundImage = {
imagePath = "../reference/@Celes/lowercase/r.png";
locked = 1;
pos = (-10,0);
scale = (14,14);
};
layerId = m002;
shapes = (
{
closed = 1;
nodes = (
(561,-200,l),
(653,-100,l),
(465,-100,l),
(465,0,l),
(580,0,l),
(686,75,l),
(686,231,l),
(602,340,l),
(302,340,l),
(182,167,l),
(182,59,l),
(349,240,l),
(526,240,l),
(526,100,l),
(393,100,l),
(305,9,l),
(305,-140,l),
(376,-200,l)
);
},
{
closed = 1;
nodes = (
(260,66,l),
(260,490,l),
(163,490,l),
(19,340,l),
(100,340,l),
(100,-30,l)
);
}
);
width = 710;
},
{
backgroundImage = {
imagePath = "../reference/@Celes/lowercase/r.png";
locked = 1;
pos = (-10,0);
scale = (14,14);
};
layerId = m004;
shapes = (
{
closed = 1;
nodes = (
(713,-200,l),
(778,-130,l),
(465,-130,l),
(465,0,l),
(665,0,l),
(756,77,l),
(756,256,l),
(683,325,l),
(342,325,l),
(202,206,l),
(202,126,l),
(381,255,l),
(656,255,l),
(656,70,l),
(440,70,l),
(365,-8,l),
(365,-153,l),
(421,-200,l)
);
},
{
closed = 1;
nodes = (
(220,30,l),
(220,490,l),
(170,490,l),
(15,370,l),
(120,370,l),
(120,-30,l)
);
}
);
width = 800;
},
{
backgroundImage = {
imagePath = "../reference/@Celes/lowercase/r.png";
locked = 1;
pos = (-50,0);
scale = (14,14);
};
layerId = m005;
shapes = (
{
closed = 1;
nodes = (
(397,-180,l),
(425,-150,l),
(275,-150,l),
(275,0,l),
(396,0,l),
(436,42,l),
(436,245,l),
(396,285,l),
(191,285,l),
(102,193,l),
(102,164,l),
(206,255,l),
(396,255,l),
(396,30,l),
(278,30,l),
(235,-7,l),
(235,-147,l),
(275,-180,l)
);
},
{
closed = 1;
nodes = (
(110,0,l),
(110,490,l),
(106,490,l),
(29,410,l),
(70,410,l),
(70,-30,l)
);
}
);
width = 480;
}
);
unicode = 114;
},
{
color = 1;
glyphname = s;
kernLeft = LxH;
kernRight = s;
lastChange = "2024-08-27 01:05:14 +0000";
layers = (
{
anchors = (
{
name = top;
pos = (284,390);
}
);
backgroundImage = {
imagePath = "../reference/@Celes/lowercase/s.png";
locked = 1;
pos = (-10,0);
scale = (14,14);
};
layerId = m01;
shapes = (
{
closed = 1;
nodes = (
(426,-10,l),
(497,60,l),
(497,248,l),
(433,325,l),
(284,325,l),
(140,180,l),
(140,110,l),
(284,255,l),
(397,255,l),
(397,60,l),
(320,60,l),
(255,-10,l)
);
},
{
closed = 1;
nodes = (
(180,30,l),
(180,490,l),
(130,490,l),
(15,370,l),
(80,370,l),
(80,-30,l)
);
}
);
width = 530;
},
{
anchors = (
{
name = top;
pos = (386,390);
}
);
backgroundImage = {
imagePath = "../reference/@Celes/lowercase/s.png";
locked = 1;
pos = (-10,0);
scale = (14,14);
};
layerId = m002;
shapes = (
{
closed = 1;
nodes = (
(573,-10,l),
(657,73,l),
(657,249,l),
(582,350,l),
(323,350,l),
(160,170,l),
(160,80,l),
(351,250,l),
(497,250,l),
(497,90,l),
(422,90,l),
(330,-10,l)
);
},
{
closed = 1;
nodes = (
(260,66,l),
(260,490,l),
(163,490,l),
(19,340,l),
(100,340,l),
(100,-30,l)
);
}
);
width = 690;
},
{
anchors = (
{
name = top;
pos = (442,390);
}
);
backgroundImage = {
imagePath = "../reference/@Celes/lowercase/s.png";
locked = 1;
pos = (-10,0);
scale = (14,14);
};
layerId = m004;
shapes = (
{
closed = 1;
nodes = (
(666,-10,l),
(737,60,l),
(737,248,l),
(673,325,l),
(364,325,l),
(180,200,l),
(180,130,l),
(378,255,l),
(637,255,l),
(637,60,l),
(460,60,l),
(395,-10,l)
);
},
{
closed = 1;
nodes = (
(220,30,l),
(220,490,l),
(170,490,l),
(15,370,l),
(120,370,l),
(120,-30,l)
);
}
);
width = 770;
},
{
anchors = (
{
name = top;
pos = (244,390);
}
);
backgroundImage = {
imagePath = "../reference/@Celes/lowercase/s.png";
locked = 1;
pos = (-50,0);
scale = (14,14);
};
layerId = m005;
shapes = (
{
closed = 1;
nodes = (
(387,-10,l),
(427,30,l),
(427,249,l),
(390,285,l),
(211,285,l),
(100,176,l),
(100,146,l),
(222,255,l),
(387,255,l),
(387,20,l),
(266,20,l),
(238,-10,l)
);
},
{
closed = 1;
nodes = (
(110,0,l),
(110,490,l),
(106,490,l),
(29,410,l),
(70,410,l),
(70,-30,l)
);
}
);
width = 470;
}
);
unicode = 115;
},
{
color = 3;
glyphname = germandbls;
kernLeft = LxH;
kernRight = y;
lastChange = "2024-08-27 01:42:24 +0000";
layers = (
{
layerId = m01;
shapes = (
{
closed = 1;
nodes = (
(436,-10,l),
(507,60,l),
(507,273,l),
(459,305,l),
(459,451,l),
(380,490,l),
(130,490,l),
(15,370,l),
(80,370,l),
(80,-30,l),
(180,30,l),
(180,420,l),
(359,420,l),
(359,305,l),
(294,235,l),
(407,235,l),
(407,60,l),
(310,60,l),
(245,-10,l)
);
}
);
width = 540;
},
{
layerId = m002;
shapes = (
{
closed = 1;
nodes = (
(513,-10,l),
(597,73,l),
(597,277,l),
(549,309,l),
(549,441,l),
(450,490,l),
(113,490,l),
(-31,340,l),
(50,340,l),
(50,-30,l),
(210,66,l),
(210,390,l),
(389,390,l),
(389,307,l),
(309,220,l),
(437,220,l),
(437,90,l),
(342,90,l),
(250,-10,l)
);
}
);
width = 540;
},
{
layerId = m004;
shapes = (
{
closed = 1;
nodes = (
(656,-10,l),
(727,60,l),
(727,273,l),
(639,305,l),
(639,451,l),
(560,490,l),
(170,490,l),
(15,370,l),
(120,370,l),
(120,-30,l),
(220,30,l),
(220,420,l),
(539,420,l),
(539,305,l),
(444,235,l),
(627,235,l),
(627,60,l),
(410,60,l),
(345,-10,l)
);
}
);
width = 760;
},
{
layerId = m005;
shapes = (
{
closed = 1;
nodes = (
(453,-10,l),
(487,28,l),
(487,263,l),
(429,285,l),
(429,461,l),
(389,490,l),
(146,490,l),
(69,410,l),
(110,410,l),
(110,-30,l),
(150,0,l),
(150,460,l),
(389,460,l),
(389,276,l),
(347,245,l),
(447,245,l),
(447,20,l),
(286,20,l),
(258,-10,l)
);
}
);
width = 540;
}
);
unicode = 223;
},
{
color = 1;
glyphname = t;
kernLeft = t;
kernRight = RxH;
lastChange = "2024-08-27 01:05:21 +0000";
layers = (
{
backgroundImage = {
imagePath = "../reference/@Celes/lowercase/t.png";
locked = 1;
pos = (-352,-387);
scale = (14,14);
};
layerId = m01;
shapes = (
{
closed = 1;
nodes = (
(420,-170,l),
(420,490,l),
(370,490,l),
(234,370,l),
(320,370,l),
(320,-230,l)
);
},
{
closed = 1;
nodes = (
(121,218,l),
(381,218,l),
(381,288,l),
(132,288,l),
(29,229,l),
(29,179,l)
);
}
);
width = 460;
},
{
backgroundImage = {
imagePath = "../reference/@Celes/lowercase/t.png";
locked = 1;
pos = (-322,-387);
scale = (14,14);
};
layerId = m002;
shapes = (
{
closed = 1;
nodes = (
(560,-134,l),
(560,490,l),
(464,490,l),
(294,340,l),
(400,340,l),
(400,-230,l)
);
},
{
closed = 1;
nodes = (
(160,193,l),
(521,193,l),
(521,293,l),
(151,293,l),
(29,213,l),
(29,128,l)
);
}
);
width = 600;
},
{
backgroundImage = {
imagePath = "../reference/@Celes/lowercase/t.png";
locked = 1;
pos = (-252,-387);
scale = (14,14);
};
layerId = m004;
shapes = (
{
closed = 1;
nodes = (
(620,-170,l),
(620,490,l),
(570,490,l),
(394,370,l),
(520,370,l),
(520,-230,l)
);
},
{
closed = 1;
nodes = (
(161,218,l),
(581,218,l),
(581,288,l),
(172,288,l),
(29,229,l),
(29,179,l)
);
}
);
width = 660;
},
{
backgroundImage = {
imagePath = "../reference/@Celes/lowercase/t.png";
locked = 1;
pos = (-352,-387);
scale = (14,14);
};
layerId = m005;
shapes = (
{
closed = 1;
nodes = (
(390,-200,l),
(390,490,l),
(384,490,l),
(294,410,l),
(350,410,l),
(350,-230,l)
);
},
{
closed = 1;
nodes = (
(134,238,l),
(351,238,l),
(351,268,l),
(122,268,l),
(29,211,l),
(29,185,l)
);
}
);
width = 430;
}
);
unicode = 116;
},
{
color = 1;
glyphname = u;
kernLeft = o;
kernRight = o;
lastChange = "2024-08-27 01:05:31 +0000";
layers = (
{
anchors = (
{
name = top;
pos = (327,390);
}
);
backgroundImage = {
imagePath = "../reference/@Celes/lowercase/u.png";
locked = 1;
pos = (-235,-438);
scale = (14,14);
};
layerId = m01;
shapes = (
{
closed = 1;
nodes = (
(426,-10,l),
(590,144,l),
(590,436,l),
(541,480,l),
(391,480,l),
(266,352,l),
(266,135,l),
(366,195,l),
(366,352,l),
(414,410,l),
(490,410,l),
(490,162,l),
(380,60,l),
(232,60,l),
(144,163,l),
(144,262,l),
(205,399,l),
(205,490,l),
(20,490,l),
(82,420,l),
(150,420,l),
(150,435,l),
(44,274,l),
(44,107,l),
(152,-10,l)
);
},
{
closed = 1;
nodes = (
(540,232,l),
(540,302,l),
(327,302,l),
(327,232,l)
);
}
);
width = 620;
},
{
anchors = (
{
name = top;
pos = (417,400);
}
);
backgroundImage = {
imagePath = "../reference/@Celes/lowercase/u.png";
locked = 1;
pos = (-185,-438);
scale = (14,14);
};
layerId = m002;
shapes = (
{
closed = 1;
nodes = (
(618,-10,l),
(760,106,l),
(760,438,l),
(697,480,l),
(464,480,l),
(326,354,l),
(326,139,l),
(486,235,l),
(486,351,l),
(512,380,l),
(600,380,l),
(600,164,l),
(523,90,l),
(300,90,l),
(224,164,l),
(224,314,l),
(285,386,l),
(285,490,l),
(25,490,l),
(114,390,l),
(230,390,l),
(230,429,l),
(64,275,l),
(64,79,l),
(161,-10,l)
);
},
{
closed = 1;
nodes = (
(710,197,l),
(710,297,l),
(387,297,l),
(387,197,l)
);
}
);
width = 800;
},
{
anchors = (
{
name = top;
pos = (467,390);
}
);
backgroundImage = {
imagePath = "../reference/@Celes/lowercase/u.png";
locked = 1;
pos = (-95,-438);
scale = (14,14);
};
layerId = m004;
shapes = (
{
closed = 1;
nodes = (
(642,-10,l),
(830,93,l),
(830,406,l),
(751,480,l),
(531,480,l),
(406,352,l),
(406,115,l),
(506,175,l),
(506,352,l),
(574,410,l),
(730,410,l),
(730,142,l),
(570,60,l),
(322,60,l),
(184,143,l),
(184,262,l),
(295,379,l),
(295,490,l),
(20,490,l),
(82,420,l),
(240,420,l),
(240,435,l),
(84,274,l),
(84,87,l),
(242,-10,l)
);
},
{
closed = 1;
nodes = (
(780,212,l),
(780,282,l),
(467,282,l),
(467,212,l)
);
}
);
width = 860;
},
{
anchors = (
{
name = top;
pos = (327,390);
}
);
backgroundImage = {
imagePath = "../reference/@Celes/lowercase/u.png";
locked = 1;
pos = (-235,-438);
scale = (14,14);
};
layerId = m005;
shapes = (
{
closed = 1;
nodes = (
(430,10,l),
(560,138,l),
(560,450,l),
(527,480,l),
(377,480,l),
(296,342,l),
(296,159,l),
(336,183,l),
(336,338,l),
(396,450,l),
(520,450,l),
(520,156,l),
(398,40,l),
(215,40,l),
(114,138,l),
(114,314,l),
(205,460,l),
(205,490,l),
(32,490,l),
(58,460,l),
(176,460,l),
(176,475,l),
(74,320,l),
(74,112,l),
(178,10,l)
);
},
{
closed = 1;
nodes = (
(540,243,l),
(540,273,l),
(318,273,l),
(318,243,l)
);
}
);
width = 590;
}
);
unicode = 117;
},
{
color = 1;
glyphname = v;
kernLeft = n;
kernRight = v;
lastChange = "2024-08-27 01:05:35 +0000";
layers = (
{
backgroundImage = {
imagePath = "../reference/@Celes/lowercase/v.png";
locked = 1;
pos = (-220,-432);
scale = (14,14);
};
layerId = m01;
shapes = (
{
closed = 1;
nodes = (
(610,-10,l),
(610,203,l),
(251,432,l),
(251,362,l),
(510,189,l),
(510,60,l),
(386,60,l),
(451,-10,l)
);
},
{
closed = 1;
nodes = (
(288,179,l),
(353,249,l),
(90,249,l),
(25,179,l)
);
},
{
closed = 1;
nodes = (
(264,30,l),
(264,490,l),
(214,490,l),
(99,370,l),
(164,370,l),
(164,-30,l)
);
}
);
width = 650;
},
{
backgroundImage = {
imagePath = "../reference/@Celes/lowercase/v.png";
locked = 1;
pos = (-160,-432);
scale = (14,14);
};
layerId = m002;
shapes = (
{
closed = 1;
nodes = (
(790,-10,l),
(790,207,l),
(311,459,l),
(311,362,l),
(630,182,l),
(630,90,l),
(491,90,l),
(583,-10,l)
);
},
{
closed = 1;
nodes = (
(318,164,l),
(438,264,l),
(112,264,l),
(20,164,l)
);
},
{
closed = 1;
nodes = (
(334,66,l),
(334,490,l),
(237,490,l),
(93,340,l),
(174,340,l),
(174,-30,l)
);
}
);
width = 830;
},
{
backgroundImage = {
imagePath = "../reference/@Celes/lowercase/v.png";
locked = 1;
pos = (-90,-432);
scale = (14,14);
};
layerId = m004;
shapes = (
{
closed = 1;
nodes = (
(850,-10,l),
(850,245,l),
(281,432,l),
(281,351,l),
(750,201,l),
(750,60,l),
(586,60,l),
(651,-10,l)
);
},
{
closed = 1;
nodes = (
(378,179,l),
(443,249,l),
(90,249,l),
(25,179,l)
);
},
{
closed = 1;
nodes = (
(294,30,l),
(294,490,l),
(244,490,l),
(79,370,l),
(194,370,l),
(194,-30,l)
);
}
);
width = 890;
},
{
backgroundImage = {
imagePath = "../reference/@Celes/lowercase/v.png";
locked = 1;
pos = (-270,-432);
scale = (14,14);
};
layerId = m005;
shapes = (
{
closed = 1;
nodes = (
(530,-10,l),
(530,179,l),
(176,421,l),
(176,386,l),
(490,161,l),
(490,20,l),
(349,20,l),
(377,-10,l)
);
},
{
closed = 1;
nodes = (
(262,179,l),
(290,209,l),
(56,209,l),
(28,179,l)
);
},
{
closed = 1;
nodes = (
(184,0,l),
(184,490,l),
(180,490,l),
(103,410,l),
(144,410,l),
(144,-30,l)
);
}
);
width = 570;
}
);
unicode = 118;
},
{
color = 1;
glyphname = w;
kernLeft = LxH;
kernRight = RxH;
lastChange = "2024-08-27 01:05:41 +0000";
layers = (
{
anchors = (
{
name = top;
pos = (390,390);
}
);
backgroundImage = {
imagePath = "../reference/@Celes/lowercase/w.png";
locked = 1;
pos = (20,0);
scale = (14,14);
};
layerId = m01;
shapes = (
{
closed = 1;
nodes = (
(617,-15,l),
(682,45,l),
(682,490,l),
(632,490,l),
(517,370,l),
(582,370,l),
(582,55,l),
(494,55,l),
(559,-15,l)
);
},
{
closed = 1;
nodes = (
(190,30,l),
(190,490,l),
(140,490,l),
(25,370,l),
(90,370,l),
(90,-30,l)
);
},
{
closed = 1;
nodes = (
(372,-15,l),
(437,45,l),
(437,490,l),
(387,490,l),
(272,370,l),
(337,370,l),
(337,55,l),
(249,55,l),
(314,-15,l)
);
}
);
width = 730;
},
{
anchors = (
{
name = top;
pos = (470,400);
}
);
backgroundImage = {
imagePath = "../reference/@Celes/lowercase/w.png";
locked = 1;
pos = (70,0);
scale = (14,14);
};
layerId = m002;
shapes = (
{
closed = 1;
nodes = (
(733,-20,l),
(812,53,l),
(812,490,l),
(715,490,l),
(571,340,l),
(652,340,l),
(652,80,l),
(549,80,l),
(641,-20,l)
);
},
{
closed = 1;
nodes = (
(270,66,l),
(270,490,l),
(173,490,l),
(29,340,l),
(110,340,l),
(110,-30,l)
);
},
{
closed = 1;
nodes = (
(458,-20,l),
(537,53,l),
(537,490,l),
(440,490,l),
(296,340,l),
(377,340,l),
(377,80,l),
(274,80,l),
(366,-20,l)
);
}
);
width = 870;
},
{
anchors = (
{
name = top;
pos = (510,390);
}
);
backgroundImage = {
imagePath = "../reference/@Celes/lowercase/w.png";
locked = 1;
pos = (140,0);
scale = (14,14);
};
layerId = m004;
shapes = (
{
closed = 1;
nodes = (
(827,-15,l),
(892,45,l),
(892,490,l),
(842,490,l),
(687,370,l),
(792,370,l),
(792,55,l),
(664,55,l),
(729,-15,l)
);
},
{
closed = 1;
nodes = (
(230,30,l),
(230,490,l),
(180,490,l),
(25,370,l),
(130,370,l),
(130,-30,l)
);
},
{
closed = 1;
nodes = (
(492,-15,l),
(557,45,l),
(557,490,l),
(507,490,l),
(352,370,l),
(457,370,l),
(457,55,l),
(329,55,l),
(394,-15,l)
);
}
);
width = 930;
},
{
anchors = (
{
name = top;
pos = (350,390);
}
);
backgroundImage = {
imagePath = "../reference/@Celes/lowercase/w.png";
locked = 1;
pos = (-20,0);
scale = (14,14);
};
layerId = m005;
shapes = (
{
closed = 1;
nodes = (
(572,-15,l),
(612,21,l),
(612,490,l),
(608,490,l),
(521,410,l),
(572,410,l),
(572,15,l),
(477,15,l),
(505,-15,l)
);
},
{
closed = 1;
nodes = (
(120,0,l),
(120,490,l),
(116,490,l),
(29,410,l),
(80,410,l),
(80,-30,l)
);
},
{
closed = 1;
nodes = (
(327,-15,l),
(367,21,l),
(367,490,l),
(363,490,l),
(276,410,l),
(327,410,l),
(327,15,l),
(242,15,l),
(270,-15,l)
);
}
);
width = 670;
}
);
unicode = 119;
},
{
glyphname = x;
kernLeft = x;
kernRight = x;
lastChange = "2024-08-27 01:05:46 +0000";
layers = (
{
backgroundImage = {
imagePath = "../reference/@Celes/lowercase/x.png";
locked = 1;
pos = (-324,-423);
scale = (14,14);
};
layerId = m01;
shapes = (
{
closed = 1;
nodes = (
(441,-10,l),
(500,60,l),
(399,60,l),
(156,490,l),
(41,490,l),
(321,-10,l)
);
},
{
closed = 1;
nodes = (
(86,-13,l),
(206,87,l),
(36,87,l),
(36,-13,l)
);
}
);
width = 520;
},
{
backgroundImage = {
imagePath = "../reference/@Celes/lowercase/x.png";
locked = 1;
pos = (-294,-423);
scale = (14,14);
};
layerId = m002;
shapes = (
{
closed = 1;
nodes = (
(539,-10,l),
(624,90,l),
(501,90,l),
(218,490,l),
(42,490,l),
(379,-10,l)
);
},
{
closed = 1;
nodes = (
(171,-13,l),
(327,117,l),
(36,117,l),
(36,-13,l)
);
}
);
width = 650;
},
{
backgroundImage = {
imagePath = "../reference/@Celes/lowercase/x.png";
locked = 1;
pos = (-224,-423);
scale = (14,14);
};
layerId = m004;
shapes = (
{
closed = 1;
nodes = (
(641,-10,l),
(700,60,l),
(599,60,l),
(156,490,l),
(41,490,l),
(521,-10,l)
);
},
{
closed = 1;
nodes = (
(146,-13,l),
(286,87,l),
(36,87,l),
(36,-13,l)
);
}
);
width = 720;
},
{
backgroundImage = {
imagePath = "../reference/@Celes/lowercase/x.png";
locked = 1;
pos = (-324,-423);
scale = (14,14);
};
layerId = m005;
shapes = (
{
closed = 1;
nodes = (
(454,-10,l),
(486,30,l),
(367,30,l),
(112,490,l),
(64,490,l),
(341,-10,l)
);
},
{
closed = 1;
nodes = (
(64,-13,l),
(194,47,l),
(36,47,l),
(36,-13,l)
);
}
);
width = 520;
}
);
unicode = 120;
},
{
color = 1;
glyphname = y;
kernLeft = LxD;
kernRight = y;
lastChange = "2024-08-27 01:05:52 +0000";
layers = (
{
anchors = (
{
name = top;
pos = (295,390);
}
);
backgroundImage = {
imagePath = "../reference/@Celes/lowercase/y.png";
locked = 1;
pos = (10,0);
scale = (14,14);
};
layerId = m01;
shapes = (
{
closed = 1;
nodes = (
(430,-10,l),
(530,57,l),
(530,208,l),
(190,408,l),
(190,358,l),
(430,206,l),
(430,108,l),
(368,60,l),
(262,97,l),
(262,47,l),
(386,-10,l)
);
},
{
closed = 1;
nodes = (
(201,-170,l),
(201,490,l),
(151,490,l),
(15,370,l),
(101,370,l),
(101,-230,l)
);
},
{
closed = 1;
nodes = (
(525,326,l),
(525,451,l),
(446,490,l),
(373,490,l),
(296,420,l),
(425,420,l),
(425,310,l),
(390,264,l),
(390,237,l)
);
}
);
width = 560;
},
{
anchors = (
{
name = top;
pos = (385,400);
}
);
backgroundImage = {
imagePath = "../reference/@Celes/lowercase/y.png";
locked = 1;
pos = (60,0);
scale = (14,14);
};
layerId = m002;
shapes = (
{
closed = 1;
nodes = (
(604,-10,l),
(700,42,l),
(700,212,l),
(210,428,l),
(210,334,l),
(540,202,l),
(540,136,l),
(540,95,l),
(352,155,l),
(352,71,l),
(516,-10,l)
);
},
{
closed = 1;
nodes = (
(281,-134,l),
(281,490,l),
(185,490,l),
(15,340,l),
(121,340,l),
(121,-230,l)
);
},
{
closed = 1;
nodes = (
(695,342,l),
(695,442,l),
(596,491,l),
(497,491,l),
(387,391,l),
(535,391,l),
(535,334,l),
(500,277,l),
(500,234,l)
);
}
);
width = 730;
},
{
anchors = (
{
name = top;
pos = (435,390);
}
);
backgroundImage = {
imagePath = "../reference/@Celes/lowercase/y.png";
locked = 1;
pos = (150,0);
scale = (14,14);
};
layerId = m004;
shapes = (
{
closed = 1;
nodes = (
(670,-10,l),
(770,57,l),
(770,187,l),
(230,396,l),
(230,331,l),
(670,161,l),
(670,60,l),
(521,60,l),
(372,120,l),
(372,70,l),
(498,-10,l)
);
},
{
closed = 1;
nodes = (
(241,-170,l),
(241,490,l),
(191,490,l),
(15,370,l),
(141,370,l),
(141,-230,l)
);
},
{
closed = 1;
nodes = (
(765,334,l),
(765,451,l),
(686,490,l),
(513,490,l),
(436,420,l),
(665,420,l),
(665,343,l),
(530,265,l),
(530,227,l)
);
}
);
width = 800;
},
{
anchors = (
{
name = top;
pos = (255,390);
}
);
backgroundImage = {
imagePath = "../reference/@Celes/lowercase/y.png";
locked = 1;
pos = (20,0);
scale = (14,14);
};
layerId = m005;
shapes = (
{
closed = 1;
nodes = (
(387,-10,l),
(480,55,l),
(480,189,l),
(121,411,l),
(121,381,l),
(440,178,l),
(440,76,l),
(352,16,l),
(223,83,l),
(223,58,l),
(329,-10,l)
);
},
{
closed = 1;
nodes = (
(131,-200,l),
(131,490,l),
(125,490,l),
(35,410,l),
(91,410,l),
(91,-230,l)
);
},
{
closed = 1;
nodes = (
(465,312,l),
(465,461,l),
(422,490,l),
(297,490,l),
(264,460,l),
(425,460,l),
(425,318,l),
(347,263,l),
(347,247,l)
);
}
);
width = 510;
}
);
unicode = 121;
},
{
glyphname = z;
kernLeft = z;
kernRight = z;
lastChange = "2024-08-27 01:05:53 +0000";
layers = (
{
anchors = (
{
name = top;
pos = (317,390);
}
);
layerId = m01;
shapes = (
{
closed = 1;
nodes = (
(566,480,l),
(144,480,l),
(79,410,l),
(444,410,l),
(191,60,l),
(127,60,l),
(127,216,l),
(182,259,l),
(403,259,l),
(403,31,l),
(503,31,l),
(503,259,l),
(402,329,l),
(181,329,l),
(27,216,l),
(27,51,l),
(100,-10,l),
(212,-10,l)
);
},
{
closed = 1;
nodes = (
(538,0,l),
(603,70,l),
(355,70,l),
(290,0,l)
);
}
);
width = 620;
},
{
anchors = (
{
name = top;
pos = (390,390);
}
);
layerId = m002;
shapes = (
{
closed = 1;
nodes = (
(678,480,l),
(156,480,l),
(64,380,l),
(472,380,l),
(241,90,l),
(187,90,l),
(187,244,l),
(210,244,l),
(493,244,l),
(493,31,l),
(653,31,l),
(653,262,l),
(535,344,l),
(197,344,l),
(27,219,l),
(27,48,l),
(115,-10,l),
(315,-10,l)
);
},
{
closed = 1;
nodes = (
(676,0,l),
(768,100,l),
(497,100,l),
(405,0,l)
);
}
);
width = 790;
},
{
anchors = (
{
name = top;
pos = (434,390);
}
);
layerId = m004;
shapes = (
{
closed = 1;
nodes = (
(776,480,l),
(144,480,l),
(79,410,l),
(624,410,l),
(271,60,l),
(127,60,l),
(127,216,l),
(182,259,l),
(583,259,l),
(583,31,l),
(683,31,l),
(683,259,l),
(582,329,l),
(167,329,l),
(27,232,l),
(27,51,l),
(100,-10,l),
(292,-10,l)
);
},
{
closed = 1;
nodes = (
(748,0,l),
(813,70,l),
(475,70,l),
(410,0,l)
);
}
);
width = 830;
},
{
anchors = (
{
name = top;
pos = (317,390);
}
);
layerId = m005;
shapes = (
{
closed = 1;
nodes = (
(577,460,l),
(110,460,l),
(82,430,l),
(519,430,l),
(209,20,l),
(97,20,l),
(97,210,l),
(161,259,l),
(433,259,l),
(433,20,l),
(473,20,l),
(473,256,l),
(440,289,l),
(147,289,l),
(57,218,l),
(57,22,l),
(90,-10,l),
(224,-10,l)
);
},
{
closed = 1;
nodes = (
(562,0,l),
(590,30,l),
(341,30,l),
(313,0,l)
);
}
);
width = 620;
}
);
unicode = 122;
},
{
glyphname = zero;
lastChange = "2024-08-27 02:38:52 +0000";
layers = (
{
layerId = m01;
shapes = (
{
closed = 1;
nodes = (
(237,313,l),
(302,383,l),
(74,383,l),
(74,313,l)
);
},
{
alignment = -1;
ref = O;
}
);
width = 490;
},
{
layerId = m002;
shapes = (
{
closed = 1;
nodes = (
(275,298,l),
(367,398,l),
(64,398,l),
(64,298,l)
);
},
{
alignment = -1;
ref = O;
}
);
width = 590;
},
{
layerId = m004;
shapes = (
{
closed = 1;
nodes = (
(337,313,l),
(402,383,l),
(74,383,l),
(74,313,l)
);
},
{
alignment = -1;
ref = O;
}
);
width = 670;
},
{
layerId = m005;
shapes = (
{
closed = 1;
nodes = (
(241,333,l),
(269,363,l),
(64,363,l),
(64,333,l)
);
},
{
alignment = -1;
ref = O;
}
);
width = 410;
}
);
unicode = 48;
},
{
glyphname = one;
lastChange = "2024-08-27 02:42:39 +0000";
layers = (
{
layerId = m01;
shapes = (
{
closed = 1;
nodes = (
(50,-200,l),
(201,28,l),
(201,699,l),
(151,699,l),
(15,579,l),
(101,579,l),
(101,0,l),
(0,-200,l)
);
},
{
closed = 1;
nodes = (
(503,366,l),
(394,480,l),
(183,480,l),
(183,410,l),
(376,410,l),
(503,316,l)
);
}
);
width = 530;
},
{
layerId = m002;
shapes = (
{
closed = 1;
nodes = (
(111,-200,l),
(271,0,l),
(271,700,l),
(175,700,l),
(5,550,l),
(111,550,l),
(111,0,l),
(2,-200,l)
);
},
{
closed = 1;
nodes = (
(613,388,l),
(491,495,l),
(193,495,l),
(193,395,l),
(442,395,l),
(613,289,l)
);
}
);
width = 640;
},
{
layerId = m004;
shapes = (
{
closed = 1;
nodes = (
(80,-200,l),
(231,28,l),
(231,699,l),
(181,699,l),
(5,579,l),
(131,579,l),
(131,0,l),
(30,-200,l)
);
},
{
closed = 1;
nodes = (
(733,366,l),
(564,480,l),
(213,480,l),
(213,410,l),
(546,410,l),
(733,316,l)
);
}
);
width = 760;
},
{
layerId = m005;
shapes = (
{
closed = 1;
nodes = (
(28,-200,l),
(161,-11,l),
(161,700,l),
(155,700,l),
(65,620,l),
(121,620,l),
(121,0,l),
(3,-200,l)
);
},
{
closed = 1;
nodes = (
(493,392,l),
(395,460,l),
(134,460,l),
(134,430,l),
(379,430,l),
(493,367,l)
);
}
);
width = 520;
}
);
unicode = 49;
},
{
glyphname = two;
lastChange = "2024-08-27 02:42:35 +0000";
layers = (
{
layerId = m01;
shapes = (
{
closed = 1;
nodes = (
(320,243,l),
(385,313,l),
(157,313,l),
(157,243,l)
);
},
{
alignment = -1;
ref = one;
}
);
width = 530;
},
{
layerId = m002;
shapes = (
{
closed = 1;
nodes = (
(378,228,l),
(470,328,l),
(167,328,l),
(167,228,l)
);
},
{
alignment = -1;
ref = one;
}
);
width = 640;
},
{
layerId = m004;
shapes = (
{
closed = 1;
nodes = (
(420,243,l),
(485,313,l),
(157,313,l),
(157,243,l)
);
},
{
alignment = -1;
ref = one;
}
);
width = 760;
},
{
layerId = m005;
shapes = (
{
closed = 1;
nodes = (
(344,263,l),
(372,293,l),
(147,293,l),
(147,263,l)
);
},
{
alignment = -1;
ref = one;
}
);
width = 520;
}
);
unicode = 50;
},
{
glyphname = three;
lastChange = "2024-08-27 02:42:45 +0000";
layers = (
{
layerId = m01;
shapes = (
{
closed = 1;
nodes = (
(320,253,l),
(385,323,l),
(157,323,l),
(157,253,l)
);
},
{
alignment = -1;
ref = one;
},
{
closed = 1;
nodes = (
(320,103,l),
(385,173,l),
(157,173,l),
(157,103,l)
);
}
);
width = 530;
},
{
layerId = m002;
shapes = (
{
closed = 1;
nodes = (
(378,228,l),
(470,328,l),
(167,328,l),
(167,228,l)
);
},
{
alignment = -1;
ref = one;
},
{
closed = 1;
nodes = (
(378,78,l),
(470,178,l),
(167,178,l),
(167,78,l)
);
}
);
width = 640;
},
{
layerId = m004;
shapes = (
{
closed = 1;
nodes = (
(420,253,l),
(485,323,l),
(157,323,l),
(157,253,l)
);
},
{
alignment = -1;
ref = one;
},
{
closed = 1;
nodes = (
(420,103,l),
(485,173,l),
(157,173,l),
(157,103,l)
);
}
);
width = 760;
},
{
layerId = m005;
shapes = (
{
closed = 1;
nodes = (
(344,273,l),
(372,303,l),
(147,303,l),
(147,273,l)
);
},
{
alignment = -1;
ref = one;
},
{
closed = 1;
nodes = (
(344,123,l),
(372,153,l),
(147,153,l),
(147,123,l)
);
}
);
width = 520;
}
);
unicode = 51;
},
{
glyphname = four;
lastChange = "2024-08-27 02:43:54 +0000";
layers = (
{
layerId = m01;
shapes = (
{
closed = 1;
nodes = (
(456,0,l),
(521,70,l),
(316,700,l),
(126,700,l),
(26,554,l),
(26,408,l),
(126,468,l),
(126,630,l),
(244,630,l),
(413,70,l),
(113,70,l),
(48,0,l)
);
},
{
closed = 1;
nodes = (
(484,299,l),
(549,369,l),
(245,369,l),
(180,299,l)
);
}
);
width = 570;
},
{
layerId = m002;
shapes = (
{
closed = 1;
nodes = (
(544,0,l),
(621,84,l),
(411,700,l),
(136,700,l),
(26,540,l),
(26,353,l),
(186,464,l),
(186,600,l),
(288,600,l),
(448,100,l),
(125,100,l),
(33,0,l)
);
},
{
closed = 1;
nodes = (
(572,284,l),
(664,384,l),
(297,384,l),
(205,284,l)
);
}
);
width = 690;
},
{
layerId = m004;
shapes = (
{
closed = 1;
nodes = (
(656,0,l),
(721,70,l),
(376,700,l),
(166,700,l),
(66,596,l),
(66,362,l),
(166,422,l),
(166,630,l),
(304,630,l),
(613,70,l),
(123,70,l),
(58,0,l)
);
},
{
closed = 1;
nodes = (
(704,299,l),
(769,369,l),
(325,369,l),
(260,299,l)
);
}
);
width = 790;
},
{
layerId = m005;
shapes = (
{
closed = 1;
nodes = (
(426,0,l),
(465,34,l),
(242,700,l),
(71,700,l),
(26,650,l),
(26,483,l),
(66,507,l),
(66,670,l),
(209,670,l),
(420,30,l),
(99,30,l),
(71,0,l)
);
},
{
closed = 1;
nodes = (
(468,319,l),
(496,349,l),
(181,349,l),
(153,319,l)
);
}
);
width = 530;
}
);
unicode = 52;
},
{
glyphname = five;
lastChange = "2024-08-27 02:43:05 +0000";
layers = (
{
layerId = m01;
shapes = (
{
closed = 1;
nodes = (
(75,-10,l),
(407,358,l),
(357,358,l),
(25,110,l),
(25,-10,l)
);
},
{
closed = 1;
nodes = (
(440,30,l),
(440,700,l),
(390,700,l),
(250,580,l),
(340,580,l),
(340,-30,l)
);
}
);
width = 480;
},
{
layerId = m002;
shapes = (
{
closed = 1;
nodes = (
(123,-10,l),
(542,373,l),
(433,373,l),
(25,128,l),
(25,-10,l)
);
},
{
closed = 1;
nodes = (
(560,66,l),
(560,700,l),
(465,700,l),
(290,550,l),
(400,550,l),
(400,-30,l)
);
}
);
width = 600;
},
{
layerId = m004;
shapes = (
{
closed = 1;
nodes = (
(125,-10,l),
(617,368,l),
(567,398,l),
(25,80,l),
(25,-10,l)
);
},
{
closed = 1;
nodes = (
(640,30,l),
(640,700,l),
(590,700,l),
(410,580,l),
(540,580,l),
(540,-30,l)
);
}
);
width = 680;
},
{
layerId = m005;
shapes = (
{
closed = 1;
nodes = (
(48,-10,l),
(394,338,l),
(363,338,l),
(25,47,l),
(25,-10,l)
);
},
{
closed = 1;
nodes = (
(400,0,l),
(400,700,l),
(394,700,l),
(301,620,l),
(360,620,l),
(360,-30,l)
);
}
);
width = 440;
}
);
unicode = 53;
},
{
glyphname = six;
lastChange = "2024-08-27 02:43:48 +0000";
layers = (
{
layerId = m01;
shapes = (
{
closed = 1;
nodes = (
(481,0,l),
(546,70,l),
(164,70,l),
(355,630,l),
(433,630,l),
(433,438,l),
(533,498,l),
(533,640,l),
(475,700,l),
(283,700,l),
(33,-1,l)
);
},
{
closed = 1;
nodes = (
(326,299,l),
(391,369,l),
(87,369,l),
(22,299,l)
);
}
);
width = 580;
},
{
layerId = m002;
shapes = (
{
closed = 1;
nodes = (
(589,0,l),
(681,100,l),
(249,100,l),
(430,600,l),
(513,600,l),
(513,398,l),
(673,494,l),
(673,627,l),
(602,700,l),
(308,700,l),
(48,-1,l)
);
},
{
closed = 1;
nodes = (
(404,284,l),
(496,384,l),
(119,384,l),
(27,284,l)
);
}
);
width = 720;
},
{
layerId = m004;
shapes = (
{
closed = 1;
nodes = (
(701,0,l),
(766,70,l),
(194,70,l),
(485,630,l),
(603,630,l),
(603,438,l),
(703,498,l),
(703,640,l),
(645,700,l),
(413,700,l),
(63,-1,l)
);
},
{
closed = 1;
nodes = (
(516,299,l),
(581,369,l),
(137,369,l),
(72,299,l)
);
}
);
width = 800;
},
{
layerId = m005;
shapes = (
{
closed = 1;
nodes = (
(425,0,l),
(453,30,l),
(87,30,l),
(301,670,l),
(423,670,l),
(423,482,l),
(463,506,l),
(463,668,l),
(429,700,l),
(277,700,l),
(31,-1,l)
);
},
{
closed = 1;
nodes = (
(320,319,l),
(348,349,l),
(63,349,l),
(35,319,l)
);
}
);
width = 500;
}
);
unicode = 54;
},
{
glyphname = seven;
lastChange = "2024-08-27 02:46:02 +0000";
layers = (
{
layerId = m01;
shapes = (
{
closed = 1;
nodes = (
(225,30,l),
(225,700,l),
(175,700,l),
(15,580,l),
(125,580,l),
(125,-30,l)
);
},
{
closed = 1;
nodes = (
(412,-10,l),
(548,82,l),
(548,326,l),
(466,378,l),
(353,378,l),
(288,308,l),
(448,308,l),
(448,60,l),
(352,60,l),
(218,251,l),
(168,251,l),
(168,201,l),
(310,-10,l)
);
}
);
width = 570;
},
{
layerId = m002;
shapes = (
{
closed = 1;
nodes = (
(315,66,l),
(315,700,l),
(221,700,l),
(21,550,l),
(155,550,l),
(155,-30,l)
);
},
{
closed = 1;
nodes = (
(545,-10,l),
(698,78,l),
(698,330,l),
(598,393,l),
(445,393,l),
(353,293,l),
(538,293,l),
(538,90,l),
(403,90,l),
(262,266,l),
(198,266,l),
(198,200,l),
(350,-10,l)
);
}
);
width = 720;
},
{
layerId = m004;
shapes = (
{
closed = 1;
nodes = (
(265,30,l),
(265,700,l),
(215,700,l),
(15,580,l),
(165,580,l),
(165,-30,l)
);
},
{
closed = 1;
nodes = (
(652,-10,l),
(788,82,l),
(788,326,l),
(706,378,l),
(443,378,l),
(378,308,l),
(688,308,l),
(688,60,l),
(432,60,l),
(258,251,l),
(208,251,l),
(208,201,l),
(390,-10,l)
);
}
);
width = 810;
},
{
layerId = m005;
shapes = (
{
closed = 1;
nodes = (
(135,0,l),
(135,700,l),
(128,700,l),
(21,620,l),
(95,620,l),
(95,-30,l)
);
},
{
closed = 1;
nodes = (
(419,-10,l),
(458,28,l),
(458,298,l),
(419,338,l),
(259,338,l),
(231,308,l),
(418,308,l),
(418,20,l),
(279,20,l),
(127,231,l),
(113,231,l),
(113,195,l),
(261,-10,l)
);
}
);
width = 490;
}
);
unicode = 55;
},
{
glyphname = eight;
lastChange = "2024-08-27 02:46:00 +0000";
layers = (
{
layerId = m01;
shapes = (
{
closed = 1;
nodes = (
(243,359,l),
(243,429,l),
(82,429,l),
(17,359,l)
);
},
{
alignment = -1;
pos = (70,0);
ref = seven;
}
);
width = 640;
},
{
layerId = m002;
shapes = (
{
closed = 1;
nodes = (
(323,344,l),
(323,444,l),
(114,444,l),
(22,344,l)
);
},
{
alignment = -1;
pos = (120,0);
ref = seven;
}
);
width = 840;
},
{
layerId = m004;
shapes = (
{
closed = 1;
nodes = (
(303,359,l),
(303,429,l),
(82,429,l),
(17,359,l)
);
},
{
alignment = -1;
pos = (110,0);
ref = seven;
}
);
width = 920;
},
{
layerId = m005;
shapes = (
{
closed = 1;
nodes = (
(183,379,l),
(183,409,l),
(58,409,l),
(30,379,l)
);
},
{
alignment = -1;
pos = (70,0);
ref = seven;
}
);
width = 560;
}
);
unicode = 56;
},
{
glyphname = nine;
lastChange = "2024-08-27 02:46:05 +0000";
layers = (
{
layerId = m01;
shapes = (
{
closed = 1;
nodes = (
(253,359,l),
(253,429,l),
(92,429,l),
(27,359,l)
);
},
{
closed = 1;
nodes = (
(253,202,l),
(253,272,l),
(92,272,l),
(27,202,l)
);
},
{
alignment = -1;
pos = (80,0);
ref = seven;
}
);
width = 650;
},
{
layerId = m002;
shapes = (
{
closed = 1;
nodes = (
(323,344,l),
(323,444,l),
(114,444,l),
(22,344,l)
);
},
{
closed = 1;
nodes = (
(323,187,l),
(323,287,l),
(114,287,l),
(22,187,l)
);
},
{
alignment = -1;
pos = (120,0);
ref = seven;
}
);
width = 840;
},
{
layerId = m004;
shapes = (
{
closed = 1;
nodes = (
(303,359,l),
(303,429,l),
(82,429,l),
(17,359,l)
);
},
{
closed = 1;
nodes = (
(303,202,l),
(303,272,l),
(82,272,l),
(17,202,l)
);
},
{
alignment = -1;
pos = (110,0);
ref = seven;
}
);
width = 920;
},
{
layerId = m005;
shapes = (
{
closed = 1;
nodes = (
(183,379,l),
(183,409,l),
(58,409,l),
(30,379,l)
);
},
{
closed = 1;
nodes = (
(183,222,l),
(183,252,l),
(58,252,l),
(30,222,l)
);
},
{
alignment = -1;
pos = (70,0);
ref = seven;
}
);
width = 560;
}
);
unicode = 57;
},
{
glyphname = zero.osf;
lastChange = "2024-08-27 02:58:11 +0000";
layers = (
{
layerId = m01;
shapes = (
{
closed = 1;
nodes = (
(267,212,l),
(332,282,l),
(104,282,l),
(104,212,l)
);
},
{
ref = o;
}
);
width = 530;
},
{
layerId = m002;
shapes = (
{
closed = 1;
nodes = (
(295,177,l),
(387,277,l),
(84,277,l),
(84,177,l)
);
},
{
ref = o;
}
);
width = 630;
},
{
layerId = m004;
shapes = (
{
closed = 1;
nodes = (
(387,212,l),
(452,282,l),
(104,282,l),
(104,212,l)
);
},
{
ref = o;
}
);
width = 740;
},
{
layerId = m005;
shapes = (
{
closed = 1;
nodes = (
(271,232,l),
(299,262,l),
(64,262,l),
(64,232,l)
);
},
{
ref = o;
}
);
width = 470;
}
);
},
{
glyphname = one.osf;
lastChange = "2024-08-27 02:59:13 +0000";
layers = (
{
layerId = m01;
shapes = (
{
closed = 1;
nodes = (
(50,-200,l),
(201,10,l),
(201,490,l),
(151,490,l),
(15,370,l),
(101,370,l),
(101,-20,l),
(0,-200,l)
);
},
{
closed = 1;
nodes = (
(463,263,l),
(364,365,l),
(183,365,l),
(183,295,l),
(346,295,l),
(463,213,l)
);
}
);
width = 490;
},
{
layerId = m002;
shapes = (
{
closed = 1;
nodes = (
(110,-200,l),
(271,19,l),
(271,490,l),
(175,490,l),
(5,340,l),
(111,340,l),
(111,-9,l),
(1,-200,l)
);
},
{
closed = 1;
nodes = (
(593,285,l),
(491,380,l),
(193,380,l),
(193,280,l),
(443,280,l),
(593,188,l)
);
}
);
width = 620;
},
{
layerId = m004;
shapes = (
{
closed = 1;
nodes = (
(80,-200,l),
(231,10,l),
(231,490,l),
(181,490,l),
(5,370,l),
(131,370,l),
(131,-20,l),
(30,-200,l)
);
},
{
closed = 1;
nodes = (
(693,243,l),
(524,365,l),
(213,365,l),
(213,295,l),
(506,295,l),
(693,193,l)
);
}
);
width = 720;
},
{
layerId = m005;
shapes = (
{
closed = 1;
nodes = (
(30,-200,l),
(171,0,l),
(171,490,l),
(165,490,l),
(75,410,l),
(131,410,l),
(131,10,l),
(5,-200,l)
);
},
{
closed = 1;
nodes = (
(463,260,l),
(373,345,l),
(153,345,l),
(153,315,l),
(358,315,l),
(463,235,l)
);
}
);
width = 490;
}
);
},
{
glyphname = two.osf;
lastChange = "2024-08-27 02:59:27 +0000";
layers = (
{
layerId = m01;
shapes = (
{
closed = 1;
nodes = (
(320,141,l),
(385,211,l),
(157,211,l),
(157,141,l)
);
},
{
alignment = -1;
ref = one.osf;
}
);
width = 490;
},
{
layerId = m002;
shapes = (
{
closed = 1;
nodes = (
(368,116,l),
(460,216,l),
(157,216,l),
(157,116,l)
);
},
{
alignment = -1;
ref = one.osf;
}
);
width = 620;
},
{
layerId = m004;
shapes = (
{
closed = 1;
nodes = (
(420,141,l),
(485,211,l),
(157,211,l),
(157,141,l)
);
},
{
alignment = -1;
ref = one.osf;
}
);
width = 720;
},
{
layerId = m005;
shapes = (
{
closed = 1;
nodes = (
(334,161,l),
(362,191,l),
(157,191,l),
(157,161,l)
);
},
{
alignment = -1;
ref = one.osf;
}
);
width = 490;
}
);
},
{
glyphname = three.osf;
lastChange = "2024-08-27 02:59:40 +0000";
layers = (
{
layerId = m01;
shapes = (
{
closed = 1;
nodes = (
(320,148,l),
(385,218,l),
(157,218,l),
(157,148,l)
);
},
{
alignment = -1;
ref = one.osf;
},
{
closed = 1;
nodes = (
(320,0,l),
(385,70,l),
(157,70,l),
(157,0,l)
);
}
);
width = 490;
},
{
layerId = m002;
shapes = (
{
closed = 1;
nodes = (
(368,123,l),
(460,223,l),
(157,223,l),
(157,123,l)
);
},
{
alignment = -1;
ref = one.osf;
},
{
closed = 1;
nodes = (
(368,-25,l),
(460,75,l),
(157,75,l),
(157,-25,l)
);
}
);
width = 620;
},
{
layerId = m004;
shapes = (
{
closed = 1;
nodes = (
(420,148,l),
(485,218,l),
(157,218,l),
(157,148,l)
);
},
{
alignment = -1;
ref = one.osf;
},
{
closed = 1;
nodes = (
(420,0,l),
(485,70,l),
(157,70,l),
(157,0,l)
);
}
);
width = 720;
},
{
layerId = m005;
shapes = (
{
closed = 1;
nodes = (
(334,188,l),
(362,218,l),
(157,218,l),
(157,188,l)
);
},
{
alignment = -1;
ref = one.osf;
},
{
closed = 1;
nodes = (
(334,50,l),
(362,80,l),
(157,80,l),
(157,50,l)
);
}
);
width = 490;
}
);
},
{
glyphname = four.osf;
lastChange = "2024-08-27 03:00:25 +0000";
layers = (
{
layerId = m01;
shapes = (
{
closed = 1;
nodes = (
(436,0,l),
(501,70,l),
(296,490,l),
(136,490,l),
(26,349,l),
(126,289,l),
(126,420,l),
(229,420,l),
(398,70,l),
(113,70,l),
(48,0,l)
);
},
{
closed = 1;
nodes = (
(464,197,l),
(529,267,l),
(245,267,l),
(180,197,l)
);
}
);
width = 550;
},
{
layerId = m002;
shapes = (
{
closed = 1;
nodes = (
(544,0,l),
(622,84,l),
(409,490,l),
(147,490,l),
(23,347,l),
(186,249,l),
(186,390,l),
(296,390,l),
(451,100,l),
(125,100,l),
(33,0,l)
);
},
{
closed = 1;
nodes = (
(622,182,l),
(714,282,l),
(307,282,l),
(215,182,l)
);
}
);
width = 740;
},
{
layerId = m004;
shapes = (
{
closed = 1;
nodes = (
(596,0,l),
(661,70,l),
(376,490,l),
(156,490,l),
(46,349,l),
(146,289,l),
(146,420,l),
(309,420,l),
(558,70,l),
(93,70,l),
(28,0,l)
);
},
{
closed = 1;
nodes = (
(664,197,l),
(729,267,l),
(315,267,l),
(250,197,l)
);
}
);
width = 750;
},
{
layerId = m005;
shapes = (
{
closed = 1;
nodes = (
(409,0,l),
(438,30,l),
(255,490,l),
(81,490,l),
(29,435,l),
(76,397,l),
(76,460,l),
(231,460,l),
(399,30,l),
(89,30,l),
(61,0,l)
);
},
{
closed = 1;
nodes = (
(428,217,l),
(456,247,l),
(191,247,l),
(163,217,l)
);
}
);
width = 470;
}
);
},
{
glyphname = five.osf;
lastChange = "2024-08-27 03:01:25 +0000";
layers = (
{
layerId = m01;
shapes = (
{
closed = 1;
nodes = (
(380,30,l),
(380,490,l),
(330,490,l),
(190,370,l),
(280,370,l),
(280,-30,l)
);
},
{
closed = 1;
nodes = (
(75,-10,l),
(243,110,l),
(25,110,l),
(25,-10,l)
);
}
);
width = 420;
},
{
layerId = m002;
shapes = (
{
closed = 1;
nodes = (
(510,66,l),
(510,490,l),
(415,490,l),
(240,340,l),
(350,340,l),
(350,-30,l)
);
},
{
closed = 1;
nodes = (
(119,-25,l),
(319,125,l),
(25,125,l),
(25,-25,l)
);
}
);
width = 550;
},
{
layerId = m004;
shapes = (
{
closed = 1;
nodes = (
(560,30,l),
(560,490,l),
(510,490,l),
(330,370,l),
(460,370,l),
(460,-30,l)
);
},
{
closed = 1;
nodes = (
(115,-10,l),
(383,110,l),
(25,110,l),
(25,-10,l)
);
}
);
width = 600;
},
{
layerId = m005;
shapes = (
{
closed = 1;
nodes = (
(350,0,l),
(350,490,l),
(344,490,l),
(251,410,l),
(310,410,l),
(310,-30,l)
);
},
{
closed = 1;
nodes = (
(43,-10,l),
(235,50,l),
(25,50,l),
(25,-10,l)
);
}
);
width = 390;
}
);
},
{
glyphname = six.osf;
lastChange = "2024-08-27 03:02:31 +0000";
layers = (
{
layerId = m01;
shapes = (
{
closed = 1;
nodes = (
(421,0,l),
(486,70,l),
(169,70,l),
(320,420,l),
(403,420,l),
(403,318,l),
(503,387,l),
(387,490,l),
(253,490,l),
(43,-1,l)
);
},
{
closed = 1;
nodes = (
(303,197,l),
(368,267,l),
(84,267,l),
(19,197,l)
);
}
);
width = 530;
},
{
layerId = m002;
shapes = (
{
closed = 1;
nodes = (
(529,0,l),
(621,100,l),
(256,100,l),
(394,390,l),
(493,390,l),
(493,304,l),
(637,386,l),
(523,490,l),
(279,490,l),
(56,-1,l)
);
},
{
closed = 1;
nodes = (
(391,182,l),
(483,282,l),
(116,282,l),
(24,182,l)
);
}
);
width = 670;
},
{
layerId = m004;
shapes = (
{
closed = 1;
nodes = (
(581,0,l),
(646,70,l),
(169,70,l),
(420,420,l),
(543,420,l),
(543,318,l),
(643,387,l),
(527,490,l),
(373,490,l),
(23,-1,l)
);
},
{
closed = 1;
nodes = (
(403,197,l),
(468,267,l),
(104,267,l),
(39,197,l)
);
}
);
width = 680;
},
{
layerId = m005;
shapes = (
{
closed = 1;
nodes = (
(365,0,l),
(393,30,l),
(89,30,l),
(258,460,l),
(337,460,l),
(337,409,l),
(390,447,l),
(336,490,l),
(235,490,l),
(43,-1,l)
);
},
{
closed = 1;
nodes = (
(287,217,l),
(315,247,l),
(50,247,l),
(22,217,l)
);
}
);
width = 420;
}
);
},
{
glyphname = seven.osf;
lastChange = "2024-08-27 03:04:53 +0000";
layers = (
{
layerId = m01;
shapes = (
{
closed = 1;
nodes = (
(225,-170,l),
(225,490,l),
(175,490,l),
(15,370,l),
(125,370,l),
(125,-230,l)
);
},
{
closed = 1;
nodes = (
(352,-210,l),
(488,-118,l),
(488,138,l),
(438,138,l),
(298,18,l),
(388,18,l),
(388,-140,l),
(322,-140,l),
(218,71,l),
(168,71,l),
(168,31,l),
(280,-210,l)
);
}
);
width = 520;
},
{
layerId = m002;
shapes = (
{
closed = 1;
nodes = (
(315,-134,l),
(315,490,l),
(221,490,l),
(21,340,l),
(155,340,l),
(155,-230,l)
);
},
{
closed = 1;
nodes = (
(495,-210,l),
(648,-107,l),
(648,153,l),
(553,153,l),
(398,3,l),
(488,3,l),
(488,-110,l),
(435,-110,l),
(301,86,l),
(198,86,l),
(198,31,l),
(347,-210,l)
);
}
);
width = 680;
},
{
layerId = m004;
shapes = (
{
closed = 1;
nodes = (
(255,-170,l),
(255,490,l),
(205,490,l),
(15,370,l),
(155,370,l),
(155,-230,l)
);
},
{
closed = 1;
nodes = (
(583,-210,l),
(688,-118,l),
(688,138,l),
(638,138,l),
(458,18,l),
(588,18,l),
(588,-140,l),
(402,-140,l),
(248,111,l),
(198,111,l),
(198,71,l),
(360,-210,l)
);
}
);
width = 720;
},
{
layerId = m005;
shapes = (
{
closed = 1;
nodes = (
(135,-200,l),
(135,490,l),
(128,490,l),
(21,410,l),
(95,410,l),
(95,-230,l)
);
},
{
closed = 1;
nodes = (
(352,-210,l),
(392,-180,l),
(392,88,l),
(304,88,l),
(237,48,l),
(352,48,l),
(352,-180,l),
(275,-180,l),
(126,51,l),
(107,51,l),
(107,29,l),
(256,-210,l)
);
}
);
width = 430;
}
);
},
{
glyphname = eight.osf;
lastChange = "2024-08-27 03:05:26 +0000";
layers = (
{
layerId = m01;
shapes = (
{
closed = 1;
nodes = (
(255,167,l),
(255,237,l),
(83,237,l),
(18,167,l)
);
},
{
alignment = -1;
pos = (80,0);
ref = seven.osf;
}
);
width = 600;
},
{
layerId = m002;
shapes = (
{
closed = 1;
nodes = (
(375,152,l),
(375,252,l),
(155,252,l),
(63,152,l)
);
},
{
alignment = -1;
pos = (110,0);
ref = seven.osf;
}
);
width = 790;
},
{
layerId = m004;
shapes = (
{
closed = 1;
nodes = (
(275,187,l),
(275,257,l),
(83,257,l),
(18,187,l)
);
},
{
alignment = -1;
pos = (80,0);
ref = seven.osf;
}
);
width = 800;
},
{
layerId = m005;
shapes = (
{
closed = 1;
nodes = (
(175,207,l),
(175,237,l),
(49,237,l),
(21,207,l)
);
},
{
alignment = -1;
pos = (60,0);
ref = seven.osf;
}
);
width = 490;
}
);
},
{
glyphname = nine.osf;
lastChange = "2024-08-27 03:05:32 +0000";
layers = (
{
layerId = m01;
shapes = (
{
closed = 1;
nodes = (
(255,167,l),
(255,237,l),
(83,237,l),
(18,167,l)
);
},
{
closed = 1;
nodes = (
(255,0,l),
(255,70,l),
(83,70,l),
(18,0,l)
);
},
{
alignment = -1;
pos = (80,0);
ref = seven.osf;
}
);
width = 600;
},
{
layerId = m002;
shapes = (
{
closed = 1;
nodes = (
(365,152,l),
(365,252,l),
(145,252,l),
(53,152,l)
);
},
{
closed = 1;
nodes = (
(365,-15,l),
(365,85,l),
(145,85,l),
(53,-15,l)
);
},
{
alignment = -1;
pos = (100,0);
ref = seven.osf;
}
);
width = 780;
},
{
layerId = m004;
shapes = (
{
closed = 1;
nodes = (
(275,187,l),
(275,257,l),
(83,257,l),
(18,187,l)
);
},
{
closed = 1;
nodes = (
(275,20,l),
(275,90,l),
(83,90,l),
(18,20,l)
);
},
{
alignment = -1;
pos = (80,0);
ref = seven.osf;
}
);
width = 800;
},
{
layerId = m005;
shapes = (
{
closed = 1;
nodes = (
(175,207,l),
(175,237,l),
(49,237,l),
(21,207,l)
);
},
{
closed = 1;
nodes = (
(175,40,l),
(175,70,l),
(49,70,l),
(21,40,l)
);
},
{
alignment = -1;
pos = (60,0);
ref = seven.osf;
}
);
width = 490;
}
);
},
{
glyphname = eight.tf;
lastChange = "2024-08-27 02:56:25 +0000";
layers = (
{
layerId = m01;
shapes = (
{
closed = 1;
nodes = (
(232,359,l),
(232,429,l),
(71,429,l),
(6,359,l)
);
},
{
pos = (40,0);
ref = seven;
}
);
width = 600;
},
{
layerId = m002;
shapes = (
{
closed = 1;
nodes = (
(262,344,l),
(262,444,l),
(83,444,l),
(11,344,l)
);
},
{
pos = (-10,0);
ref = seven;
}
);
width = 700;
},
{
layerId = m004;
shapes = (
{
closed = 1;
nodes = (
(302,359,l),
(302,429,l),
(81,429,l),
(16,359,l)
);
},
{
pos = (60,0);
ref = seven;
}
);
width = 900;
},
{
layerId = m005;
shapes = (
{
closed = 1;
nodes = (
(148,379,l),
(148,409,l),
(33,409,l),
(5,379,l)
);
},
{
pos = (36,0);
ref = seven;
}
);
width = 500;
}
);
},
{
glyphname = nine.tf;
lastChange = "2024-08-27 02:56:25 +0000";
layers = (
{
layerId = m01;
shapes = (
{
closed = 1;
nodes = (
(232,202,l),
(232,272,l),
(71,272,l),
(6,202,l)
);
},
{
closed = 1;
nodes = (
(232,359,l),
(232,429,l),
(71,429,l),
(6,359,l)
);
},
{
pos = (40,0);
ref = seven;
}
);
width = 600;
},
{
layerId = m002;
shapes = (
{
closed = 1;
nodes = (
(262,187,l),
(262,287,l),
(83,287,l),
(11,187,l)
);
},
{
closed = 1;
nodes = (
(262,344,l),
(262,444,l),
(83,444,l),
(11,344,l)
);
},
{
pos = (-10,0);
ref = seven;
}
);
width = 700;
},
{
layerId = m004;
shapes = (
{
closed = 1;
nodes = (
(302,200,l),
(302,270,l),
(81,270,l),
(16,200,l)
);
},
{
closed = 1;
nodes = (
(302,359,l),
(302,429,l),
(81,429,l),
(16,359,l)
);
},
{
pos = (60,0);
ref = seven;
}
);
width = 900;
},
{
layerId = m005;
shapes = (
{
closed = 1;
nodes = (
(148,222,l),
(148,252,l),
(33,252,l),
(5,222,l)
);
},
{
closed = 1;
nodes = (
(148,379,l),
(148,409,l),
(33,409,l),
(5,379,l)
);
},
{
pos = (36,0);
ref = seven;
}
);
width = 500;
}
);
},
{
glyphname = five.tosf;
lastChange = "2024-08-27 03:06:55 +0000";
layers = (
{
layerId = m01;
shapes = (
{
closed = 1;
nodes = (
(490,30,l),
(490,490,l),
(440,490,l),
(300,370,l),
(390,370,l),
(390,-30,l)
);
},
{
closed = 1;
nodes = (
(155,-10,l),
(323,110,l),
(105,110,l),
(105,-10,l)
);
}
);
width = 600;
},
{
layerId = m002;
shapes = (
{
closed = 1;
nodes = (
(570,66,l),
(570,490,l),
(475,490,l),
(300,340,l),
(410,340,l),
(410,-30,l)
);
},
{
closed = 1;
nodes = (
(177,-25,l),
(377,125,l),
(83,125,l),
(83,-25,l)
);
}
);
width = 700;
},
{
layerId = m004;
shapes = (
{
closed = 1;
nodes = (
(705,30,l),
(705,490,l),
(655,490,l),
(475,370,l),
(605,370,l),
(605,-30,l)
);
},
{
closed = 1;
nodes = (
(260,-10,l),
(528,110,l),
(170,110,l),
(170,-10,l)
);
}
);
width = 900;
},
{
layerId = m005;
shapes = (
{
closed = 1;
nodes = (
(410,0,l),
(410,490,l),
(404,490,l),
(311,410,l),
(370,410,l),
(370,-30,l)
);
},
{
closed = 1;
nodes = (
(103,-10,l),
(295,50,l),
(85,50,l),
(85,-10,l)
);
}
);
width = 500;
}
);
},
{
glyphname = fraction;
lastChange = "2024-08-27 03:21:00 +0000";
layers = (
{
layerId = m01;
shapes = (
{
closed = 1;
nodes = (
(20,-30,l),
(120,-30,l),
(560,710,l),
(460,710,l)
);
}
);
width = 580;
},
{
layerId = m004;
shapes = (
{
closed = 1;
nodes = (
(20,-30,l),
(120,-30,l),
(760,710,l),
(660,710,l)
);
}
);
width = 780;
},
{
layerId = m002;
shapes = (
{
closed = 1;
nodes = (
(20,-50,l),
(180,-50,l),
(630,720,l),
(470,720,l)
);
}
);
width = 650;
},
{
layerId = m005;
shapes = (
{
closed = 1;
nodes = (
(25,-30,l),
(60,-30,l),
(496,710,l),
(461,710,l)
);
}
);
width = 520;
}
);
unicode = 8260;
},
{
glyphname = zeroinferior;
lastChange = "2024-08-27 03:10:02 +0000";
layers = (
{
layerId = m01;
shapes = (
{
closed = 1;
nodes = (
(157,125,l),
(222,185,l),
(79,185,l),
(79,125,l)
);
},
{
closed = 1;
nodes = (
(273,-10,l),
(353,79,l),
(353,244,l),
(263,330,l),
(103,330,l),
(27,259,l),
(27,62,l),
(95,-10,l)
);
},
{
closed = 1;
nodes = (
(127,60,l),
(127,260,l),
(204,260,l),
(253,210,l),
(253,60,l)
);
}
);
width = 380;
},
{
layerId = m004;
shapes = (
{
closed = 1;
nodes = (
(297,125,l),
(362,185,l),
(79,185,l),
(79,125,l)
);
},
{
closed = 1;
nodes = (
(493,-10,l),
(573,79,l),
(573,244,l),
(483,330,l),
(103,330,l),
(27,259,l),
(27,62,l),
(95,-10,l)
);
},
{
closed = 1;
nodes = (
(127,60,l),
(127,260,l),
(424,260,l),
(473,210,l),
(473,60,l)
);
}
);
width = 600;
},
{
layerId = m002;
shapes = (
{
closed = 1;
nodes = (
(207,115,l),
(282,185,l),
(139,185,l),
(139,115,l)
);
},
{
closed = 1;
nodes = (
(333,-30,l),
(473,59,l),
(473,244,l),
(323,330,l),
(163,330,l),
(27,259,l),
(27,42,l),
(155,-30,l)
);
},
{
closed = 1;
nodes = (
(177,70,l),
(177,230,l),
(275,230,l),
(323,199,l),
(323,70,l)
);
}
);
width = 500;
},
{
associatedMasterId = m01;
layerId = "C2C6BE3C-216D-4B85-9CA1-32AAB2F6BC34";
name = ref;
shapes = (
{
ref = zero;
}
);
width = 490;
},
{
associatedMasterId = m004;
layerId = "EA468C6C-432B-459B-A7BA-99B2A1D91F73";
name = ref;
shapes = (
{
ref = zero;
}
);
width = 670;
},
{
associatedMasterId = m002;
layerId = "C584F3FB-F4B8-4837-989B-07A1EB97E2BD";
name = ref;
shapes = (
{
ref = zero;
}
);
width = 590;
},
{
layerId = m005;
shapes = (
{
closed = 1;
nodes = (
(152,145,l),
(184,175,l),
(49,175,l),
(49,145,l)
);
},
{
closed = 1;
nodes = (
(233,-10,l),
(273,30,l),
(273,238,l),
(198,330,l),
(68,330,l),
(27,289,l),
(27,30,l),
(61,-10,l)
);
},
{
closed = 1;
nodes = (
(67,20,l),
(67,300,l),
(170,300,l),
(233,215,l),
(233,20,l)
);
}
);
width = 300;
},
{
associatedMasterId = m005;
layerId = "6C6BCE0B-C300-4162-A0CC-7F97A00137C5";
name = ref;
shapes = (
{
ref = zero;
}
);
width = 410;
}
);
unicode = 8320;
},
{
glyphname = oneinferior;
lastChange = "2024-08-27 03:11:01 +0000";
layers = (
{
layerId = m01;
shapes = (
{
closed = 1;
nodes = (
(75,-100,l),
(176,58,l),
(176,330,l),
(126,330,l),
(20,210,l),
(76,210,l),
(76,30,l),
(25,-100,l)
);
},
{
closed = 1;
nodes = (
(388,234,l),
(279,298,l),
(158,298,l),
(158,238,l),
(261,238,l),
(388,194,l)
);
}
);
width = 420;
},
{
layerId = m004;
shapes = (
{
closed = 1;
nodes = (
(75,-100,l),
(176,58,l),
(176,330,l),
(126,330,l),
(20,210,l),
(76,210,l),
(76,30,l),
(25,-100,l)
);
},
{
closed = 1;
nodes = (
(568,234,l),
(439,298,l),
(158,298,l),
(158,238,l),
(421,238,l),
(568,194,l)
);
}
);
width = 600;
},
{
layerId = m002;
shapes = (
{
closed = 1;
nodes = (
(136,-115,l),
(256,57,l),
(256,330,l),
(160,330,l),
(25,180,l),
(96,180,l),
(96,30,l),
(46,-115,l)
);
},
{
closed = 1;
nodes = (
(558,243,l),
(431,298,l),
(178,298,l),
(178,208,l),
(414,208,l),
(558,171,l)
);
}
);
width = 590;
},
{
associatedMasterId = m01;
layerId = "F5364C4E-69BC-4D00-9B4A-9A281EEDD0F8";
name = ref;
shapes = (
{
ref = one;
}
);
width = 530;
},
{
associatedMasterId = m004;
layerId = "83ECA99B-820C-434C-926E-70563EBBDE64";
name = ref;
shapes = (
{
ref = one;
}
);
width = 760;
},
{
associatedMasterId = m002;
layerId = "4D73E1A2-71B9-49CC-9A57-F1596306A4FF";
name = ref;
shapes = (
{
ref = one;
}
);
width = 640;
},
{
layerId = m005;
shapes = (
{
closed = 1;
nodes = (
(42,-100,l),
(116,19,l),
(116,330,l),
(113,330,l),
(42,250,l),
(76,250,l),
(76,28,l),
(17,-100,l)
);
},
{
closed = 1;
nodes = (
(348,252,l),
(271,288,l),
(102,288,l),
(102,258,l),
(258,258,l),
(348,227,l)
);
}
);
width = 370;
},
{
associatedMasterId = m005;
layerId = "0180D0AD-AC31-4532-87F8-19C9398D8EF8";
name = ref;
shapes = (
{
ref = one;
}
);
width = 520;
}
);
unicode = 8321;
},
{
glyphname = twoinferior;
lastChange = "2024-08-27 03:11:20 +0000";
layers = (
{
layerId = m01;
shapes = (
{
locked = 1;
ref = oneinferior;
},
{
closed = 1;
nodes = (
(249,104,l),
(314,164,l),
(156,164,l),
(156,104,l)
);
}
);
width = 420;
},
{
layerId = m004;
shapes = (
{
ref = oneinferior;
},
{
closed = 1;
nodes = (
(367,125,l),
(432,185,l),
(149,185,l),
(149,125,l)
);
}
);
width = 600;
},
{
layerId = m002;
shapes = (
{
ref = oneinferior;
},
{
closed = 1;
nodes = (
(367,100,l),
(442,170,l),
(139,170,l),
(139,100,l)
);
}
);
width = 590;
},
{
associatedMasterId = m01;
layerId = "B50EF2DA-6C4B-46DF-B206-0A845F95DF09";
name = ref;
shapes = (
{
ref = two;
}
);
width = 530;
},
{
associatedMasterId = m004;
layerId = "7C32D04A-C69F-41CC-BC1F-FA152BB6C8C1";
name = ref;
shapes = (
{
ref = two;
}
);
width = 760;
},
{
associatedMasterId = m002;
layerId = "A09D6570-9B41-4B07-AC6F-54A973B51B37";
name = "Aug 26, 24 at 02:57";
shapes = (
{
ref = two;
}
);
width = 640;
},
{
layerId = m005;
shapes = (
{
locked = 1;
ref = oneinferior;
},
{
closed = 1;
nodes = (
(234,124,l),
(266,154,l),
(96,154,l),
(96,124,l)
);
}
);
width = 370;
},
{
associatedMasterId = m005;
layerId = "492EC69C-BD16-4023-B0F0-CAD12A4B0E9A";
name = ref;
shapes = (
{
ref = two;
}
);
width = 520;
}
);
metricLeft = oneinferior;
metricRight = oneinferior;
unicode = 8322;
},
{
glyphname = threeinferior;
lastChange = "2024-08-27 03:12:10 +0000";
layers = (
{
layerId = m01;
shapes = (
{
ref = oneinferior;
},
{
closed = 1;
nodes = (
(249,134,l),
(314,194,l),
(156,194,l),
(156,134,l)
);
},
{
closed = 1;
nodes = (
(249,38,l),
(314,98,l),
(156,98,l),
(156,38,l)
);
}
);
width = 420;
},
{
layerId = m004;
shapes = (
{
ref = oneinferior;
},
{
closed = 1;
nodes = (
(367,135,l),
(432,195,l),
(149,195,l),
(149,135,l)
);
},
{
closed = 1;
nodes = (
(367,37,l),
(432,97,l),
(149,97,l),
(149,37,l)
);
}
);
width = 600;
},
{
layerId = m002;
shapes = (
{
ref = oneinferior;
},
{
closed = 1;
nodes = (
(367,110,l),
(442,170,l),
(139,170,l),
(139,110,l)
);
},
{
closed = 1;
nodes = (
(367,20,l),
(442,80,l),
(139,80,l),
(139,20,l)
);
}
);
width = 590;
},
{
associatedMasterId = m004;
layerId = "A123ED2D-B8B3-4F54-ABE9-659CE80DEB3C";
name = ref;
shapes = (
{
ref = three;
}
);
width = 760;
},
{
associatedMasterId = m002;
layerId = "FA80F540-4CEA-464A-B817-EF6527845B7A";
name = "Aug 26, 24 at 02:57";
shapes = (
{
ref = three;
}
);
width = 640;
},
{
layerId = m005;
shapes = (
{
ref = oneinferior;
},
{
closed = 1;
nodes = (
(244,164,l),
(266,194,l),
(96,194,l),
(96,164,l)
);
},
{
closed = 1;
nodes = (
(244,68,l),
(266,98,l),
(96,98,l),
(96,68,l)
);
}
);
width = 370;
}
);
metricLeft = oneinferior;
metricRight = oneinferior;
unicode = 8323;
},
{
glyphname = fourinferior;
lastChange = "2024-08-27 03:13:33 +0000";
layers = (
{
layerId = m01;
shapes = (
{
closed = 1;
nodes = (
(300,0,l),
(355,70,l),
(257,320,l),
(135,320,l),
(35,237,l),
(135,177,l),
(135,250,l),
(195,250,l),
(257,70,l),
(85,70,l),
(20,0,l)
);
},
{
closed = 1;
nodes = (
(367,117,l),
(432,177,l),
(195,177,l),
(130,117,l)
);
}
);
width = 450;
},
{
layerId = m004;
shapes = (
{
closed = 1;
nodes = (
(440,0,l),
(495,70,l),
(397,320,l),
(195,320,l),
(95,237,l),
(195,177,l),
(195,250,l),
(335,250,l),
(397,70,l),
(85,70,l),
(20,0,l)
);
},
{
closed = 1;
nodes = (
(557,117,l),
(622,177,l),
(285,177,l),
(220,117,l)
);
}
);
width = 640;
},
{
layerId = m002;
shapes = (
{
closed = 1;
nodes = (
(389,0,l),
(455,67,l),
(351,320,l),
(140,320,l),
(40,198,l),
(185,137,l),
(185,220,l),
(240,220,l),
(292,90,l),
(117,90,l),
(25,0,l)
);
},
{
closed = 1;
nodes = (
(417,123,l),
(492,193,l),
(270,193,l),
(195,123,l)
);
}
);
width = 520;
},
{
associatedMasterId = m01;
layerId = "76123C90-7AB2-4931-AE90-43FF9E14ECFF";
name = ref;
shapes = (
{
ref = four;
}
);
width = 570;
},
{
associatedMasterId = m004;
layerId = "1F4469A3-7D2D-45D0-A182-35FC20399047";
name = ref;
shapes = (
{
ref = four;
}
);
width = 790;
},
{
associatedMasterId = m002;
layerId = "B8B58743-9962-4435-810D-C149C6B22E89";
name = "Aug 26, 24 at 02:57";
shapes = (
{
ref = four;
}
);
width = 690;
},
{
layerId = m005;
shapes = (
{
closed = 1;
nodes = (
(244,0,l),
(273,42,l),
(164,320,l),
(63,320,l),
(20,280,l),
(55,260,l),
(55,290,l),
(140,290,l),
(240,30,l),
(51,30,l),
(23,0,l)
);
},
{
closed = 1;
nodes = (
(282,127,l),
(314,157,l),
(130,157,l),
(98,127,l)
);
}
);
width = 340;
},
{
associatedMasterId = m005;
layerId = "6D84ACB9-72C6-45AA-9A1E-528B140CC812";
name = ref;
shapes = (
{
ref = four;
}
);
width = 530;
}
);
unicode = 8324;
},
{
glyphname = fiveinferior;
lastChange = "2024-08-27 03:15:23 +0000";
layers = (
{
layerId = m01;
shapes = (
{
closed = 1;
nodes = (
(35,-10,l),
(291,110,l),
(35,110,l),
(35,-10,l)
);
},
{
closed = 1;
nodes = (
(330,30,l),
(330,320,l),
(280,320,l),
(140,200,l),
(230,200,l),
(230,-30,l)
);
}
);
width = 370;
},
{
layerId = m004;
shapes = (
{
closed = 1;
nodes = (
(85,-10,l),
(461,80,l),
(35,80,l),
(35,-10,l)
);
},
{
closed = 1;
nodes = (
(480,30,l),
(480,320,l),
(430,320,l),
(290,200,l),
(380,200,l),
(380,-30,l)
);
}
);
width = 520;
},
{
layerId = m002;
shapes = (
{
closed = 1;
nodes = (
(35,-10,l),
(389,110,l),
(35,110,l),
(35,-10,l)
);
},
{
closed = 1;
nodes = (
(420,30,l),
(420,320,l),
(325,320,l),
(150,170,l),
(260,170,l),
(260,-30,l)
);
}
);
width = 460;
},
{
associatedMasterId = m01;
layerId = "3BB1FDCD-B102-47F5-8DD8-2ECAE2CA60E8";
name = ref;
shapes = (
{
ref = five;
}
);
width = 480;
},
{
associatedMasterId = m004;
layerId = "A16240B7-E095-4CDE-98C3-1C3F1940FFBD";
name = ref;
shapes = (
{
ref = five;
}
);
width = 680;
},
{
associatedMasterId = m002;
layerId = "7035B20E-E610-4427-A119-78443F9A7B1E";
name = "Aug 26, 24 at 02:57";
shapes = (
{
ref = five;
}
);
width = 600;
},
{
layerId = m005;
shapes = (
{
closed = 1;
nodes = (
(33,-10,l),
(263,44,l),
(33,44,l),
(33,-10,l)
);
},
{
closed = 1;
nodes = (
(270,0,l),
(270,320,l),
(264,320,l),
(171,240,l),
(230,240,l),
(230,-30,l)
);
}
);
width = 310;
},
{
associatedMasterId = m005;
layerId = "913BBA52-EF02-4CE6-8866-8383EF055ED7";
name = ref;
shapes = (
{
ref = five;
}
);
width = 440;
}
);
unicode = 8325;
},
{
glyphname = sixinferior;
lastChange = "2024-08-27 03:16:59 +0000";
layers = (
{
layerId = m01;
shapes = (
{
closed = 1;
nodes = (
(339,0,l),
(404,70,l),
(174,70,l),
(234,250,l),
(322,250,l),
(322,165,l),
(422,260,l),
(319,320,l),
(172,320,l),
(53,0,l)
);
},
{
closed = 1;
nodes = (
(229,117,l),
(294,177,l),
(90,177,l),
(25,117,l)
);
}
);
width = 450;
},
{
layerId = m004;
shapes = (
{
closed = 1;
nodes = (
(489,0,l),
(554,70,l),
(174,70,l),
(274,250,l),
(402,250,l),
(432,165,l),
(492,260,l),
(429,320,l),
(242,320,l),
(53,0,l)
);
},
{
closed = 1;
nodes = (
(299,117,l),
(364,177,l),
(100,177,l),
(35,117,l)
);
}
);
width = 590;
},
{
layerId = m002;
shapes = (
{
closed = 1;
nodes = (
(397,0,l),
(489,100,l),
(229,100,l),
(289,230,l),
(372,230,l),
(372,135,l),
(496,217,l),
(391,320,l),
(197,320,l),
(57,0,l)
);
},
{
closed = 1;
nodes = (
(275,122,l),
(350,192,l),
(101,192,l),
(26,122,l)
);
}
);
width = 530;
},
{
associatedMasterId = m01;
layerId = "2DE29020-66F2-47B8-ADF7-3F79E3ABEB55";
name = ref;
shapes = (
{
ref = six;
}
);
width = 580;
},
{
associatedMasterId = m004;
layerId = "A46C50DF-B43E-4CD2-9AE8-71179DE6F537";
name = ref;
shapes = (
{
ref = six;
}
);
width = 800;
},
{
associatedMasterId = m002;
layerId = "6A44445E-A73F-466A-B2CE-832BA3919CD5";
name = "Aug 26, 24 at 02:57";
shapes = (
{
ref = six;
}
);
width = 720;
},
{
layerId = m005;
shapes = (
{
closed = 1;
nodes = (
(263,0,l),
(291,30,l),
(85,30,l),
(180,290,l),
(272,290,l),
(272,260,l),
(303,290,l),
(269,320,l),
(155,320,l),
(31,0,l)
);
},
{
closed = 1;
nodes = (
(184,137,l),
(216,167,l),
(55,167,l),
(23,137,l)
);
}
);
width = 330;
},
{
associatedMasterId = m005;
layerId = "B1CC9832-CBCF-483E-B461-A101DB164E94";
name = ref;
shapes = (
{
ref = six;
}
);
width = 500;
}
);
unicode = 8326;
},
{
glyphname = seveninferior;
lastChange = "2024-08-27 03:18:17 +0000";
layers = (
{
layerId = m01;
shapes = (
{
closed = 1;
nodes = (
(225,-30,l),
(225,320,l),
(185,320,l),
(25,200,l),
(135,200,l),
(135,-90,l)
);
},
{
closed = 1;
nodes = (
(315,-30,l),
(428,60,l),
(428,121,l),
(336,173,l),
(261,103,l),
(338,103,l),
(338,40,l),
(210,40,l),
(210,-30,l)
);
}
);
width = 460;
},
{
layerId = m004;
shapes = (
{
closed = 1;
nodes = (
(225,-30,l),
(225,320,l),
(185,320,l),
(25,200,l),
(135,200,l),
(135,-90,l)
);
},
{
closed = 1;
nodes = (
(465,-30,l),
(578,60,l),
(578,141,l),
(426,173,l),
(311,103,l),
(488,103,l),
(488,40,l),
(210,40,l),
(210,-30,l)
);
}
);
width = 610;
},
{
layerId = m002;
shapes = (
{
closed = 1;
nodes = (
(315,-14,l),
(315,320,l),
(231,320,l),
(31,170,l),
(165,170,l),
(165,-134,l)
);
},
{
closed = 1;
nodes = (
(440,-30,l),
(568,72,l),
(568,140,l),
(460,203,l),
(343,103,l),
(418,103,l),
(418,50,l),
(240,50,l),
(240,-30,l)
);
}
);
width = 600;
},
{
associatedMasterId = m01;
layerId = "E3B5EA5D-F11E-4DA7-8FD9-FA9F885CA11F";
name = ref;
shapes = (
{
ref = seven;
}
);
width = 570;
},
{
associatedMasterId = m004;
layerId = "6A96FBBB-B463-4495-9EB4-54335D93A7E7";
name = ref;
shapes = (
{
ref = seven;
}
);
width = 810;
},
{
associatedMasterId = m002;
layerId = "16F28F80-8DBA-4AB2-AE26-D18EAECF6A1E";
name = "Aug 26, 24 at 02:57";
shapes = (
{
ref = seven;
}
);
width = 720;
},
{
layerId = m005;
shapes = (
{
closed = 1;
nodes = (
(125,-30,l),
(125,320,l),
(128,320,l),
(21,240,l),
(95,240,l),
(95,-60,l)
);
},
{
closed = 1;
nodes = (
(256,-10,l),
(298,24,l),
(298,153,l),
(216,153,l),
(179,123,l),
(268,123,l),
(268,20,l),
(111,20,l),
(111,-10,l)
);
}
);
width = 330;
},
{
associatedMasterId = m005;
layerId = "4F27CDB4-CEB6-4487-B267-53673D40AF2B";
name = ref;
shapes = (
{
ref = seven;
}
);
width = 490;
}
);
unicode = 8327;
},
{
glyphname = eightinferior;
lastChange = "2024-08-27 03:19:28 +0000";
layers = (
{
layerId = m01;
shapes = (
{
ref = seveninferior;
},
{
closed = 1;
nodes = (
(208,101,l),
(208,161,l),
(87,161,l),
(22,101,l)
);
}
);
width = 460;
},
{
layerId = m004;
shapes = (
{
pos = (70,0);
ref = seveninferior;
},
{
closed = 1;
nodes = (
(278,101,l),
(278,161,l),
(87,161,l),
(22,101,l)
);
}
);
width = 680;
},
{
layerId = m002;
shapes = (
{
pos = (20,0);
ref = seveninferior;
},
{
closed = 1;
nodes = (
(281,71,l),
(281,141,l),
(107,141,l),
(32,71,l)
);
}
);
width = 620;
},
{
associatedMasterId = m004;
layerId = "6C13199B-935D-4329-9913-888D49688306";
name = ref;
shapes = (
{
ref = eight;
}
);
width = 920;
},
{
associatedMasterId = m002;
layerId = "5C0ECF93-9BB5-4353-9F26-721CFDFA1874";
name = "Aug 26, 24 at 02:57";
shapes = (
{
ref = eight;
}
);
width = 840;
},
{
layerId = m005;
shapes = (
{
ref = seveninferior;
},
{
closed = 1;
nodes = (
(108,141,l),
(108,171,l),
(42,171,l),
(10,141,l)
);
}
);
width = 330;
}
);
unicode = 8328;
},
{
glyphname = nineinferior;
lastChange = "2024-08-27 03:19:31 +0000";
layers = (
{
layerId = m01;
shapes = (
{
ref = seveninferior;
},
{
closed = 1;
nodes = (
(208,95,l),
(208,155,l),
(87,155,l),
(22,95,l)
);
},
{
closed = 1;
nodes = (
(208,0,l),
(208,60,l),
(87,60,l),
(22,0,l)
);
}
);
width = 460;
},
{
layerId = m004;
shapes = (
{
pos = (70,0);
ref = seveninferior;
},
{
closed = 1;
nodes = (
(278,95,l),
(278,155,l),
(87,155,l),
(22,95,l)
);
},
{
closed = 1;
nodes = (
(278,0,l),
(278,60,l),
(87,60,l),
(22,0,l)
);
}
);
width = 680;
},
{
layerId = m002;
shapes = (
{
pos = (20,0);
ref = seveninferior;
},
{
closed = 1;
nodes = (
(281,88,l),
(281,148,l),
(107,148,l),
(32,88,l)
);
},
{
closed = 1;
nodes = (
(281,8,l),
(281,68,l),
(107,68,l),
(32,8,l)
);
}
);
width = 620;
},
{
associatedMasterId = m004;
layerId = "4D1EB69E-81BC-4483-B376-176DB1141044";
name = "Aug 26, 24 at 02:56";
shapes = (
{
ref = nine;
}
);
width = 920;
},
{
associatedMasterId = m002;
layerId = "DE30DD3A-147F-48A7-A982-A3EEFAB83C1E";
name = "Aug 26, 24 at 02:57";
shapes = (
{
ref = nine;
}
);
width = 840;
},
{
layerId = m005;
shapes = (
{
ref = seveninferior;
},
{
closed = 1;
nodes = (
(108,135,l),
(108,165,l),
(42,165,l),
(10,135,l)
);
},
{
closed = 1;
nodes = (
(108,40,l),
(108,70,l),
(42,70,l),
(10,40,l)
);
}
);
width = 330;
}
);
metricRight = eightinferior;
unicode = 8329;
},
{
glyphname = .notdef;
lastChange = "2024-08-27 03:23:24 +0000";
layers = (
{
layerId = m01;
shapes = (
{
closed = 1;
nodes = (
(575,-133,l),
(575,667,l),
(25,667,l),
(25,-133,l)
);
},
{
attr = {
fill = 1;
strokePos = 1;
};
closed = 1;
nodes = (
(260,71,l),
(340,71,l),
(340,-9,l),
(260,-9,l)
);
},
{
attr = {
fill = 1;
strokePos = 1;
};
closed = 1;
nodes = (
(116,297,l),
(208,383,l),
(404,383,l),
(404,503,l),
(321,503,l),
(373,559,l),
(484,559,l),
(484,419,l),
(389,327,l),
(196,327,l),
(196,223,l),
(420,223,l),
(368,167,l),
(116,167,l)
);
}
);
width = 600;
},
{
layerId = m002;
shapes = (
{
closed = 1;
nodes = (
(595,-133,l),
(595,667,l),
(25,667,l),
(25,-133,l)
);
},
{
attr = {
fill = 1;
strokePos = 1;
};
closed = 1;
nodes = (
(240,86,l),
(380,86,l),
(380,-24,l),
(240,-24,l)
);
},
{
attr = {
strokePos = 1;
};
closed = 1;
nodes = (
(96,299,l),
(202,398,l),
(384,398,l),
(384,488,l),
(286,488,l),
(365,574,l),
(524,574,l),
(524,417,l),
(416,312,l),
(236,312,l),
(236,238,l),
(475,238,l),
(396,152,l),
(96,152,l)
);
}
);
width = 620;
},
{
layerId = m004;
shapes = (
{
closed = 1;
nodes = (
(695,-133,l),
(695,667,l),
(25,667,l),
(25,-133,l)
);
},
{
attr = {
fill = 1;
strokePos = 1;
};
closed = 1;
nodes = (
(320,71,l),
(400,71,l),
(400,-9,l),
(320,-9,l)
);
},
{
attr = {
fill = 1;
strokePos = 1;
};
closed = 1;
nodes = (
(116,297,l),
(208,383,l),
(524,383,l),
(524,503,l),
(321,503,l),
(373,559,l),
(604,559,l),
(604,419,l),
(509,327,l),
(196,327,l),
(196,223,l),
(540,223,l),
(488,167,l),
(116,167,l)
);
}
);
width = 720;
},
{
layerId = m005;
shapes = (
{
closed = 1;
nodes = (
(505,-133,l),
(505,667,l),
(25,667,l),
(25,-133,l)
);
},
{
attr = {
mask = 1;
};
closed = 1;
nodes = (
(260,-9,l),
(260,39,l),
(212,39,l),
(212,-9,l)
);
},
{
attr = {
mask = 1;
};
closed = 1;
nodes = (
(328,135,l),
(374,183,l),
(156,183,l),
(156,311,l),
(368,311,l),
(444,379,l),
(444,559,l),
(333,559,l),
(287,511,l),
(396,511,l),
(396,359,l),
(168,359,l),
(108,307,l),
(108,135,l)
);
}
);
width = 530;
}
);
},
{
glyphname = period;
lastChange = "2024-08-27 01:49:11 +0000";
layers = (
{
layerId = m01;
shapes = (
{
closed = 1;
nodes = (
(200,-10,l),
(200,90,l),
(100,90,l),
(100,-10,l)
);
}
);
width = 300;
},
{
layerId = m002;
shapes = (
{
closed = 1;
nodes = (
(250,-25,l),
(250,125,l),
(100,125,l),
(100,-25,l)
);
}
);
width = 350;
},
{
layerId = m004;
shapes = (
{
closed = 1;
nodes = (
(250,-10,l),
(250,90,l),
(150,90,l),
(150,-10,l)
);
}
);
width = 400;
},
{
layerId = m005;
shapes = (
{
closed = 1;
nodes = (
(120,-10,l),
(120,50,l),
(60,50,l),
(60,-10,l)
);
}
);
width = 180;
}
);
unicode = 46;
},
{
glyphname = comma;
lastChange = "2024-08-27 01:49:16 +0000";
layers = (
{
layerId = m01;
shapes = (
{
closed = 1;
nodes = (
(142,-79,l),
(200,0,l),
(200,90,l),
(100,90,l),
(100,0,l),
(140,0,l),
(112,-79,l)
);
}
);
width = 300;
},
{
layerId = m002;
shapes = (
{
closed = 1;
nodes = (
(147,-124,l),
(250,-1,l),
(250,125,l),
(100,125,l),
(100,-15,l),
(150,-15,l),
(92,-124,l)
);
}
);
width = 350;
},
{
layerId = m004;
shapes = (
{
closed = 1;
nodes = (
(192,-79,l),
(250,0,l),
(250,90,l),
(150,90,l),
(150,0,l),
(190,0,l),
(162,-79,l)
);
}
);
width = 400;
},
{
layerId = m005;
shapes = (
{
closed = 1;
nodes = (
(85,-57,l),
(120,-10,l),
(120,50,l),
(60,50,l),
(60,-10,l),
(84,-10,l),
(67,-57,l)
);
}
);
width = 180;
}
);
unicode = 44;
},
{
glyphname = exclam;
lastChange = "2024-08-27 01:56:36 +0000";
layers = (
{
layerId = m01;
shapes = (
{
pos = (20,0);
ref = period;
},
{
closed = 1;
nodes = (
(220,270,l),
(220,700,l),
(120,640,l),
(120,210,l)
);
}
);
width = 340;
},
{
layerId = m002;
shapes = (
{
pos = (25,0);
ref = period;
},
{
closed = 1;
nodes = (
(280,276,l),
(280,750,l),
(120,654,l),
(120,180,l)
);
}
);
width = 400;
},
{
layerId = m004;
shapes = (
{
ref = period;
},
{
closed = 1;
nodes = (
(250,270,l),
(250,700,l),
(150,640,l),
(150,210,l)
);
}
);
width = 400;
},
{
layerId = m005;
shapes = (
{
pos = (20,0);
ref = period;
},
{
closed = 1;
nodes = (
(140,210,l),
(140,700,l),
(80,640,l),
(80,150,l)
);
}
);
width = 220;
}
);
unicode = 33;
},
{
glyphname = exclamdown;
lastChange = "2024-08-27 01:56:41 +0000";
layers = (
{
layerId = m01;
shapes = (
{
pos = (20,470);
ref = period;
scale = (1,-1);
},
{
closed = 1;
nodes = (
(120,200,l),
(120,-230,l),
(220,-170,l),
(220,260,l)
);
}
);
width = 340;
},
{
layerId = m002;
shapes = (
{
pos = (25,470);
ref = period;
scale = (1,-1);
},
{
closed = 1;
nodes = (
(120,193,l),
(120,-281,l),
(280,-185,l),
(280,289,l)
);
}
);
width = 400;
},
{
layerId = m004;
shapes = (
{
pos = (0,470);
ref = period;
scale = (1,-1);
},
{
closed = 1;
nodes = (
(150,200,l),
(150,-230,l),
(250,-170,l),
(250,260,l)
);
}
);
width = 400;
},
{
layerId = m005;
shapes = (
{
pos = (20,470);
ref = period;
scale = (1,-1);
},
{
closed = 1;
nodes = (
(80,260,l),
(80,-230,l),
(140,-170,l),
(140,320,l)
);
}
);
width = 220;
}
);
unicode = 161;
},
{
glyphname = question;
lastChange = "2024-08-27 02:13:12 +0000";
layers = (
{
layerId = m01;
shapes = (
{
pos = (150,0);
ref = period;
},
{
closed = 1;
nodes = (
(385,210,l),
(450,280,l),
(170,280,l),
(170,410,l),
(411,410,l),
(530,525,l),
(530,700,l),
(391,700,l),
(326,630,l),
(430,630,l),
(430,480,l),
(185,480,l),
(70,372,l),
(70,210,l)
);
}
);
width = 600;
},
{
layerId = m002;
shapes = (
{
pos = (150,0);
ref = period;
},
{
closed = 1;
nodes = (
(403,230,l),
(495,330,l),
(200,330,l),
(200,430,l),
(427,430,l),
(560,558,l),
(560,750,l),
(373,750,l),
(281,650,l),
(400,650,l),
(400,530,l),
(169,530,l),
(40,409,l),
(40,230,l)
);
}
);
width = 600;
},
{
layerId = m004;
shapes = (
{
pos = (260,0);
ref = period;
},
{
closed = 1;
nodes = (
(545,210,l),
(610,280,l),
(250,280,l),
(250,410,l),
(651,410,l),
(770,525,l),
(770,700,l),
(511,700,l),
(446,630,l),
(670,630,l),
(670,480,l),
(265,480,l),
(150,372,l),
(150,210,l)
);
}
);
width = 920;
},
{
layerId = m005;
shapes = (
{
pos = (160,0);
ref = period;
},
{
closed = 1;
nodes = (
(365,170,l),
(422,230,l),
(150,230,l),
(150,390,l),
(415,390,l),
(510,475,l),
(510,700,l),
(371,700,l),
(314,640,l),
(450,640,l),
(450,450,l),
(165,450,l),
(90,385,l),
(90,170,l)
);
}
);
width = 590;
}
);
unicode = 63;
},
{
glyphname = questiondown;
lastChange = "2024-08-27 02:13:39 +0000";
layers = (
{
layerId = m01;
shapes = (
{
pos = (150,470);
ref = period;
scale = (1,-1);
},
{
closed = 1;
nodes = (
(215,260,l),
(150,190,l),
(430,190,l),
(430,60,l),
(189,60,l),
(70,-55,l),
(70,-230,l),
(209,-230,l),
(274,-160,l),
(170,-160,l),
(170,-10,l),
(415,-10,l),
(530,98,l),
(530,260,l)
);
}
);
width = 600;
},
{
layerId = m002;
shapes = (
{
pos = (150,470);
ref = period;
scale = (1,-1);
},
{
closed = 1;
nodes = (
(197,240,l),
(105,140,l),
(400,140,l),
(400,40,l),
(173,40,l),
(40,-88,l),
(40,-280,l),
(227,-280,l),
(319,-180,l),
(200,-180,l),
(200,-60,l),
(431,-60,l),
(560,61,l),
(560,240,l)
);
}
);
width = 600;
},
{
layerId = m004;
shapes = (
{
pos = (260,470);
ref = period;
scale = (1,-1);
},
{
closed = 1;
nodes = (
(375,260,l),
(310,190,l),
(670,190,l),
(670,60,l),
(269,60,l),
(150,-55,l),
(150,-230,l),
(429,-230,l),
(494,-160,l),
(250,-160,l),
(250,-10,l),
(655,-10,l),
(770,98,l),
(770,260,l)
);
}
);
width = 920;
},
{
layerId = m005;
shapes = (
{
pos = (250,470);
ref = period;
scale = (1,-1);
},
{
closed = 1;
nodes = (
(225,300,l),
(168,240,l),
(440,240,l),
(440,80,l),
(175,80,l),
(80,-5,l),
(80,-230,l),
(219,-230,l),
(276,-170,l),
(140,-170,l),
(140,20,l),
(425,20,l),
(500,85,l),
(500,300,l)
);
}
);
width = 590;
}
);
unicode = 191;
},
{
glyphname = slash;
lastChange = "2024-08-27 02:25:56 +0000";
layers = (
{
layerId = m01;
shapes = (
{
closed = 1;
nodes = (
(140,-30,l),
(240,-30,l),
(460,710,l),
(360,710,l)
);
}
);
width = 600;
},
{
layerId = m002;
shapes = (
{
closed = 1;
nodes = (
(105,-45,l),
(266,-45,l),
(495,715,l),
(334,715,l)
);
}
);
width = 600;
},
{
layerId = m004;
shapes = (
{
closed = 1;
nodes = (
(140,-30,l),
(240,-30,l),
(580,710,l),
(480,710,l)
);
}
);
width = 720;
},
{
layerId = m005;
shapes = (
{
closed = 1;
nodes = (
(140,-30,l),
(190,-30,l),
(460,710,l),
(410,710,l)
);
}
);
width = 600;
}
);
unicode = 47;
},
{
glyphname = hyphen;
lastChange = "2024-08-27 02:07:09 +0000";
layers = (
{
layerId = m01;
shapes = (
{
closed = 1;
nodes = (
(334,216,l),
(399,286,l),
(114,286,l),
(49,216,l)
);
}
);
width = 450;
},
{
layerId = m002;
shapes = (
{
closed = 1;
nodes = (
(352,201,l),
(444,301,l),
(96,301,l),
(4,201,l)
);
}
);
width = 450;
},
{
layerId = m004;
shapes = (
{
closed = 1;
nodes = (
(534,216,l),
(599,286,l),
(114,286,l),
(49,216,l)
);
}
);
width = 650;
},
{
layerId = m005;
shapes = (
{
closed = 1;
nodes = (
(358,226,l),
(386,276,l),
(90,276,l),
(62,226,l)
);
}
);
width = 450;
}
);
unicode = 45;
},
{
glyphname = endash;
lastChange = "2024-08-27 02:07:13 +0000";
layers = (
{
layerId = m01;
shapes = (
{
closed = 1;
nodes = (
(574,216,l),
(639,286,l),
(114,286,l),
(49,216,l)
);
}
);
width = 690;
},
{
layerId = m002;
shapes = (
{
closed = 1;
nodes = (
(592,201,l),
(684,301,l),
(96,301,l),
(4,201,l)
);
}
);
width = 690;
},
{
layerId = m004;
shapes = (
{
closed = 1;
nodes = (
(774,216,l),
(839,286,l),
(114,286,l),
(49,216,l)
);
}
);
width = 890;
},
{
layerId = m005;
shapes = (
{
closed = 1;
nodes = (
(598,226,l),
(626,276,l),
(90,276,l),
(62,226,l)
);
}
);
width = 690;
}
);
unicode = 8211;
},
{
glyphname = emdash;
lastChange = "2024-08-27 02:07:18 +0000";
layers = (
{
layerId = m01;
shapes = (
{
closed = 1;
nodes = (
(864,216,l),
(929,286,l),
(114,286,l),
(49,216,l)
);
}
);
width = 980;
},
{
layerId = m002;
shapes = (
{
closed = 1;
nodes = (
(882,201,l),
(974,301,l),
(96,301,l),
(4,201,l)
);
}
);
width = 980;
},
{
layerId = m004;
shapes = (
{
closed = 1;
nodes = (
(1064,216,l),
(1129,286,l),
(114,286,l),
(49,216,l)
);
}
);
width = 1180;
},
{
layerId = m005;
shapes = (
{
closed = 1;
nodes = (
(888,226,l),
(916,276,l),
(90,276,l),
(62,226,l)
);
}
);
width = 980;
}
);
unicode = 8212;
},
{
glyphname = at;
lastChange = "2024-08-27 02:18:08 +0000";
layers = (
{
layerId = m01;
shapes = (
{
closed = 1;
nodes = (
(254,-70,l),
(373,70,l),
(373,560,l),
(323,560,l),
(208,440,l),
(273,440,l),
(273,80,l),
(210,10,l),
(123,10,l),
(123,445,l),
(266,598,l),
(816,598,l),
(816,92,l),
(728,20,l),
(482,20,l),
(569,-60,l),
(763,-60,l),
(896,53,l),
(896,590,l),
(783,678,l),
(245,677,l),
(43,478,l),
(43,25,l),
(123,-70,l)
);
},
{
closed = 1;
nodes = (
(577,70,l),
(708,162,l),
(708,319,l),
(631,371,l),
(502,371,l),
(437,301,l),
(608,301,l),
(608,140,l),
(535,140,l),
(408,255,l),
(358,255,l),
(358,185,l),
(493,70,l)
);
},
{
closed = 1;
nodes = (
(666,443,l),
(731,513,l),
(361,513,l),
(361,443,l)
);
}
);
width = 940;
},
{
layerId = m004;
shapes = (
{
closed = 1;
nodes = (
(254,-70,l),
(373,70,l),
(373,550,l),
(323,550,l),
(208,430,l),
(273,430,l),
(273,80,l),
(210,10,l),
(123,10,l),
(123,445,l),
(266,598,l),
(976,598,l),
(976,92,l),
(888,20,l),
(482,20,l),
(539,-60,l),
(923,-60,l),
(1056,53,l),
(1056,590,l),
(943,678,l),
(245,677,l),
(43,478,l),
(43,25,l),
(123,-70,l)
);
},
{
closed = 1;
nodes = (
(737,80,l),
(868,172,l),
(868,309,l),
(791,361,l),
(542,361,l),
(477,291,l),
(768,291,l),
(768,150,l),
(535,150,l),
(408,275,l),
(358,275,l),
(358,205,l),
(493,80,l)
);
},
{
closed = 1;
nodes = (
(786,433,l),
(851,503,l),
(361,503,l),
(361,433,l)
);
}
);
width = 1100;
},
{
layerId = m002;
shapes = (
{
closed = 1;
nodes = (
(315,-120,l),
(443,60,l),
(443,550,l),
(346,550,l),
(224,400,l),
(283,400,l),
(283,70,l),
(231,0,l),
(173,0,l),
(173,435,l),
(306,598,l),
(846,598,l),
(846,82,l),
(760,10,l),
(522,10,l),
(609,-110,l),
(813,-110,l),
(976,43,l),
(976,580,l),
(863,718,l),
(255,718,l),
(43,468,l),
(43,-13,l),
(145,-120,l)
);
},
{
closed = 1;
nodes = (
(669,60,l),
(778,158,l),
(778,255,l),
(683,351,l),
(562,351,l),
(470,251,l),
(648,251,l),
(648,160,l),
(513,160,l),
(428,215,l),
(378,215,l),
(378,149,l),
(518,60,l)
);
},
{
closed = 1;
nodes = (
(709,403,l),
(801,503,l),
(431,503,l),
(431,403,l)
);
}
);
width = 1020;
},
{
layerId = m005;
shapes = (
{
closed = 1;
nodes = (
(237,-40,l),
(343,75,l),
(343,540,l),
(339,540,l),
(262,460,l),
(303,460,l),
(303,85,l),
(226,0,l),
(153,0,l),
(153,460,l),
(250,600,l),
(792,600,l),
(792,138,l),
(650,10,l),
(426,10,l),
(470,-30,l),
(658,-30,l),
(827,116,l),
(827,596,l),
(776,640,l),
(238,639,l),
(118,473,l),
(118,-4,l),
(157,-40,l)
);
},
{
closed = 1;
nodes = (
(637,90,l),
(678,128,l),
(678,291,l),
(639,331,l),
(430,331,l),
(402,301,l),
(638,301,l),
(638,120,l),
(446,120,l),
(336,235,l),
(319,235,l),
(319,205,l),
(432,90,l)
);
},
{
closed = 1;
nodes = (
(650,463,l),
(678,493,l),
(330,493,l),
(330,463,l)
);
}
);
width = 940;
}
);
unicode = 64;
},
{
glyphname = ampersand;
lastChange = "2024-08-27 02:19:16 +0000";
layers = (
{
layerId = m01;
shapes = (
{
closed = 1;
nodes = (
(115,657,l),
(115,414,l),
(152,369,l),
(52,313,l),
(52,60,l),
(142,0,l),
(437,0,l),
(513,37,l),
(513,353,l),
(605,353,l),
(670,423,l),
(215,423,l),
(215,630,l),
(504,630,l),
(569,700,l),
(191,700,l)
);
},
{
closed = 1;
nodes = (
(152,285,l),
(237,353,l),
(413,353,l),
(413,70,l),
(152,70,l)
);
}
);
width = 700;
},
{
layerId = m004;
shapes = (
{
closed = 1;
nodes = (
(115,657,l),
(115,444,l),
(142,399,l),
(52,287,l),
(52,60,l),
(142,0,l),
(527,0,l),
(603,37,l),
(603,373,l),
(815,373,l),
(880,443,l),
(215,443,l),
(215,630,l),
(604,630,l),
(669,700,l),
(191,700,l)
);
},
{
closed = 1;
nodes = (
(152,275,l),
(227,373,l),
(503,373,l),
(503,70,l),
(152,70,l)
);
}
);
width = 910;
},
{
layerId = m002;
shapes = (
{
closed = 1;
nodes = (
(115,619,l),
(115,434,l),
(162,369,l),
(52,273,l),
(52,92,l),
(144,0,l),
(502,0,l),
(593,70,l),
(593,353,l),
(678,353,l),
(770,453,l),
(275,453,l),
(275,600,l),
(567,600,l),
(659,700,l),
(251,700,l)
);
},
{
closed = 1;
nodes = (
(212,255,l),
(317,353,l),
(433,353,l),
(433,70,l),
(212,70,l)
);
}
);
width = 800;
},
{
layerId = m005;
shapes = (
{
closed = 1;
nodes = (
(115,668,l),
(115,392,l),
(137,373,l),
(52,304,l),
(52,38,l),
(93,0,l),
(410,0,l),
(453,37,l),
(453,373,l),
(599,373,l),
(627,403,l),
(155,403,l),
(155,670,l),
(478,670,l),
(506,700,l),
(148,700,l)
);
},
{
closed = 1;
nodes = (
(92,292,l),
(194,373,l),
(413,373,l),
(413,30,l),
(92,30,l)
);
}
);
width = 650;
}
);
unicode = 38;
},
{
glyphname = copyright;
lastChange = "2024-08-27 02:20:27 +0000";
layers = (
{
layerId = m01;
shapes = (
{
pos = (213,25);
ref = C;
scale = (0.9,0.9);
},
{
closed = 1;
nodes = (
(688,-85,o),
(875,102,o),
(875,333,cs),
(875,563,o),
(688,750,o),
(458,750,cs),
(227,750,o),
(40,563,o),
(40,333,cs),
(40,102,o),
(227,-85,o),
(458,-85,cs)
);
},
{
closed = 1;
nodes = (
(260,-24,o),
(101,135,o),
(101,333,cs),
(101,530,o),
(260,689,o),
(458,689,cs),
(655,689,o),
(814,530,o),
(814,333,cs),
(814,135,o),
(655,-24,o),
(458,-24,cs)
);
}
);
width = 915;
},
{
layerId = m004;
shapes = (
{
pos = (145,25);
ref = C;
scale = (0.9,0.9);
},
{
closed = 1;
nodes = (
(688,-85,o),
(875,102,o),
(875,333,cs),
(875,563,o),
(688,750,o),
(458,750,cs),
(227,750,o),
(40,563,o),
(40,333,cs),
(40,102,o),
(227,-85,o),
(458,-85,cs)
);
},
{
closed = 1;
nodes = (
(260,-24,o),
(101,135,o),
(101,333,cs),
(101,530,o),
(260,689,o),
(458,689,cs),
(655,689,o),
(814,530,o),
(814,333,cs),
(814,135,o),
(655,-24,o),
(458,-24,cs)
);
}
);
width = 915;
},
{
layerId = m002;
shapes = (
{
pos = (178,35);
ref = C;
scale = (0.9,0.9);
},
{
closed = 1;
nodes = (
(688,-85,o),
(875,102,o),
(875,333,cs),
(875,563,o),
(688,750,o),
(458,750,cs),
(227,750,o),
(40,563,o),
(40,333,cs),
(40,102,o),
(227,-85,o),
(458,-85,cs)
);
},
{
closed = 1;
nodes = (
(271,-5,o),
(120,146,o),
(120,333,cs),
(120,519,o),
(271,670,o),
(458,670,cs),
(644,670,o),
(795,519,o),
(795,333,cs),
(795,146,o),
(644,-5,o),
(458,-5,cs)
);
}
);
width = 915;
},
{
layerId = m005;
shapes = (
{
pos = (213,25);
ref = C;
scale = (0.9,0.9);
},
{
closed = 1;
nodes = (
(666,-44,o),
(834,124,o),
(834,333,cs),
(834,541,o),
(666,709,o),
(458,709,cs),
(249,709,o),
(81,541,o),
(81,333,cs),
(81,124,o),
(249,-44,o),
(458,-44,cs)
);
},
{
closed = 1;
nodes = (
(260,-24,o),
(101,135,o),
(101,333,cs),
(101,530,o),
(260,689,o),
(458,689,cs),
(655,689,o),
(814,530,o),
(814,333,cs),
(814,135,o),
(655,-24,o),
(458,-24,cs)
);
}
);
width = 915;
}
);
unicode = 169;
},
{
glyphname = registered;
lastChange = "2024-08-27 02:20:48 +0000";
layers = (
{
layerId = m01;
shapes = (
{
pos = (152,410);
ref = R;
scale = (0.4,0.4);
},
{
closed = 1;
nodes = (
(384,323,o),
(480,419,o),
(480,538,cs),
(480,657,o),
(384,753,o),
(265,753,cs),
(146,753,o),
(50,657,o),
(50,538,cs),
(50,419,o),
(146,323,o),
(265,323,cs)
);
},
{
closed = 1;
nodes = (
(169,364,o),
(91,442,o),
(91,538,cs),
(91,634,o),
(169,712,o),
(265,712,cs),
(361,712,o),
(439,634,o),
(439,538,cs),
(439,442,o),
(361,364,o),
(265,364,cs)
);
}
);
width = 530;
},
{
layerId = m004;
shapes = (
{
pos = (114,423);
ref = R;
scale = (0.36,0.36);
},
{
closed = 1;
nodes = (
(384,323,o),
(480,419,o),
(480,538,cs),
(480,657,o),
(384,753,o),
(265,753,cs),
(146,753,o),
(50,657,o),
(50,538,cs),
(50,419,o),
(146,323,o),
(265,323,cs)
);
},
{
closed = 1;
nodes = (
(169,364,o),
(91,442,o),
(91,538,cs),
(91,634,o),
(169,712,o),
(265,712,cs),
(361,712,o),
(439,634,o),
(439,538,cs),
(439,442,o),
(361,364,o),
(265,364,cs)
);
}
);
width = 530;
},
{
layerId = m002;
shapes = (
{
pos = (140,422);
ref = R;
scale = (0.36,0.36);
},
{
closed = 1;
nodes = (
(384,323,o),
(480,419,o),
(480,538,cs),
(480,657,o),
(384,753,o),
(265,753,cs),
(146,753,o),
(50,657,o),
(50,538,cs),
(50,419,o),
(146,323,o),
(265,323,cs)
);
},
{
closed = 1;
nodes = (
(179,381,o),
(108,452,o),
(108,538,cs),
(108,624,o),
(179,695,o),
(265,695,cs),
(351,695,o),
(422,624,o),
(422,538,cs),
(422,452,o),
(351,381,o),
(265,381,cs)
);
}
);
width = 530;
},
{
layerId = m005;
shapes = (
{
pos = (152,410);
ref = R;
scale = (0.4,0.4);
},
{
closed = 1;
nodes = (
(367,354,o),
(449,436,o),
(449,538,cs),
(449,640,o),
(367,722,o),
(265,722,cs),
(163,722,o),
(81,640,o),
(81,538,cs),
(81,436,o),
(163,354,o),
(265,354,cs)
);
},
{
closed = 1;
nodes = (
(169,364,o),
(91,442,o),
(91,538,cs),
(91,634,o),
(169,712,o),
(265,712,cs),
(361,712,o),
(439,634,o),
(439,538,cs),
(439,442,o),
(361,364,o),
(265,364,cs)
);
}
);
width = 530;
}
);
unicode = 174;
},
{
glyphname = degree;
lastChange = "2024-08-27 02:22:33 +0000";
layers = (
{
layerId = m01;
shapes = (
{
closed = 1;
nodes = (
(40,657,l),
(40,550,l),
(128,480,l),
(226,480,l),
(310,550,l),
(310,660,l),
(236,727,l),
(114,727,l)
);
},
{
closed = 1;
nodes = (
(230,657,l),
(230,550,l),
(120,550,l),
(120,657,l)
);
}
);
width = 370;
},
{
layerId = m004;
shapes = (
{
closed = 1;
nodes = (
(110,657,l),
(110,550,l),
(198,480,l),
(296,480,l),
(380,550,l),
(380,660,l),
(306,727,l),
(184,727,l)
);
},
{
closed = 1;
nodes = (
(300,657,l),
(300,550,l),
(190,550,l),
(190,657,l)
);
}
);
width = 520;
},
{
layerId = m002;
shapes = (
{
closed = 1;
nodes = (
(50,676,l),
(50,525,l),
(136,450,l),
(292,450,l),
(380,525,l),
(380,676,l),
(292,757,l),
(136,757,l)
);
},
{
closed = 1;
nodes = (
(270,657,l),
(270,550,l),
(160,550,l),
(160,657,l)
);
}
);
width = 470;
},
{
layerId = m005;
shapes = (
{
closed = 1;
nodes = (
(40,647,l),
(40,560,l),
(88,525,l),
(166,525,l),
(210,560,l),
(210,650,l),
(176,682,l),
(74,682,l)
);
},
{
closed = 1;
nodes = (
(170,647,l),
(170,560,l),
(80,560,l),
(80,647,l)
);
}
);
width = 270;
}
);
unicode = 176;
},
{
glyphname = bar;
lastChange = "2024-08-26 23:15:44 +0000";
layers = (
{
layerId = m01;
shapes = (
{
closed = 1;
nodes = (
(50,-30,l),
(150,-30,l),
(150,700,l),
(50,700,l)
);
}
);
width = 200;
},
{
layerId = m004;
shapes = (
{
closed = 1;
nodes = (
(100,-30,l),
(200,-30,l),
(200,700,l),
(100,700,l)
);
}
);
width = 300;
},
{
layerId = m002;
shapes = (
{
closed = 1;
nodes = (
(50,-30,l),
(210,-30,l),
(210,700,l),
(50,700,l)
);
}
);
width = 260;
},
{
layerId = m005;
shapes = (
{
closed = 1;
nodes = (
(80,-10,l),
(120,-10,l),
(120,680,l),
(80,680,l)
);
}
);
width = 200;
}
);
unicode = 124;
},
{
glyphname = brokenbar;
lastChange = "2024-08-26 23:07:08 +0000";
layers = (
{
layerId = m01;
shapes = (
{
ref = bar;
},
{
attr = {
mask = 1;
};
closed = 1;
nodes = (
(40,295,l),
(160,295,l),
(160,395,l),
(40,395,l)
);
}
);
width = 200;
},
{
layerId = m004;
shapes = (
{
ref = bar;
},
{
attr = {
mask = "1";
};
closed = 1;
nodes = (
(30,295,l),
(270,295,l),
(270,395,l),
(30,395,l)
);
}
);
width = 300;
},
{
layerId = m002;
shapes = (
{
ref = bar;
},
{
attr = {
mask = "1";
};
closed = 1;
nodes = (
(10,295,l),
(250,295,l),
(250,395,l),
(10,395,l)
);
}
);
width = 260;
},
{
layerId = m005;
shapes = (
{
ref = bar;
},
{
attr = {
mask = 1;
};
closed = 1;
nodes = (
(40,295,l),
(160,295,l),
(160,395,l),
(40,395,l)
);
}
);
width = 200;
}
);
unicode = 166;
},
{
glyphname = dollar;
lastChange = "2024-08-27 02:27:07 +0000";
layers = (
{
layerId = m01;
shapes = (
{
closed = 1;
nodes = (
(144,420,l),
(389,420,l),
(534,238,l),
(402,60,l),
(277,60,l),
(277,-10,l),
(462,-10,l),
(645,241,l),
(449,490,l),
(209,490,l)
);
},
{
closed = 1;
nodes = (
(56,197,l),
(365,197,l),
(430,267,l),
(121,267,l)
);
},
{
closed = 1;
nodes = (
(201,-230,l),
(301,-170,l),
(301,222,l),
(201,222,l)
);
}
);
width = 680;
},
{
layerId = m004;
shapes = (
{
closed = 1;
nodes = (
(154,420,l),
(579,420,l),
(734,238,l),
(602,60,l),
(387,60,l),
(387,-10,l),
(662,-10,l),
(845,241,l),
(639,490,l),
(219,490,l)
);
},
{
closed = 1;
nodes = (
(56,197,l),
(525,197,l),
(590,267,l),
(121,267,l)
);
},
{
closed = 1;
nodes = (
(311,-230,l),
(411,-170,l),
(411,222,l),
(311,222,l)
);
}
);
width = 880;
},
{
layerId = m002;
shapes = (
{
closed = 1;
nodes = (
(57,390,l),
(389,390,l),
(520,247,l),
(392,80,l),
(237,80,l),
(237,-20,l),
(452,-20,l),
(655,261,l),
(459,490,l),
(149,490,l)
);
},
{
closed = 1;
nodes = (
(-31,187,l),
(328,187,l),
(420,287,l),
(61,287,l)
);
},
{
closed = 1;
nodes = (
(101,-230,l),
(261,-170,l),
(261,212,l),
(101,212,l)
);
}
);
width = 600;
},
{
layerId = m005;
shapes = (
{
closed = 1;
nodes = (
(147,460,l),
(406,460,l),
(567,238,l),
(420,20,l),
(247,20,l),
(247,-10,l),
(444,-10,l),
(612,241,l),
(431,490,l),
(175,490,l)
);
},
{
closed = 1;
nodes = (
(59,217,l),
(399,217,l),
(427,247,l),
(87,247,l)
);
},
{
closed = 1;
nodes = (
(231,-230,l),
(271,-200,l),
(271,232,l),
(231,232,l)
);
}
);
width = 680;
}
);
unicode = (36,164);
},
{
glyphname = minus;
lastChange = "2024-08-27 02:23:16 +0000";
layers = (
{
layerId = m01;
shapes = (
{
closed = 1;
nodes = (
(100,255,l),
(500,255,l),
(500,355,l),
(100,355,l)
);
}
);
width = 600;
},
{
layerId = m004;
shapes = (
{
closed = 1;
nodes = (
(100,255,l),
(800,255,l),
(800,355,l),
(100,355,l)
);
}
);
width = 900;
},
{
layerId = m002;
shapes = (
{
closed = 1;
nodes = (
(100,225,l),
(700,225,l),
(700,385,l),
(100,385,l)
);
}
);
width = 800;
},
{
layerId = m005;
shapes = (
{
closed = 1;
nodes = (
(100,285,l),
(500,285,l),
(500,325,l),
(100,325,l)
);
}
);
width = 600;
}
);
unicode = 8722;
},
{
glyphname = less;
lastChange = "2024-08-27 02:28:42 +0000";
layers = (
{
layerId = m01;
shapes = (
{
closed = 1;
nodes = (
(100,220,l),
(500,60,l),
(500,160,l),
(237,270,l),
(500,380,l),
(500,480,l),
(100,320,l)
);
}
);
width = 600;
},
{
layerId = m004;
shapes = (
{
closed = 1;
nodes = (
(100,220,l),
(800,10,l),
(800,110,l),
(237,270,l),
(800,430,l),
(800,530,l),
(100,320,l)
);
}
);
width = 900;
},
{
layerId = m002;
shapes = (
{
closed = 1;
nodes = (
(100,170,l),
(700,-40,l),
(700,110,l),
(247,270,l),
(700,430,l),
(700,580,l),
(100,370,l)
);
}
);
width = 800;
},
{
layerId = m005;
shapes = (
{
closed = 1;
nodes = (
(100,240,l),
(500,60,l),
(500,110,l),
(137,270,l),
(500,430,l),
(500,480,l),
(100,300,l)
);
}
);
width = 600;
}
);
unicode = 60;
},
{
glyphname = approxequal;
lastChange = "2024-08-27 02:29:42 +0000";
layers = (
{
layerId = m01;
shapes = (
{
closed = 1;
nodes = (
(100,340,l),
(223,409,l),
(370,320,l),
(500,389,l),
(500,489,l),
(370,420,l),
(223,509,l),
(100,440,l)
);
},
{
closed = 1;
nodes = (
(100,140,l),
(223,209,l),
(370,120,l),
(500,189,l),
(500,289,l),
(370,220,l),
(223,309,l),
(100,240,l)
);
}
);
width = 600;
},
{
layerId = m004;
shapes = (
{
closed = 1;
nodes = (
(100,340,l),
(293,429,l),
(600,300,l),
(800,389,l),
(800,489,l),
(600,400,l),
(293,529,l),
(100,440,l)
);
},
{
closed = 1;
nodes = (
(100,140,l),
(293,229,l),
(600,100,l),
(800,189,l),
(800,289,l),
(600,200,l),
(293,329,l),
(100,240,l)
);
}
);
width = 900;
},
{
layerId = m002;
shapes = (
{
closed = 1;
nodes = (
(100,340,l),
(293,409,l),
(500,320,l),
(700,389,l),
(700,539,l),
(500,470,l),
(293,559,l),
(100,490,l)
);
},
{
closed = 1;
nodes = (
(100,90,l),
(293,159,l),
(500,70,l),
(700,139,l),
(700,289,l),
(500,220,l),
(293,309,l),
(100,240,l)
);
}
);
width = 800;
},
{
layerId = m005;
shapes = (
{
closed = 1;
nodes = (
(100,360,l),
(223,429,l),
(370,340,l),
(500,409,l),
(500,459,l),
(370,390,l),
(223,479,l),
(100,410,l)
);
},
{
closed = 1;
nodes = (
(100,170,l),
(223,239,l),
(370,150,l),
(500,219,l),
(500,269,l),
(370,200,l),
(223,289,l),
(100,220,l)
);
}
);
width = 600;
}
);
unicode = 8776;
},
{
glyphname = asciitilde;
lastChange = "2024-08-27 02:30:09 +0000";
layers = (
{
layerId = m01;
shapes = (
{
closed = 1;
nodes = (
(35,581,l),
(118,630,l),
(245,581,l),
(335,630,l),
(335,700,l),
(245,651,l),
(118,700,l),
(35,651,l)
);
}
);
width = 370;
},
{
layerId = m004;
shapes = (
{
closed = 1;
nodes = (
(40,581,l),
(173,630,l),
(400,581,l),
(540,630,l),
(540,700,l),
(400,651,l),
(173,700,l),
(40,651,l)
);
}
);
width = 580;
},
{
layerId = m002;
shapes = (
{
closed = 1;
nodes = (
(40,551,l),
(133,600,l),
(260,551,l),
(360,600,l),
(360,700,l),
(260,651,l),
(133,700,l),
(40,651,l)
);
}
);
width = 400;
},
{
layerId = m005;
shapes = (
{
closed = 1;
nodes = (
(35,601,l),
(118,650,l),
(245,601,l),
(335,650,l),
(335,690,l),
(245,641,l),
(118,690,l),
(35,641,l)
);
}
);
width = 370;
}
);
unicode = 126;
},
{
color = 0;
glyphname = percent;
lastChange = "2024-08-27 02:34:42 +0000";
layers = (
{
layerId = m01;
shapes = (
{
closed = 1;
nodes = (
(210,-30,l),
(310,-30,l),
(570,710,l),
(470,710,l)
);
},
{
closed = 1;
nodes = (
(162,506,l),
(227,576,l),
(92,576,l),
(92,506,l)
);
},
{
closed = 1;
nodes = (
(254,376,l),
(349,502,l),
(349,611,l),
(254,716,l),
(148,716,l),
(30,611,l),
(30,502,l),
(148,376,l)
);
},
{
closed = 1;
nodes = (
(130,436,l),
(130,646,l),
(212,646,l),
(249,599,l),
(249,436,l)
);
},
{
closed = 1;
nodes = (
(582,120,l),
(647,190,l),
(512,190,l),
(512,120,l)
);
},
{
closed = 1;
nodes = (
(674,-10,l),
(769,116,l),
(769,225,l),
(674,330,l),
(568,330,l),
(450,225,l),
(450,116,l),
(568,-10,l)
);
},
{
closed = 1;
nodes = (
(550,50,l),
(550,260,l),
(632,260,l),
(669,213,l),
(669,50,l)
);
}
);
width = 800;
},
{
layerId = m004;
shapes = (
{
closed = 1;
nodes = (
(280,-30,l),
(380,-30,l),
(900,710,l),
(800,710,l)
);
},
{
closed = 1;
nodes = (
(287,506,l),
(352,576,l),
(97,576,l),
(97,506,l)
);
},
{
closed = 1;
nodes = (
(409,376,l),
(504,472,l),
(504,611,l),
(409,716,l),
(153,716,l),
(35,611,l),
(35,472,l),
(153,376,l)
);
},
{
closed = 1;
nodes = (
(135,436,l),
(135,646,l),
(367,646,l),
(404,599,l),
(404,436,l)
);
},
{
closed = 1;
nodes = (
(919,120,l),
(984,190,l),
(729,190,l),
(729,120,l)
);
},
{
closed = 1;
nodes = (
(1041,-10,l),
(1136,86,l),
(1136,225,l),
(1041,330,l),
(785,330,l),
(667,225,l),
(667,86,l),
(785,-10,l)
);
},
{
closed = 1;
nodes = (
(767,50,l),
(767,260,l),
(999,260,l),
(1036,213,l),
(1036,50,l)
);
}
);
width = 1170;
},
{
layerId = m002;
shapes = (
{
closed = 1;
nodes = (
(250,-40,l),
(410,-40,l),
(820,715,l),
(660,715,l)
);
},
{
closed = 1;
nodes = (
(172,486,l),
(275,566,l),
(152,566,l),
(152,486,l)
);
},
{
closed = 1;
nodes = (
(350,356,l),
(449,482,l),
(449,631,l),
(316,736,l),
(167,736,l),
(30,621,l),
(30,482,l),
(149,356,l)
);
},
{
closed = 1;
nodes = (
(190,446,l),
(190,646,l),
(245,646,l),
(289,609,l),
(289,446,l)
);
},
{
closed = 1;
nodes = (
(790,110,l),
(893,190,l),
(770,190,l),
(770,110,l)
);
},
{
closed = 1;
nodes = (
(968,-20,l),
(1067,106,l),
(1067,255,l),
(934,360,l),
(785,360,l),
(648,245,l),
(648,106,l),
(767,-20,l)
);
},
{
closed = 1;
nodes = (
(808,70,l),
(808,270,l),
(863,270,l),
(907,233,l),
(907,70,l)
);
}
);
width = 1100;
},
{
layerId = m005;
shapes = (
{
closed = 1;
nodes = (
(147,-30,l),
(198,-30,l),
(512,710,l),
(461,710,l)
);
},
{
closed = 1;
nodes = (
(152,560,l),
(180,590,l),
(59,590,l),
(59,560,l)
);
},
{
closed = 1;
nodes = (
(229,470,l),
(265,504,l),
(265,655,l),
(205,710,l),
(85,710,l),
(36,664,l),
(36,504,l),
(70,470,l)
);
},
{
closed = 1;
nodes = (
(76,500,l),
(76,680,l),
(176,680,l),
(225,637,l),
(225,500,l)
);
},
{
closed = 1;
nodes = (
(518,81,l),
(546,111,l),
(425,111,l),
(425,81,l)
);
},
{
closed = 1;
nodes = (
(595,-9,l),
(631,25,l),
(631,176,l),
(571,231,l),
(451,231,l),
(402,185,l),
(402,25,l),
(436,-9,l)
);
},
{
closed = 1;
nodes = (
(442,21,l),
(442,201,l),
(542,201,l),
(591,158,l),
(591,21,l)
);
}
);
width = 670;
}
);
unicode = 37;
},
{
color = 0;
glyphname = perthousand;
lastChange = "2024-08-27 02:34:42 +0000";
layers = (
{
layerId = m01;
shapes = (
{
closed = 1;
nodes = (
(140,-30,l),
(240,-30,l),
(600,710,l),
(500,710,l)
);
},
{
closed = 1;
nodes = (
(162,506,l),
(227,576,l),
(92,576,l),
(92,506,l)
);
},
{
closed = 1;
nodes = (
(254,376,l),
(349,502,l),
(349,611,l),
(254,716,l),
(148,716,l),
(30,611,l),
(30,502,l),
(148,376,l)
);
},
{
closed = 1;
nodes = (
(130,436,l),
(130,646,l),
(212,646,l),
(249,599,l),
(249,436,l)
);
},
{
closed = 1;
nodes = (
(529,120,l),
(587,190,l),
(466,190,l),
(466,120,l)
);
},
{
closed = 1;
nodes = (
(612,-10,l),
(697,116,l),
(697,225,l),
(612,330,l),
(516,330,l),
(410,225,l),
(410,116,l),
(516,-10,l)
);
},
{
closed = 1;
nodes = (
(500,50,l),
(500,260,l),
(574,260,l),
(607,213,l),
(607,50,l)
);
},
{
closed = 1;
nodes = (
(853,120,l),
(911,190,l),
(790,190,l),
(790,120,l)
);
},
{
closed = 1;
nodes = (
(936,-10,l),
(1021,116,l),
(1021,225,l),
(936,330,l),
(840,330,l),
(734,225,l),
(734,116,l),
(840,-10,l)
);
},
{
closed = 1;
nodes = (
(824,50,l),
(824,260,l),
(898,260,l),
(931,213,l),
(931,50,l)
);
}
);
width = 1050;
},
{
layerId = m004;
shapes = (
{
closed = 1;
nodes = (
(180,-30,l),
(280,-30,l),
(900,710,l),
(800,710,l)
);
},
{
closed = 1;
nodes = (
(287,506,l),
(352,576,l),
(97,576,l),
(97,506,l)
);
},
{
closed = 1;
nodes = (
(409,376,l),
(504,472,l),
(504,611,l),
(409,716,l),
(153,716,l),
(35,611,l),
(35,472,l),
(153,376,l)
);
},
{
closed = 1;
nodes = (
(135,436,l),
(135,646,l),
(367,646,l),
(404,599,l),
(404,436,l)
);
},
{
closed = 1;
nodes = (
(794,120,l),
(852,190,l),
(623,190,l),
(623,120,l)
);
},
{
closed = 1;
nodes = (
(904,-10,l),
(989,86,l),
(989,225,l),
(904,330,l),
(673,330,l),
(567,225,l),
(567,86,l),
(673,-10,l)
);
},
{
closed = 1;
nodes = (
(657,50,l),
(657,260,l),
(866,260,l),
(899,213,l),
(899,50,l)
);
},
{
closed = 1;
nodes = (
(1262,120,l),
(1320,190,l),
(1091,190,l),
(1091,120,l)
);
},
{
closed = 1;
nodes = (
(1372,-10,l),
(1457,86,l),
(1457,225,l),
(1372,330,l),
(1141,330,l),
(1035,225,l),
(1035,86,l),
(1141,-10,l)
);
},
{
closed = 1;
nodes = (
(1125,50,l),
(1125,260,l),
(1334,260,l),
(1367,213,l),
(1367,50,l)
);
}
);
width = 1490;
},
{
layerId = m002;
shapes = (
{
closed = 1;
nodes = (
(140,-40,l),
(300,-40,l),
(830,715,l),
(670,715,l)
);
},
{
closed = 1;
nodes = (
(172,486,l),
(275,566,l),
(152,566,l),
(152,486,l)
);
},
{
closed = 1;
nodes = (
(350,356,l),
(449,482,l),
(449,631,l),
(316,736,l),
(167,736,l),
(30,621,l),
(30,482,l),
(149,356,l)
);
},
{
closed = 1;
nodes = (
(190,446,l),
(190,646,l),
(245,646,l),
(289,609,l),
(289,446,l)
);
},
{
closed = 1;
nodes = (
(676,110,l),
(769,190,l),
(658,190,l),
(658,110,l)
);
},
{
closed = 1;
nodes = (
(836,-20,l),
(925,106,l),
(925,255,l),
(805,360,l),
(671,360,l),
(548,245,l),
(548,106,l),
(655,-20,l)
);
},
{
closed = 1;
nodes = (
(692,70,l),
(692,270,l),
(742,270,l),
(781,233,l),
(781,70,l)
);
},
{
closed = 1;
nodes = (
(1097,110,l),
(1190,190,l),
(1079,190,l),
(1079,110,l)
);
},
{
closed = 1;
nodes = (
(1257,-20,l),
(1346,106,l),
(1346,255,l),
(1226,360,l),
(1092,360,l),
(969,245,l),
(969,106,l),
(1076,-20,l)
);
},
{
closed = 1;
nodes = (
(1113,70,l),
(1113,270,l),
(1163,270,l),
(1202,233,l),
(1202,70,l)
);
}
);
width = 1380;
},
{
layerId = m005;
shapes = (
{
closed = 1;
nodes = (
(147,-30,l),
(198,-30,l),
(512,710,l),
(461,710,l)
);
},
{
closed = 1;
nodes = (
(152,560,l),
(180,590,l),
(59,590,l),
(59,560,l)
);
},
{
closed = 1;
nodes = (
(229,470,l),
(265,504,l),
(265,655,l),
(205,710,l),
(85,710,l),
(36,664,l),
(36,504,l),
(70,470,l)
);
},
{
closed = 1;
nodes = (
(76,500,l),
(76,680,l),
(176,680,l),
(225,637,l),
(225,500,l)
);
},
{
closed = 1;
nodes = (
(518,81,l),
(546,111,l),
(425,111,l),
(425,81,l)
);
},
{
closed = 1;
nodes = (
(595,-9,l),
(631,25,l),
(631,176,l),
(571,231,l),
(451,231,l),
(402,185,l),
(402,25,l),
(436,-9,l)
);
},
{
closed = 1;
nodes = (
(442,21,l),
(442,201,l),
(542,201,l),
(591,158,l),
(591,21,l)
);
},
{
closed = 1;
nodes = (
(807,81,l),
(835,111,l),
(714,111,l),
(714,81,l)
);
},
{
closed = 1;
nodes = (
(884,-9,l),
(920,25,l),
(920,176,l),
(860,231,l),
(740,231,l),
(691,185,l),
(691,25,l),
(725,-9,l)
);
},
{
closed = 1;
nodes = (
(731,21,l),
(731,201,l),
(831,201,l),
(880,158,l),
(880,21,l)
);
}
);
width = 960;
}
);
unicode = 8240;
},
{
glyphname = dotaccent;
lastChange = "2024-08-27 01:13:14 +0000";
layers = (
{
anchors = (
{
name = _top;
pos = (150,480);
}
);
layerId = m01;
shapes = (
{
closed = 1;
nodes = (
(150,610,l),
(221,681,l),
(150,752,l),
(79,681,l)
);
}
);
width = 300;
},
{
anchors = (
{
name = _top;
pos = (150,480);
}
);
layerId = m002;
shapes = (
{
closed = 1;
nodes = (
(150,588,l),
(243,681,l),
(150,774,l),
(57,681,l)
);
}
);
width = 300;
},
{
anchors = (
{
name = _top;
pos = (150,480);
}
);
layerId = m004;
shapes = (
{
closed = 1;
nodes = (
(150,610,l),
(221,681,l),
(150,752,l),
(79,681,l)
);
}
);
width = 300;
},
{
anchors = (
{
name = _top;
pos = (150,480);
}
);
layerId = m005;
shapes = (
{
closed = 1;
nodes = (
(150,638,l),
(193,681,l),
(150,724,l),
(107,681,l)
);
}
);
width = 300;
}
);
unicode = 729;
},
{
glyphname = grave;
lastChange = "2024-08-27 01:16:11 +0000";
layers = (
{
anchors = (
{
name = _top;
pos = (150,480);
}
);
layerId = m01;
shapes = (
{
closed = 1;
nodes = (
(62,750,l),
(180,620,l),
(230,620,l),
(162,750,l)
);
}
);
width = 300;
},
{
anchors = (
{
name = _top;
pos = (150,480);
}
);
layerId = m002;
shapes = (
{
closed = 1;
nodes = (
(30,757,l),
(160,613,l),
(255,613,l),
(180,757,l)
);
}
);
width = 300;
},
{
anchors = (
{
name = _top;
pos = (150,480);
}
);
layerId = m004;
shapes = (
{
closed = 1;
nodes = (
(22,750,l),
(180,620,l),
(240,620,l),
(132,750,l)
);
}
);
width = 300;
},
{
anchors = (
{
name = _top;
pos = (150,480);
}
);
layerId = m005;
shapes = (
{
closed = 1;
nodes = (
(82,750,l),
(190,630,l),
(220,630,l),
(142,750,l)
);
}
);
width = 300;
}
);
unicode = 96;
},
{
glyphname = hungarumlaut;
lastChange = "2024-08-26 23:07:08 +0000";
layers = (
{
anchors = (
{
name = _top;
pos = (150,480);
}
);
layerId = m01;
shapes = (
{
closed = 1;
nodes = (
(60,620,l),
(100,620,l),
(168,750,l),
(88,750,l)
);
},
{
closed = 1;
nodes = (
(178,620,l),
(218,620,l),
(286,750,l),
(206,750,l)
);
}
);
width = 300;
},
{
anchors = (
{
name = _top;
pos = (150,480);
}
);
layerId = m002;
shapes = (
{
closed = 1;
nodes = (
(32,613,l),
(107,613,l),
(173,757,l),
(62,757,l)
);
},
{
closed = 1;
nodes = (
(168,613,l),
(244,613,l),
(309,757,l),
(199,757,l)
);
}
);
width = 300;
},
{
anchors = (
{
name = _top;
pos = (150,480);
}
);
layerId = m004;
shapes = (
{
closed = 1;
nodes = (
(60,620,l),
(100,620,l),
(168,750,l),
(88,750,l)
);
},
{
closed = 1;
nodes = (
(178,620,l),
(218,620,l),
(286,750,l),
(206,750,l)
);
}
);
width = 300;
},
{
anchors = (
{
name = _top;
pos = (150,480);
}
);
layerId = m005;
shapes = (
{
closed = 1;
nodes = (
(60,620,l),
(100,620,l),
(168,750,l),
(88,750,l)
);
},
{
closed = 1;
nodes = (
(178,620,l),
(218,620,l),
(286,750,l),
(206,750,l)
);
}
);
width = 300;
}
);
unicode = 733;
},
{
glyphname = breve;
lastChange = "2024-08-27 01:15:39 +0000";
layers = (
{
anchors = (
{
name = _top;
pos = (150,480);
}
);
layerId = m01;
shapes = (
{
closed = 1;
nodes = (
(218,620,o),
(268,675,o),
(268,750,c),
(218,750,l),
(218,722,o),
(200,675,o),
(150,675,cs),
(100,675,o),
(82,722,o),
(82,750,c),
(32,750,l),
(32,675,o),
(82,620,o),
(150,620,cs)
);
}
);
width = 300;
},
{
anchors = (
{
name = _top;
pos = (150,480);
}
);
layerId = m002;
shapes = (
{
closed = 1;
nodes = (
(241,605,o),
(297,690,o),
(297,750,c),
(196,750,l),
(196,732,o),
(183,690,o),
(150,690,cs),
(117,690,o),
(104,732,o),
(104,750,c),
(3,750,l),
(3,690,o),
(59,605,o),
(150,605,cs)
);
}
);
width = 300;
},
{
anchors = (
{
name = _top;
pos = (150,480);
}
);
layerId = m004;
shapes = (
{
closed = 1;
nodes = (
(248,620,o),
(298,675,o),
(298,750,c),
(248,750,l),
(248,722,o),
(230,675,o),
(150,675,cs),
(70,675,o),
(52,722,o),
(52,750,c),
(2,750,l),
(2,675,o),
(52,620,o),
(150,620,cs)
);
}
);
width = 300;
},
{
anchors = (
{
name = _top;
pos = (150,480);
}
);
layerId = m005;
shapes = (
{
closed = 1;
nodes = (
(215,630,o),
(258,681,o),
(258,750,c),
(228,750,l),
(228,702,o),
(194,665,o),
(150,665,cs),
(102,665,o),
(72,700,o),
(72,750,c),
(42,750,l),
(42,678,o),
(88,630,o),
(150,630,cs)
);
}
);
width = 300;
}
);
unicode = 728;
},
